<svg width="20" height="20" viewBox="0 0 20 20" fill="none" xmlns="http://www.w3.org/2000/svg">
<path fill-rule="evenodd" clip-rule="evenodd" d="M3.40392 2.9725C2.85276 2.92619 2.41675 3.32771 2.41675 3.88346V13.9501C2.41675 14.3778 2.79088 14.8036 3.20977 14.8559L3.21931 14.8571L3.45779 14.8901L3.45943 14.8903C5.12646 15.1134 7.54678 15.8685 9.25 16.6709V4.98706C9.22257 4.97272 9.19544 4.95737 9.16869 4.94095L8.95314 4.81166C7.57021 3.94927 5.0354 3.10458 3.40621 2.97269L3.40392 2.9725ZM16.5095 14.89C14.851 15.1107 12.4534 15.8597 10.75 16.6611V4.98729C10.7795 4.97188 10.8087 4.95529 10.8374 4.93747L10.9844 4.84234C11.2098 4.70313 11.4676 4.56165 11.75 4.42169V6.66639C11.75 6.71392 11.7545 6.76079 11.7632 6.80649C11.8049 7.02672 11.9439 7.21967 12.1458 7.32787C12.3895 7.45845 12.6852 7.44441 12.9154 7.29134L14.1667 6.45917L15.4181 7.29134C15.6483 7.44441 15.944 7.45845 16.1877 7.32787C16.4313 7.19729 16.5834 6.94326 16.5834 6.66682V2.98121L16.5879 2.98085C17.1463 2.93392 17.5834 3.33496 17.5834 3.89181V13.9501C17.5834 14.3774 17.2099 14.8028 16.7915 14.8558L16.7904 14.8559L16.5181 14.8889L16.5095 14.89ZM12.196 2.58072C11.4527 2.88102 10.754 3.2208 10.1887 3.57078L10.176 3.57879L10.0562 3.65631L10.0545 3.65675C10.0423 3.65979 10.0232 3.66263 10.0001 3.66263C9.97697 3.66263 9.95788 3.65979 9.94569 3.65675L9.94236 3.65587L9.74129 3.53525C8.15696 2.54917 5.39697 1.62923 3.52839 1.47768C2.09673 1.35801 0.916748 2.45626 0.916748 3.88346V13.9501C0.916748 15.1208 1.83984 16.1935 3.01844 16.3437L3.25588 16.3764L3.25909 16.3769C4.97571 16.6063 7.67905 17.4939 9.19853 18.3249C9.20687 18.3294 9.21529 18.3338 9.2238 18.3381L9.24524 18.3487C9.48982 18.4798 9.76067 18.5272 9.99487 18.5272C10.2309 18.5272 10.5097 18.479 10.7589 18.3374C12.2772 17.5005 14.9809 16.6075 16.7032 16.3775L16.9738 16.3447L16.9764 16.3443C18.1576 16.1967 19.0834 15.1225 19.0834 13.9501V3.89181C19.0834 2.46015 17.9062 1.38364 16.4963 1.48348H16.4751C16.4543 1.48348 16.4335 1.48434 16.4128 1.48607C16.2036 1.50351 15.9703 1.52996 15.7238 1.57445C15.7202 1.57498 15.7166 1.57554 15.713 1.57613C14.6261 1.75286 13.3568 2.11932 12.2233 2.56928C12.2141 2.57293 12.205 2.57674 12.196 2.58072ZM13.2501 3.78393C13.8586 3.56356 14.4886 3.37421 15.0833 3.23276V5.26693L14.582 4.93352C14.3304 4.76621 14.003 4.76621 13.7514 4.93352L13.2501 5.26688V3.78393Z" fill="#737A92"/>
</svg>
