<svg width="20" height="20" viewBox="0 0 20 20" fill="none" xmlns="http://www.w3.org/2000/svg">
<path fill-rule="evenodd" clip-rule="evenodd" d="M14.7136 5.28631C15.039 5.61175 15.039 6.13938 14.7136 6.46482L11.178 10.0004L14.7136 13.5359C15.039 13.8613 15.039 14.389 14.7136 14.7144C14.3881 15.0398 13.8605 15.0398 13.535 14.7144L9.99951 11.1789L6.46398 14.7144C6.13854 15.0398 5.6109 15.0398 5.28547 14.7144C4.96003 14.389 4.96003 13.8613 5.28547 13.5359L8.821 10.0004L5.28547 6.46482C4.96003 6.13938 4.96003 5.61175 5.28547 5.28631C5.6109 4.96087 6.13854 4.96087 6.46398 5.28631L9.99951 8.82184L13.535 5.28631C13.8605 4.96087 14.3881 4.96087 14.7136 5.28631Z" fill="white"/>
</svg>
