<svg width="20" height="20" viewBox="0 0 20 20" fill="none" xmlns="http://www.w3.org/2000/svg">
<path fill-rule="evenodd" clip-rule="evenodd" d="M3.34291 3.70155C2.77333 4.27114 2.41675 5.11249 2.41675 6.19206V11.1921C2.41675 12.2717 2.77333 13.113 3.34291 13.6826C3.91249 14.2522 4.75385 14.6088 5.83342 14.6088C6.24763 14.6088 6.58342 14.9446 6.58342 15.3588V17.1338C6.58342 17.1577 6.58908 17.1695 6.59352 17.1766C6.5994 17.1859 6.60991 17.1968 6.62564 17.2052C6.64142 17.2136 6.65679 17.2165 6.6686 17.2161C6.67781 17.2158 6.69052 17.2137 6.70905 17.2014L6.7097 17.2009L10.418 14.7343C10.5411 14.6524 10.6856 14.6088 10.8334 14.6088H14.1667C15.2463 14.6088 16.0877 14.2522 16.6573 13.6826C17.2268 13.113 17.5834 12.2717 17.5834 11.1921V6.19206C17.5834 5.11249 17.2268 4.27114 16.6573 3.70155C16.0877 3.13197 15.2463 2.77539 14.1667 2.77539H5.83342C4.75385 2.77539 3.91249 3.13197 3.34291 3.70155ZM2.28225 2.64089C3.171 1.75214 4.41298 1.27539 5.83342 1.27539H14.1667C15.5872 1.27539 16.8292 1.75214 17.7179 2.64089C18.6067 3.52964 19.0834 4.77162 19.0834 6.19206V11.1921C19.0834 12.6125 18.6067 13.8545 17.7179 14.7433C16.8292 15.632 15.5872 16.1088 14.1667 16.1088H11.0601L7.5411 18.4494C7.54092 18.4496 7.54073 18.4497 7.54055 18.4498C7.54052 18.4498 7.54048 18.4499 7.54044 18.4499C6.49543 19.1459 5.08342 18.4032 5.08342 17.1338V16.0626C3.97654 15.9234 3.01074 15.4718 2.28225 14.7433C1.3935 13.8545 0.916748 12.6125 0.916748 11.1921V6.19206C0.916748 4.77162 1.3935 3.52964 2.28225 2.64089Z" fill="#737A92"/>
<path fill-rule="evenodd" clip-rule="evenodd" d="M7.8667 7.10016C7.8667 5.91931 8.81909 4.9668 10 4.9668C11.1809 4.9668 12.1333 5.91931 12.1333 7.10016C12.1333 8.043 11.5095 8.53867 11.1247 8.80168C10.9653 8.91181 10.875 8.99038 10.82 9.06408C10.7789 9.11932 10.75 9.18058 10.75 9.29183V9.4668C10.75 9.88101 10.4142 10.2168 10 10.2168C9.5858 10.2168 9.25001 9.88101 9.25001 9.4668V9.29183C9.25001 8.32829 9.88868 7.83228 10.2739 7.56631L10.2771 7.56412L10.2771 7.56413C10.4281 7.461 10.5151 7.38444 10.5672 7.31408C10.6067 7.2608 10.6333 7.20289 10.6333 7.10016C10.6333 6.74767 10.3524 6.4668 10 6.4668C9.64759 6.4668 9.3667 6.74767 9.3667 7.10016C9.3667 7.51437 9.03091 7.85016 8.6167 7.85016C8.20249 7.85016 7.8667 7.51437 7.8667 7.10016Z" fill="#737A92"/>
<path fill-rule="evenodd" clip-rule="evenodd" d="M9.24634 11.459C9.24634 11.0448 9.58212 10.709 9.99634 10.709H10.0038C10.4181 10.709 10.7538 11.0448 10.7538 11.459C10.7538 11.8732 10.4181 12.209 10.0038 12.209H9.99634C9.58212 12.209 9.24634 11.8732 9.24634 11.459Z" fill="#737A92"/>
</svg>
