<svg width="20" height="20" viewBox="0 0 20 20" fill="none" xmlns="http://www.w3.org/2000/svg">
<path fill-rule="evenodd" clip-rule="evenodd" d="M12.663 14.7506C12.9855 15.0789 13.5131 15.0837 13.8415 14.7612L18.0839 10.5945C18.2434 10.4378 18.3333 10.2236 18.3333 10C18.3333 9.77638 18.2434 9.56215 18.0839 9.40546L13.8415 5.23879C13.5131 4.9163 12.9855 4.92105 12.663 5.24941C12.3405 5.57776 12.3453 6.10538 12.6736 6.42787L15.4622 9.16667L2.49996 9.16667C2.03972 9.16667 1.66663 9.53976 1.66663 10C1.66663 10.4602 2.03972 10.8333 2.49996 10.8333L15.4622 10.8333L12.6736 13.5721C12.3453 13.8946 12.3405 14.4222 12.663 14.7506Z" fill="#1A1A18"/>
</svg>
