<svg width="18" height="18" viewBox="0 0 18 18" fill="none" xmlns="http://www.w3.org/2000/svg">
<path fill-rule="evenodd" clip-rule="evenodd" d="M12.9929 3.68729C12.0841 2.77497 10.6319 2.77497 9.72306 3.68729L4.80258 8.62671C3.35115 10.0837 3.35115 12.4813 4.80258 13.9384C6.20861 15.3498 8.45528 15.3498 9.8613 13.9384L14.5062 9.27555C14.7953 8.98538 15.2587 8.99072 15.5414 9.28749C15.824 9.58426 15.8188 10.0601 15.5298 10.3502L10.8848 15.0131C8.90984 16.9956 5.75405 16.9956 3.77907 15.0131C1.74031 12.9665 1.74031 9.59863 3.77907 7.55202L8.69954 2.6126C10.1773 1.12913 12.5386 1.12914 14.0164 2.6126C15.5419 4.14397 15.5419 6.66393 14.0164 8.1953L9.28304 12.9469C8.40192 13.8314 6.99398 13.8314 6.11285 12.9469C5.20327 12.0338 5.20327 10.5313 6.11285 9.61819L10.1142 5.60143C10.4033 5.31126 10.8667 5.3166 11.1494 5.61337C11.432 5.91014 11.4268 6.38595 11.1377 6.67612L7.13637 10.6929C6.81412 11.0164 6.81412 11.5487 7.13637 11.8722C7.44854 12.1856 7.94735 12.1856 8.25952 11.8722L12.9929 7.12061C13.9311 6.17883 13.9311 4.62907 12.9929 3.68729Z" fill="#1A1A18"/>
</svg>
