<svg width="180" height="55" viewBox="0 0 180 55" fill="none" xmlns="http://www.w3.org/2000/svg">
<path fill-rule="evenodd" clip-rule="evenodd" d="M50.5996 23.3369L50.6032 23.3406C52.4664 25.2673 52.4656 28.3993 50.6008 30.3248C49.6958 31.2583 48.4935 31.7721 47.2152 31.7721H46.4311V47.8812C46.4311 51.0689 43.9176 53.6626 40.8276 53.6626H32.0839C31.3808 53.6626 30.8915 53.1144 30.8915 52.4604C30.8915 51.362 32.9235 48.259 34.7694 45.4402C35.5901 44.1869 36.374 42.9898 36.9262 42.0501C38.7202 38.9967 38.8367 36.3521 38.8367 35.0057C38.8367 27.7449 33.077 21.8545 25.9962 21.8545C18.9153 21.8545 13.1603 27.817 13.1603 35.0057C13.1603 38.3243 14.1389 40.4152 15.001 41.9539C15.2349 42.3715 15.7914 43.2033 16.4782 44.2298C18.3222 46.9862 21.1055 51.1466 21.1055 52.4604C21.1055 53.2779 20.4065 53.6626 19.9447 53.6626H11.1731C8.08303 53.6626 5.5695 51.0689 5.5695 47.8812V31.7721H4.72398C4.67439 31.7721 4.62519 31.7696 4.57639 31.7647C3.37457 31.7115 2.25053 31.2026 1.39946 30.324C-0.463373 28.4018 -0.466547 25.2751 1.39033 23.348C1.39747 23.3406 1.40462 23.3328 1.41176 23.3255L22.6147 1.44727C23.5193 0.513813 24.7215 0 26.0003 0C27.2791 0 28.4813 0.514222 29.3856 1.44768L50.5996 23.3369Z" fill="#467CE8"/>
<path d="M19.9447 53.6626H32.0839C31.3808 53.6626 30.8915 53.1144 30.8915 52.4604C30.8915 51.362 32.9235 48.259 34.7694 45.4402C35.5901 44.1869 36.374 42.9898 36.9262 42.0501C38.7202 38.9967 38.8367 36.3521 38.8367 35.0057C38.8367 27.7449 33.077 21.8545 25.9962 21.8545C18.9153 21.8545 13.1603 27.817 13.1603 35.0057C13.1603 38.3243 14.1389 40.4152 15.001 41.9539C15.2349 42.3715 15.7914 43.2033 16.4782 44.2298C18.3222 46.9862 21.1055 51.1466 21.1055 52.4604C21.1055 53.2779 20.4065 53.6626 19.9447 53.6626Z" fill="#467CE8"/>
<path d="M27.8765 21.3016C27.8765 21.3016 25.0196 21.697 24.1417 23.2876C23.4101 24.6133 23.8817 25.7019 24.8725 26.3729C24.8048 26.48 24.7368 26.5921 24.6683 26.7162L24.9981 26.9155C25.2172 26.5185 25.4372 26.2219 25.6497 25.9352C26.0663 25.3733 26.4968 24.7894 26.8992 23.4833C26.9241 24.5808 26.0254 25.9369 25.6836 26.7726C26.5808 27.0533 27.4839 26.794 28.0997 25.6782C28.9776 24.0875 27.8765 21.3016 27.8765 21.3016Z" fill="white"/>
<path d="M24.1152 48.1329C24.1152 48.1329 26.9721 47.7375 27.85 46.1469C28.5816 44.8212 28.11 43.7326 27.1192 43.0616C27.1869 42.9545 27.2549 42.8424 27.3234 42.7182L26.9936 42.519C26.7745 42.916 26.5545 43.2126 26.342 43.4993C25.9254 44.0612 25.4949 44.6451 25.0925 45.9512C25.0676 44.8537 25.9663 43.4976 26.3081 42.6619C25.4109 42.3812 24.5078 42.6405 23.892 43.7563C23.0141 45.347 24.1152 48.1329 24.1152 48.1329Z" fill="white"/>
<path d="M34.1223 23.9214C34.1223 23.9214 31.4592 22.7694 29.9387 23.6878C28.6715 24.4532 28.5596 25.6426 29.0969 26.742C28.9871 26.7993 28.8746 26.8609 28.756 26.9325L28.9464 27.2776C29.3259 27.0484 29.6581 26.9066 29.9792 26.7694C30.6086 26.5007 31.2605 26.2202 32.2332 25.2996C31.7302 26.2631 30.3037 26.9674 29.6083 27.5124C30.2511 28.2247 31.1572 28.4726 32.2238 27.8284C33.7444 26.91 34.1223 23.9214 34.1223 23.9214Z" fill="white"/>
<path d="M17.8694 45.5131C17.8694 45.5131 20.5325 46.665 22.053 45.7467C23.3202 44.9813 23.4321 43.7918 22.8948 42.6925C23.0046 42.6352 23.1171 42.5736 23.2357 42.502L23.0453 42.1569C22.6658 42.3861 22.3336 42.5279 22.0125 42.665C21.3831 42.9338 20.7312 43.2143 19.7585 44.1349C20.2615 43.1714 21.688 42.4671 22.3834 41.9221C21.7406 41.2097 20.8345 40.9619 19.7678 41.6061C18.2473 42.5244 17.8694 45.5131 17.8694 45.5131Z" fill="white"/>
<path d="M38.2355 29.7253C38.2355 29.7253 36.4798 27.3347 34.724 27.3347C33.2608 27.3347 32.5954 28.3062 32.5353 29.5394C32.4128 29.5316 32.286 29.526 32.149 29.526V29.9245C32.5871 29.9245 32.9427 29.9754 33.2863 30.0247C33.9597 30.1211 34.6584 30.2192 35.9408 29.9307C35.0447 30.502 33.4727 30.3658 32.6099 30.4741C32.8262 31.4272 33.4924 32.1158 34.724 32.1158C36.4798 32.1158 38.2355 29.7253 38.2355 29.7253Z" fill="white"/>
<path d="M13.7562 39.7092C13.7562 39.7092 15.5119 42.0998 17.2677 42.0998C18.7309 42.0998 19.3963 41.1282 19.4564 39.8951C19.5789 39.9029 19.7057 39.9085 19.8427 39.9085L19.8427 39.51C19.4046 39.51 19.049 39.459 18.7054 39.4098C18.032 39.3134 17.3333 39.2153 16.0509 39.5038C16.947 38.9325 18.519 39.0687 19.3818 38.9604C19.1655 38.0073 18.4993 37.3187 17.2677 37.3187C15.5119 37.3187 13.7562 39.7092 13.7562 39.7092Z" fill="white"/>
<path d="M38.9958 36.69C38.9958 36.69 38.6179 33.7013 37.0974 32.783C35.8302 32.0176 34.7896 32.5109 34.1482 33.5474C34.0458 33.4766 33.9386 33.4055 33.82 33.3338L33.6295 33.6789C34.009 33.9081 34.2925 34.1382 34.5666 34.3605C35.1037 34.7963 35.6619 35.2467 36.9104 35.6676C35.8613 35.6937 34.565 34.7535 33.7661 34.396C33.4978 35.3345 33.7456 36.2793 34.8123 36.9236C36.3328 37.8419 38.9958 36.69 38.9958 36.69Z" fill="white"/>
<path d="M12.9958 32.7445C12.9958 32.7445 13.3738 35.7331 14.8943 36.6515C16.1615 37.4169 17.2021 36.9235 17.8435 35.887C17.9459 35.9579 18.0531 36.029 18.1717 36.1007L18.3622 35.7556C17.9827 35.5264 17.6992 35.2963 17.4251 35.074C16.888 34.6382 16.3298 34.1878 15.0813 33.7669C16.1304 33.7408 17.4267 34.681 18.2256 35.0385C18.4939 34.1 18.2461 33.1551 17.1794 32.5109C15.6589 31.5925 12.9958 32.7445 12.9958 32.7445Z" fill="white"/>
<path d="M36.2293 42.9951C36.2293 42.9951 37.3305 40.2091 36.4526 38.6185C35.721 37.2928 34.584 37.1758 33.5331 37.7379C33.4783 37.623 33.4195 37.5053 33.351 37.3812L33.0211 37.5804C33.2402 37.9774 33.3758 38.325 33.5068 38.6609C33.7637 39.3193 34.0319 40.0012 34.9119 41.0188C33.9909 40.4926 33.3176 39.0004 32.7966 38.2729C32.1157 38.9454 31.8788 39.8932 32.4946 41.0091C33.3724 42.5997 36.2293 42.9951 36.2293 42.9951Z" fill="white"/>
<path d="M15.7624 26.4394C15.7624 26.4394 14.6612 29.2253 15.5391 30.816C16.2707 32.1417 17.4077 32.2587 18.4586 31.6966C18.5134 31.8115 18.5722 31.9292 18.6407 32.0533L18.9706 31.8541C18.7515 31.4571 18.6159 31.1095 18.4848 30.7736C18.228 30.1152 17.9598 29.4333 17.0798 28.4156C18.0008 28.9418 18.6741 30.4341 19.1951 31.1616C19.876 30.4891 20.1129 29.5412 19.4971 28.4254C18.6193 26.8348 15.7624 26.4394 15.7624 26.4394Z" fill="white"/>
<path d="M30.6369 47.1529C30.6369 47.1529 32.9221 45.3161 32.9221 43.4794C32.9221 41.9487 31.9933 41.2526 30.8146 41.1897C30.822 41.0615 30.8273 40.9289 30.8273 40.7856H30.4465C30.4465 41.2439 30.3977 41.6159 30.3507 41.9753C30.2585 42.6799 30.1647 43.4107 30.4405 44.7523C29.8944 43.8148 30.0246 42.1703 29.9211 41.2678C29.01 41.494 28.3517 42.191 28.3517 43.4794C28.3517 45.3162 30.6369 47.1529 30.6369 47.1529Z" fill="white"/>
<path d="M21.3548 22.2816C21.3548 22.2816 19.0696 24.1183 19.0696 25.9551C19.0696 27.4858 19.9984 28.1819 21.1771 28.2448C21.1697 28.3729 21.1644 28.5056 21.1644 28.6489H21.5452C21.5452 28.1905 21.594 27.8186 21.641 27.4591C21.7332 26.7546 21.827 26.0238 21.5512 24.6822C22.0973 25.6196 21.9671 27.2641 22.0706 28.1667C22.9817 27.9405 23.64 27.2435 23.64 25.9551C23.64 24.1183 21.3548 22.2816 21.3548 22.2816Z" fill="white"/>
<path d="M70.5089 52.3907C70.0159 52.3907 69.5384 52.3134 69.0766 52.1588C68.621 51.9978 68.2621 51.7917 68 51.5405L68.3464 50.7869C68.596 51.0188 68.9143 51.2088 69.3013 51.3569C69.6945 51.4986 70.097 51.5695 70.5089 51.5695C71.0519 51.5695 71.4576 51.4761 71.726 51.2893C71.9943 51.0961 72.1285 50.8417 72.1285 50.5261C72.1285 50.2942 72.0536 50.1075 71.9038 49.9658C71.7603 49.8176 71.5793 49.7049 71.3609 49.6276C71.1487 49.5503 70.846 49.4634 70.4528 49.3668C69.9597 49.2444 69.5603 49.122 69.2545 48.9997C68.9549 48.8773 68.6959 48.6905 68.4774 48.4393C68.2652 48.1817 68.1591 47.8371 68.1591 47.4056C68.1591 47.0449 68.2496 46.7197 68.4306 46.4298C68.6179 46.14 68.8987 45.9081 69.2732 45.7342C69.6477 45.5603 70.1126 45.4734 70.6681 45.4734C71.055 45.4734 71.4357 45.5249 71.8102 45.628C72.1847 45.731 72.5061 45.8792 72.7745 46.0724L72.4655 46.8453C72.1909 46.6649 71.8976 46.5297 71.5855 46.4395C71.2735 46.3429 70.9677 46.2946 70.6681 46.2946C70.1376 46.2946 69.7382 46.3944 69.4698 46.5941C69.2077 46.7937 69.0766 47.0514 69.0766 47.3669C69.0766 47.5988 69.1515 47.7888 69.3013 47.9369C69.4511 48.0786 69.6352 48.1914 69.8536 48.2751C70.0783 48.3524 70.381 48.4361 70.7617 48.5263C71.2548 48.6486 71.6511 48.771 71.9506 48.8934C72.2502 49.0158 72.5061 49.2025 72.7183 49.4537C72.9367 49.7049 73.046 50.043 73.046 50.4681C73.046 50.8224 72.9523 51.1476 72.7651 51.4439C72.5779 51.7337 72.2939 51.9656 71.9132 52.1395C71.5325 52.3069 71.0644 52.3907 70.5089 52.3907Z" fill="#95A1B6"/>
<path d="M80.583 47.1447C81.2071 47.1447 81.7002 47.3315 82.0622 47.7051C82.4304 48.0786 82.6145 48.6325 82.6145 49.3668V52.3134H81.7158V49.473C81.7158 48.9771 81.6034 48.6036 81.3787 48.3524C81.1603 48.1012 80.8451 47.9756 80.4332 47.9756C79.9776 47.9756 79.6156 48.1237 79.3473 48.42C79.0789 48.7098 78.9447 49.1285 78.9447 49.6759V52.3134H78.046V49.473C78.046 48.9771 77.9336 48.6036 77.709 48.3524C77.4905 48.1012 77.1753 47.9756 76.7634 47.9756C76.3078 47.9756 75.9458 48.1237 75.6775 48.42C75.4091 48.7098 75.2749 49.1285 75.2749 49.6759V52.3134H74.3762V47.193H75.2375V47.9563C75.4185 47.6922 75.6556 47.4925 75.949 47.3573C76.2423 47.2156 76.5762 47.1447 76.9507 47.1447C77.3376 47.1447 77.6809 47.2253 77.9805 47.3863C78.28 47.5473 78.5109 47.7824 78.6732 48.0915C78.8605 47.7953 79.1195 47.5634 79.4502 47.3959C79.7873 47.2285 80.1648 47.1447 80.583 47.1447Z" fill="#95A1B6"/>
<path d="M86.1686 47.1447C86.8551 47.1447 87.3794 47.3186 87.7413 47.6664C88.1096 48.0142 88.2937 48.5327 88.2937 49.2219V52.3134H87.4418V51.6371C87.292 51.8754 87.0767 52.059 86.7958 52.1878C86.5212 52.3102 86.1935 52.3714 85.8128 52.3714C85.2574 52.3714 84.8111 52.2329 84.4741 51.9559C84.1433 51.679 83.9779 51.3151 83.9779 50.8642C83.9779 50.4134 84.1371 50.0527 84.4554 49.7822C84.7737 49.5053 85.2792 49.3668 85.972 49.3668H87.395V49.1832C87.395 48.7839 87.2826 48.478 87.0579 48.2654C86.8333 48.0529 86.5025 47.9466 86.0656 47.9466C85.7723 47.9466 85.4852 47.9981 85.2043 48.1012C84.9235 48.1978 84.6863 48.3298 84.4928 48.4973L84.1184 47.8017C84.3743 47.5892 84.6801 47.4281 85.0358 47.3186C85.3916 47.2027 85.7691 47.1447 86.1686 47.1447ZM85.9626 51.6564C86.3059 51.6564 86.6023 51.5791 86.852 51.4246C87.1016 51.2636 87.2826 51.0381 87.395 50.7483V50.0334H86.0094C85.248 50.0334 84.8673 50.2975 84.8673 50.8256C84.8673 51.0832 84.964 51.2861 85.1575 51.4342C85.351 51.5824 85.6194 51.6564 85.9626 51.6564Z" fill="#95A1B6"/>
<path d="M90.9117 48.0529C91.0678 47.7566 91.2987 47.5312 91.6045 47.3766C91.9103 47.222 92.2817 47.1447 92.7185 47.1447V48.0432C92.6686 48.0368 92.6 48.0336 92.5126 48.0336C92.0258 48.0336 91.642 48.1849 91.3611 48.4876C91.0865 48.7839 90.9492 49.209 90.9492 49.7629V52.3134H90.0505V47.193H90.9117V48.0529Z" fill="#95A1B6"/>
<path d="M96.9108 52.0139C96.7797 52.1298 96.6174 52.22 96.424 52.2844C96.2305 52.3424 96.0308 52.3714 95.8248 52.3714C95.3255 52.3714 94.9386 52.2329 94.664 51.9559C94.3893 51.679 94.252 51.2829 94.252 50.7676V47.9563H93.4095V47.193H94.252V46.0724H95.1508V47.193H96.5737V47.9563H95.1508V50.729C95.1508 51.0059 95.2163 51.2185 95.3474 51.3666C95.4847 51.5147 95.6781 51.5888 95.9278 51.5888C96.2024 51.5888 96.4364 51.5083 96.6299 51.3473L96.9108 52.0139Z" fill="#95A1B6"/>
<path d="M103.76 52.3907C103.105 52.3907 102.512 52.2425 101.981 51.9463C101.457 51.6436 101.045 51.2314 100.745 50.7097C100.446 50.1815 100.296 49.589 100.296 48.932C100.296 48.2751 100.446 47.6858 100.745 47.1641C101.045 46.6359 101.46 46.2237 101.991 45.9275C102.521 45.6247 103.114 45.4734 103.769 45.4734C104.281 45.4734 104.749 45.5636 105.174 45.7439C105.598 45.9178 105.96 46.1786 106.26 46.5264L105.651 47.1351C105.158 46.6005 104.543 46.3332 103.807 46.3332C103.32 46.3332 102.88 46.4459 102.487 46.6714C102.094 46.8968 101.785 47.2092 101.56 47.6085C101.342 48.0014 101.232 48.4425 101.232 48.932C101.232 49.4215 101.342 49.8659 101.56 50.2653C101.785 50.6581 102.094 50.9673 102.487 51.1927C102.88 51.4181 103.32 51.5308 103.807 51.5308C104.537 51.5308 105.152 51.2603 105.651 50.7193L106.26 51.328C105.96 51.6758 105.595 51.9398 105.164 52.1202C104.74 52.3005 104.272 52.3907 103.76 52.3907Z" fill="#95A1B6"/>
<path d="M107.558 45.1449H108.456V52.3134H107.558V45.1449Z" fill="#95A1B6"/>
<path d="M110.266 47.193H111.165V52.3134H110.266V47.193ZM110.715 46.2076C110.54 46.2076 110.394 46.1497 110.275 46.0337C110.163 45.9178 110.107 45.7761 110.107 45.6086C110.107 45.4412 110.163 45.2995 110.275 45.1836C110.394 45.0612 110.54 45 110.715 45C110.89 45 111.034 45.058 111.146 45.1739C111.264 45.2834 111.324 45.4219 111.324 45.5893C111.324 45.7632 111.264 45.9114 111.146 46.0337C111.034 46.1497 110.89 46.2076 110.715 46.2076Z" fill="#95A1B6"/>
<path d="M119.181 47.1447C119.805 47.1447 120.298 47.3315 120.66 47.7051C121.028 48.0786 121.212 48.6325 121.212 49.3668V52.3134H120.314V49.473C120.314 48.9771 120.201 48.6036 119.977 48.3524C119.758 48.1012 119.443 47.9756 119.031 47.9756C118.576 47.9756 118.214 48.1237 117.945 48.42C117.677 48.7098 117.543 49.1285 117.543 49.6759V52.3134H116.644V49.473C116.644 48.9771 116.532 48.6036 116.307 48.3524C116.089 48.1012 115.773 47.9756 115.361 47.9756C114.906 47.9756 114.544 48.1237 114.275 48.42C114.007 48.7098 113.873 49.1285 113.873 49.6759V52.3134H112.974V47.193H113.835V47.9563C114.016 47.6922 114.254 47.4925 114.547 47.3573C114.84 47.2156 115.174 47.1447 115.549 47.1447C115.936 47.1447 116.279 47.2253 116.578 47.3863C116.878 47.5473 117.109 47.7824 117.271 48.0915C117.458 47.7953 117.717 47.5634 118.048 47.3959C118.385 47.2285 118.763 47.1447 119.181 47.1447Z" fill="#95A1B6"/>
<path d="M124.767 47.1447C125.453 47.1447 125.977 47.3186 126.339 47.6664C126.708 48.0142 126.892 48.5327 126.892 49.2219V52.3134H126.04V51.6371C125.89 51.8754 125.675 52.059 125.394 52.1878C125.119 52.3102 124.792 52.3714 124.411 52.3714C123.855 52.3714 123.409 52.2329 123.072 51.9559C122.741 51.679 122.576 51.3151 122.576 50.8642C122.576 50.4134 122.735 50.0527 123.053 49.7822C123.372 49.5053 123.877 49.3668 124.57 49.3668H125.993V49.1832C125.993 48.7839 125.881 48.478 125.656 48.2654C125.431 48.0529 125.1 47.9466 124.664 47.9466C124.37 47.9466 124.083 47.9981 123.802 48.1012C123.521 48.1978 123.284 48.3298 123.091 48.4973L122.716 47.8017C122.972 47.5892 123.278 47.4281 123.634 47.3186C123.99 47.2027 124.367 47.1447 124.767 47.1447ZM124.561 51.6564C124.904 51.6564 125.2 51.5791 125.45 51.4246C125.7 51.2636 125.881 51.0381 125.993 50.7483V50.0334H124.607C123.846 50.0334 123.465 50.2975 123.465 50.8256C123.465 51.0832 123.562 51.2861 123.756 51.4342C123.949 51.5824 124.217 51.6564 124.561 51.6564Z" fill="#95A1B6"/>
<path d="M131.438 52.0139C131.307 52.1298 131.145 52.22 130.951 52.2844C130.758 52.3424 130.558 52.3714 130.352 52.3714C129.853 52.3714 129.466 52.2329 129.191 51.9559C128.917 51.679 128.78 51.2829 128.78 50.7676V47.9563H127.937V47.193H128.78V46.0724H129.678V47.193H131.101V47.9563H129.678V50.729C129.678 51.0059 129.744 51.2185 129.875 51.3666C130.012 51.5147 130.206 51.5888 130.455 51.5888C130.73 51.5888 130.964 51.5083 131.157 51.3473L131.438 52.0139Z" fill="#95A1B6"/>
<path d="M136.938 49.7822C136.938 49.853 136.932 49.9464 136.919 50.0624H132.894C132.95 50.5132 133.14 50.8771 133.465 51.1541C133.796 51.4246 134.204 51.5598 134.691 51.5598C135.284 51.5598 135.762 51.3537 136.124 50.9415L136.62 51.5405C136.395 51.811 136.114 52.0171 135.777 52.1588C135.446 52.3005 135.075 52.3714 134.663 52.3714C134.139 52.3714 133.674 52.2619 133.268 52.0429C132.863 51.8175 132.547 51.5051 132.323 51.1058C132.104 50.7064 131.995 50.2556 131.995 49.7532C131.995 49.2573 132.101 48.8097 132.313 48.4103C132.532 48.011 132.828 47.7019 133.203 47.4829C133.583 47.2575 134.011 47.1447 134.485 47.1447C134.96 47.1447 135.381 47.2575 135.749 47.4829C136.124 47.7019 136.414 48.011 136.62 48.4103C136.832 48.8097 136.938 49.2669 136.938 49.7822ZM134.485 47.9273C134.055 47.9273 133.693 48.0625 133.399 48.333C133.112 48.6036 132.944 48.9578 132.894 49.3958H136.077C136.027 48.9642 135.855 48.6132 135.562 48.3427C135.275 48.0658 134.916 47.9273 134.485 47.9273Z" fill="#95A1B6"/>
<path d="M142.928 52.3907C142.435 52.3907 141.958 52.3134 141.496 52.1588C141.04 51.9978 140.681 51.7917 140.419 51.5405L140.766 50.7869C141.015 51.0188 141.334 51.2088 141.721 51.3569C142.114 51.4986 142.516 51.5695 142.928 51.5695C143.471 51.5695 143.877 51.4761 144.145 51.2893C144.414 51.0961 144.548 50.8417 144.548 50.5261C144.548 50.2942 144.473 50.1075 144.323 49.9658C144.18 49.8176 143.999 49.7049 143.78 49.6276C143.568 49.5503 143.265 49.4634 142.872 49.3668C142.379 49.2444 141.98 49.122 141.674 48.9997C141.374 48.8773 141.115 48.6905 140.897 48.4393C140.685 48.1817 140.578 47.8371 140.578 47.4056C140.578 47.0449 140.669 46.7197 140.85 46.4298C141.037 46.14 141.318 45.9081 141.693 45.7342C142.067 45.5603 142.532 45.4734 143.087 45.4734C143.474 45.4734 143.855 45.5249 144.23 45.628C144.604 45.731 144.925 45.8792 145.194 46.0724L144.885 46.8453C144.61 46.6649 144.317 46.5297 144.005 46.4395C143.693 46.3429 143.387 46.2946 143.087 46.2946C142.557 46.2946 142.158 46.3944 141.889 46.5941C141.627 46.7937 141.496 47.0514 141.496 47.3669C141.496 47.5988 141.571 47.7888 141.721 47.9369C141.87 48.0786 142.055 48.1914 142.273 48.2751C142.498 48.3524 142.8 48.4361 143.181 48.5263C143.674 48.6486 144.07 48.771 144.37 48.8934C144.67 49.0158 144.925 49.2025 145.138 49.4537C145.356 49.7049 145.465 50.043 145.465 50.4681C145.465 50.8224 145.372 51.1476 145.184 51.4439C144.997 51.7337 144.713 51.9656 144.333 52.1395C143.952 52.3069 143.484 52.3907 142.928 52.3907Z" fill="#95A1B6"/>
<path d="M151.095 47.193L148.689 52.8254C148.477 53.3471 148.227 53.7142 147.94 53.9268C147.659 54.1393 147.319 54.2456 146.919 54.2456C146.676 54.2456 146.439 54.2037 146.208 54.12C145.983 54.0427 145.796 53.9268 145.646 53.7722L146.03 53.0766C146.286 53.3278 146.582 53.4534 146.919 53.4534C147.138 53.4534 147.319 53.3922 147.462 53.2698C147.612 53.1539 147.746 52.951 147.865 52.6612L148.024 52.3037L145.833 47.193H146.77L148.502 51.2893L150.215 47.193H151.095Z" fill="#95A1B6"/>
<path d="M153.386 52.3714C152.98 52.3714 152.59 52.3166 152.216 52.2071C151.841 52.0912 151.548 51.9463 151.336 51.7724L151.71 51.0381C151.929 51.1992 152.194 51.328 152.506 51.4246C152.818 51.5212 153.133 51.5695 153.452 51.5695C154.238 51.5695 154.631 51.3376 154.631 50.8739C154.631 50.7193 154.578 50.5969 154.472 50.5068C154.366 50.4166 154.232 50.3522 154.07 50.3136C153.913 50.2685 153.689 50.2202 153.395 50.1686C152.996 50.1042 152.668 50.0302 152.412 49.9464C152.163 49.8627 151.948 49.721 151.767 49.5214C151.586 49.3217 151.495 49.0415 151.495 48.6808C151.495 48.2171 151.682 47.8468 152.057 47.5698C152.431 47.2864 152.934 47.1447 153.564 47.1447C153.895 47.1447 154.226 47.1866 154.556 47.2703C154.887 47.3541 155.159 47.4668 155.371 47.6085L154.987 48.3427C154.581 48.0722 154.104 47.9369 153.555 47.9369C153.174 47.9369 152.884 48.0014 152.684 48.1302C152.484 48.259 152.384 48.4297 152.384 48.6422C152.384 48.8097 152.441 48.9417 152.553 49.0383C152.665 49.1349 152.803 49.2058 152.965 49.2508C153.133 49.2959 153.367 49.3475 153.667 49.4054C154.066 49.4763 154.388 49.5536 154.631 49.6373C154.881 49.7146 155.093 49.8498 155.268 50.043C155.443 50.2363 155.53 50.5068 155.53 50.8546C155.53 51.3183 155.336 51.6886 154.95 51.9656C154.569 52.2361 154.048 52.3714 153.386 52.3714Z" fill="#95A1B6"/>
<path d="M159.537 52.0139C159.405 52.1298 159.243 52.22 159.05 52.2844C158.856 52.3424 158.657 52.3714 158.451 52.3714C157.951 52.3714 157.564 52.2329 157.29 51.9559C157.015 51.679 156.878 51.2829 156.878 50.7676V47.9563H156.035V47.193H156.878V46.0724H157.777V47.193H159.2V47.9563H157.777V50.729C157.777 51.0059 157.842 51.2185 157.973 51.3666C158.11 51.5147 158.304 51.5888 158.554 51.5888C158.828 51.5888 159.062 51.5083 159.256 51.3473L159.537 52.0139Z" fill="#95A1B6"/>
<path d="M165.036 49.7822C165.036 49.853 165.03 49.9464 165.018 50.0624H160.992C161.048 50.5132 161.239 50.8771 161.563 51.1541C161.894 51.4246 162.303 51.5598 162.79 51.5598C163.382 51.5598 163.86 51.3537 164.222 50.9415L164.718 51.5405C164.493 51.811 164.213 52.0171 163.876 52.1588C163.545 52.3005 163.173 52.3714 162.761 52.3714C162.237 52.3714 161.772 52.2619 161.367 52.0429C160.961 51.8175 160.646 51.5051 160.421 51.1058C160.203 50.7064 160.093 50.2556 160.093 49.7532C160.093 49.2573 160.2 48.8097 160.412 48.4103C160.63 48.011 160.927 47.7019 161.301 47.4829C161.682 47.2575 162.109 47.1447 162.584 47.1447C163.058 47.1447 163.479 47.2575 163.847 47.4829C164.222 47.7019 164.512 48.011 164.718 48.4103C164.93 48.8097 165.036 49.2669 165.036 49.7822ZM162.584 47.9273C162.153 47.9273 161.791 48.0625 161.498 48.333C161.211 48.6036 161.042 48.9578 160.992 49.3958H164.175C164.125 48.9642 163.954 48.6132 163.66 48.3427C163.373 48.0658 163.014 47.9273 162.584 47.9273Z" fill="#95A1B6"/>
<path d="M172.585 47.1447C173.209 47.1447 173.702 47.3315 174.064 47.7051C174.432 48.0786 174.616 48.6325 174.616 49.3668V52.3134H173.718V49.473C173.718 48.9771 173.605 48.6036 173.381 48.3524C173.162 48.1012 172.847 47.9756 172.435 47.9756C171.979 47.9756 171.617 48.1237 171.349 48.42C171.081 48.7098 170.946 49.1285 170.946 49.6759V52.3134H170.048V49.473C170.048 48.9771 169.935 48.6036 169.711 48.3524C169.492 48.1012 169.177 47.9756 168.765 47.9756C168.31 47.9756 167.948 48.1237 167.679 48.42C167.411 48.7098 167.277 49.1285 167.277 49.6759V52.3134H166.378V47.193H167.239V47.9563C167.42 47.6922 167.657 47.4925 167.951 47.3573C168.244 47.2156 168.578 47.1447 168.952 47.1447C169.339 47.1447 169.683 47.2253 169.982 47.3863C170.282 47.5473 170.513 47.7824 170.675 48.0915C170.862 47.7953 171.121 47.5634 171.452 47.3959C171.789 47.2285 172.167 47.1447 172.585 47.1447Z" fill="#95A1B6"/>
<path d="M177.786 52.3714C177.381 52.3714 176.991 52.3166 176.616 52.2071C176.242 52.0912 175.948 51.9463 175.736 51.7724L176.111 51.0381C176.329 51.1992 176.594 51.328 176.907 51.4246C177.219 51.5212 177.534 51.5695 177.852 51.5695C178.638 51.5695 179.032 51.3376 179.032 50.8739C179.032 50.7193 178.979 50.5969 178.872 50.5068C178.766 50.4166 178.632 50.3522 178.47 50.3136C178.314 50.2685 178.089 50.2202 177.796 50.1686C177.396 50.1042 177.069 50.0302 176.813 49.9464C176.563 49.8627 176.348 49.721 176.167 49.5214C175.986 49.3217 175.895 49.0415 175.895 48.6808C175.895 48.2171 176.083 47.8468 176.457 47.5698C176.832 47.2864 177.334 47.1447 177.964 47.1447C178.295 47.1447 178.626 47.1866 178.957 47.2703C179.287 47.3541 179.559 47.4668 179.771 47.6085L179.387 48.3427C178.982 48.0722 178.504 47.9369 177.955 47.9369C177.574 47.9369 177.284 48.0014 177.084 48.1302C176.885 48.259 176.785 48.4297 176.785 48.6422C176.785 48.8097 176.841 48.9417 176.953 49.0383C177.066 49.1349 177.203 49.2058 177.365 49.2508C177.534 49.2959 177.768 49.3475 178.067 49.4054C178.467 49.4763 178.788 49.5536 179.032 49.6373C179.281 49.7146 179.493 49.8498 179.668 50.043C179.843 50.2363 179.93 50.5068 179.93 50.8546C179.93 51.3183 179.737 51.6886 179.35 51.9656C178.969 52.2361 178.448 52.3714 177.786 52.3714Z" fill="#95A1B6"/>
<path d="M80.4407 37C78.0253 37 75.6827 36.686 73.4128 36.058C71.172 35.4015 69.3678 34.5594 68 33.5318L70.4008 28.308C71.7104 29.25 73.2673 30.0064 75.0716 30.5773C76.8758 31.1482 78.6801 31.4337 80.4844 31.4337C82.4923 31.4337 83.9765 31.1482 84.9368 30.5773C85.8972 29.9779 86.3773 29.1929 86.3773 28.2224C86.3773 27.5087 86.0863 26.9236 85.5043 26.4668C84.9514 25.9816 84.2239 25.5962 83.3217 25.3108C82.4487 25.0253 81.2556 24.7113 79.7423 24.3688C77.4142 23.8264 75.5081 23.2841 74.0239 22.7417C72.5398 22.1994 71.2593 21.3287 70.1826 20.1298C69.1349 18.9309 68.6111 17.3324 68.6111 15.3343C68.6111 13.593 69.0913 12.023 70.0516 10.6243C71.012 9.19705 72.4525 8.06952 74.3731 7.24171C76.3229 6.4139 78.6947 6 81.4884 6C83.4381 6 85.3443 6.22836 87.2067 6.68508C89.0692 7.1418 90.6989 7.79834 92.0957 8.65469L89.9131 13.9213C87.0903 12.3513 84.2675 11.5663 81.4447 11.5663C79.4658 11.5663 77.9962 11.8803 77.0359 12.5083C76.1047 13.1363 75.639 13.9641 75.639 14.9917C75.639 16.0193 76.1774 16.7901 77.2542 17.3039C78.36 17.7891 80.0333 18.2744 82.2741 18.7597C84.6022 19.302 86.5083 19.8444 87.9925 20.3867C89.4766 20.9291 90.7425 21.7854 91.7902 22.9558C92.8669 24.1261 93.4053 25.7104 93.4053 27.7086C93.4053 29.4213 92.9105 30.9913 91.9211 32.4185C90.9608 33.8172 89.5057 34.9305 87.5559 35.7583C85.6062 36.5861 83.2344 37 80.4407 37Z" fill="black"/>
<path d="M112.861 37C109.747 37 106.924 36.3435 104.392 35.0304C101.889 33.6888 99.9106 31.8476 98.4556 29.5069C97.0296 27.1377 96.3166 24.4687 96.3166 21.5C96.3166 18.5313 97.0296 15.8766 98.4556 13.5359C99.9106 11.1667 101.889 9.32551 104.392 8.01243C106.924 6.67081 109.761 6 112.904 6C115.552 6 117.939 6.45672 120.063 7.37017C122.217 8.28361 124.021 9.59669 125.476 11.3094L120.936 15.4199C118.87 13.0792 116.309 11.9088 113.253 11.9088C111.362 11.9088 109.674 12.3227 108.19 13.1506C106.706 13.9498 105.542 15.0773 104.698 16.5331C103.883 17.9889 103.475 19.6446 103.475 21.5C103.475 23.3554 103.883 25.011 104.698 26.4668C105.542 27.9226 106.706 29.0645 108.19 29.8923C109.674 30.6915 111.362 31.0912 113.253 31.0912C116.309 31.0912 118.87 29.9065 120.936 27.5373L125.476 31.6478C124.021 33.389 122.217 34.7164 120.063 35.6298C117.91 36.5433 115.509 37 112.861 37Z" fill="black"/>
<path d="M140.035 37C137.62 37 135.277 36.686 133.008 36.058C130.767 35.4015 128.962 34.5594 127.595 33.5318L129.996 28.308C131.305 29.25 132.862 30.0064 134.666 30.5773C136.471 31.1482 138.275 31.4337 140.079 31.4337C142.087 31.4337 143.571 31.1482 144.532 30.5773C145.492 29.9779 145.972 29.1929 145.972 28.2224C145.972 27.5087 145.681 26.9236 145.099 26.4668C144.546 25.9816 143.819 25.5962 142.916 25.3108C142.043 25.0253 140.85 24.7113 139.337 24.3688C137.009 23.8264 135.103 23.2841 133.619 22.7417C132.135 22.1994 130.854 21.3287 129.777 20.1298C128.73 18.9309 128.206 17.3324 128.206 15.3343C128.206 13.593 128.686 12.023 129.646 10.6243C130.607 9.19705 132.047 8.06952 133.968 7.24171C135.918 6.4139 138.289 6 141.083 6C143.033 6 144.939 6.22836 146.801 6.68508C148.664 7.1418 150.294 7.79834 151.69 8.65469L149.508 13.9213C146.685 12.3513 143.862 11.5663 141.039 11.5663C139.061 11.5663 137.591 11.8803 136.631 12.5083C135.699 13.1363 135.234 13.9641 135.234 14.9917C135.234 16.0193 135.772 16.7901 136.849 17.3039C137.955 17.7891 139.628 18.2744 141.869 18.7597C144.197 19.302 146.103 19.8444 147.587 20.3867C149.071 20.9291 150.337 21.7854 151.385 22.9558C152.462 24.1261 153 25.7104 153 27.7086C153 29.4213 152.505 30.9913 151.516 32.4185C150.556 33.8172 149.1 34.9305 147.151 35.7583C145.201 36.5861 142.829 37 140.035 37Z" fill="black"/>
</svg>
