<svg width="153" height="46" viewBox="0 0 153 46" fill="none" xmlns="http://www.w3.org/2000/svg">
<path fill-rule="evenodd" clip-rule="evenodd" d="M42.815 19.6905L42.8181 19.6936C44.3946 21.3193 44.394 23.9619 42.8161 25.5865C42.0503 26.3742 41.033 26.8077 39.9513 26.8077H39.2879V40.3998C39.2879 43.0894 37.1611 45.2778 34.5464 45.2778H27.1479C26.553 45.2778 26.139 44.8153 26.139 44.2635C26.139 43.3367 27.8583 40.7185 29.4202 38.3402C30.1147 37.2827 30.778 36.2727 31.2452 35.4798C32.7633 32.9035 32.8619 30.672 32.8619 29.536C32.8619 23.4097 27.9883 18.4397 21.9968 18.4397C16.0053 18.4397 11.1356 23.4706 11.1356 29.536C11.1356 32.3361 11.9637 34.1003 12.6931 35.3986C12.8911 35.7509 13.362 36.4528 13.9431 37.3189C15.5034 39.6446 17.8585 43.1549 17.8585 44.2635C17.8585 44.9532 17.2671 45.2778 16.8763 45.2778H9.45413C6.83949 45.2778 4.71265 43.0894 4.71265 40.3998V26.8077H3.99722C3.95525 26.8077 3.91362 26.8056 3.87233 26.8015C2.85541 26.7566 1.90429 26.3272 1.18416 25.5859C-0.392085 23.964 -0.39477 21.3259 1.17643 19.6999C1.18248 19.6936 1.18852 19.6871 1.19456 19.6809L19.1355 1.22114C19.901 0.43353 20.9182 0 22.0003 0C23.0823 0 24.0996 0.433875 24.8647 1.22148L42.815 19.6905Z" fill="#467CE8"/>
<path d="M16.8763 45.2778H27.1479C26.553 45.2778 26.139 44.8153 26.139 44.2635C26.139 43.3367 27.8583 40.7185 29.4202 38.3402C30.1147 37.2827 30.778 36.2727 31.2452 35.4798C32.7633 32.9035 32.8619 30.672 32.8619 29.536C32.8619 23.4097 27.9883 18.4397 21.9968 18.4397C16.0053 18.4397 11.1356 23.4706 11.1356 29.536C11.1356 32.3361 11.9637 34.1003 12.6931 35.3986C12.8911 35.7509 13.362 36.4528 13.9431 37.3189C15.5034 39.6446 17.8585 43.1549 17.8585 44.2635C17.8585 44.9532 17.2671 45.2778 16.8763 45.2778Z" fill="#467CE8"/>
<path d="M23.5884 17.9736C23.5884 17.9736 21.171 18.3072 20.4282 19.6493C19.8091 20.7679 20.2082 21.6864 21.0465 22.2525C20.9892 22.3429 20.9317 22.4375 20.8737 22.5422L21.1528 22.7103C21.3382 22.3754 21.5243 22.1251 21.7042 21.8832C22.0567 21.4091 22.4209 20.9164 22.7614 19.8144C22.7825 20.7404 22.022 21.8846 21.7329 22.5898C22.492 22.8266 23.2562 22.6078 23.7773 21.6664C24.5201 20.3243 23.5884 17.9736 23.5884 17.9736Z" fill="white"/>
<path d="M20.4058 40.6125C20.4058 40.6125 22.8231 40.2789 23.5659 38.9368C24.185 37.8183 23.786 36.8998 22.9476 36.3336C23.0049 36.2433 23.0624 36.1486 23.1204 36.0439L22.8413 35.8758C22.6559 36.2108 22.4698 36.4611 22.2899 36.703C21.9374 37.1771 21.5732 37.6697 21.2327 38.7717C21.2116 37.8457 21.9721 36.7015 22.2613 35.9963C21.5021 35.7596 20.7379 35.9783 20.2168 36.9198C19.474 38.2619 20.4058 40.6125 20.4058 40.6125Z" fill="white"/>
<path d="M28.8733 20.1841C28.8733 20.1841 26.6199 19.2121 25.3333 19.987C24.2611 20.6328 24.1664 21.6364 24.6211 22.564C24.5281 22.6123 24.4329 22.6643 24.3326 22.7247L24.4937 23.0159C24.8148 22.8225 25.0959 22.7028 25.3676 22.5871C25.9001 22.3604 26.4517 22.1237 27.2748 21.3469C26.8492 22.1599 25.6422 22.7542 25.0538 23.214C25.5977 23.815 26.3644 24.0242 27.2669 23.4806C28.5535 22.7058 28.8733 20.1841 28.8733 20.1841Z" fill="white"/>
<path d="M15.1208 38.4021C15.1208 38.4021 17.3742 39.374 18.6608 38.5992C19.7331 37.9534 19.8278 36.9498 19.3731 36.0222C19.466 35.9738 19.5612 35.9219 19.6616 35.8614L19.5004 35.5703C19.1794 35.7637 18.8982 35.8833 18.6265 35.999C18.094 36.2258 17.5424 36.4624 16.7193 37.2392C17.1449 36.4263 18.3519 35.832 18.9404 35.3721C18.3964 34.7711 17.6297 34.562 16.7272 35.1055C15.4406 35.8804 15.1208 38.4021 15.1208 38.4021Z" fill="white"/>
<path d="M32.3537 25.0811C32.3537 25.0811 30.8681 23.064 29.3825 23.064C28.1443 23.064 27.5813 23.8838 27.5304 24.9243C27.4268 24.9177 27.3195 24.913 27.2036 24.913V25.2492C27.5743 25.2492 27.8751 25.2922 28.1659 25.3337C28.7357 25.4151 29.3269 25.4978 30.412 25.2544C29.6538 25.7365 28.3236 25.6216 27.5936 25.7129C27.7766 26.5171 28.3403 27.0981 29.3825 27.0981C30.8681 27.0981 32.3537 25.0811 32.3537 25.0811Z" fill="white"/>
<path d="M11.6404 33.5051C11.6404 33.5051 13.126 35.5221 14.6117 35.5221C15.8498 35.5221 16.4128 34.7024 16.4637 33.6619C16.5673 33.6685 16.6747 33.6732 16.7906 33.6732L16.7906 33.337C16.4198 33.337 16.119 33.294 15.8282 33.2525C15.2584 33.1711 14.6673 33.0883 13.5821 33.3317C14.3404 32.8497 15.6705 32.9646 16.4005 32.8733C16.2175 32.069 15.6538 31.488 14.6117 31.488C13.126 31.488 11.6404 33.5051 11.6404 33.5051Z" fill="white"/>
<path d="M32.9971 30.9576C32.9971 30.9576 32.6773 28.4359 31.3907 27.661C30.3184 27.0153 29.4379 27.4315 28.8952 28.3061C28.8086 28.2463 28.7179 28.1863 28.6175 28.1258L28.4563 28.4169C28.7774 28.6103 29.0173 28.8045 29.2492 28.9921C29.7037 29.3598 30.176 29.7398 31.2324 30.095C30.3447 30.1169 29.2479 29.3237 28.5719 29.022C28.3449 29.8139 28.5546 30.6111 29.4571 31.1547C30.7437 31.9295 32.9971 30.9576 32.9971 30.9576Z" fill="white"/>
<path d="M10.9971 27.6286C10.9971 27.6286 11.3168 30.1503 12.6034 30.9251C13.6757 31.5709 14.5562 31.1546 15.099 30.2801C15.1856 30.3399 15.2763 30.3999 15.3767 30.4604L15.5378 30.1692C15.2167 29.9758 14.9768 29.7817 14.7449 29.5941C14.2904 29.2264 13.8181 28.8464 12.7617 28.4912C13.6494 28.4692 14.7463 29.2625 15.4223 29.5642C15.6493 28.7723 15.4396 27.9751 14.537 27.4315C13.2504 26.6566 10.9971 27.6286 10.9971 27.6286Z" fill="white"/>
<path d="M30.6561 36.2775C30.6561 36.2775 31.5879 33.9269 30.8451 32.5848C30.226 31.4662 29.2639 31.3675 28.3747 31.8418C28.3284 31.7448 28.2786 31.6455 28.2206 31.5408L27.9415 31.7089C28.1269 32.0438 28.2416 32.3371 28.3525 32.6206C28.5699 33.176 28.7968 33.7514 29.5414 34.6101C28.7621 34.1661 28.1924 32.907 27.7516 32.2931C27.1754 32.8606 26.9749 33.6603 27.496 34.6018C28.2388 35.9439 30.6561 36.2775 30.6561 36.2775Z" fill="white"/>
<path d="M13.338 22.3087C13.338 22.3087 12.4062 24.6593 13.1491 26.0014C13.7681 27.1199 14.7302 27.2187 15.6194 26.7444C15.6658 26.8413 15.7156 26.9406 15.7735 27.0454L16.0526 26.8773C15.8672 26.5423 15.7525 26.249 15.6416 25.9656C15.4243 25.4101 15.1974 24.8347 14.4527 23.9761C15.232 24.4201 15.8017 25.6792 16.2426 26.293C16.8187 25.7256 17.0192 24.9258 16.4981 23.9844C15.7553 22.6422 13.338 22.3087 13.338 22.3087Z" fill="white"/>
<path d="M25.9241 39.7856C25.9241 39.7856 27.8577 38.2359 27.8577 36.6862C27.8577 35.3946 27.0719 34.8073 26.0744 34.7542C26.0808 34.6461 26.0852 34.5341 26.0852 34.4132H25.763C25.763 34.8 25.7217 35.1138 25.6819 35.4171C25.6039 36.0115 25.5246 36.6282 25.7579 37.7602C25.2958 36.9692 25.406 35.5816 25.3184 34.8201C24.5475 35.011 23.9905 35.599 23.9905 36.6862C23.9905 38.2359 25.9241 39.7856 25.9241 39.7856Z" fill="white"/>
<path d="M18.07 18.8005C18.07 18.8005 16.1364 20.3503 16.1364 21.9C16.1364 23.1916 16.9223 23.7789 17.9197 23.8319C17.9134 23.9401 17.9089 24.052 17.9089 24.1729H18.2312C18.2312 23.7862 18.2724 23.4724 18.3122 23.1691C18.3902 22.5746 18.4695 21.958 18.2362 20.826C18.6983 21.617 18.5882 23.0045 18.6757 23.7661C19.4467 23.5752 20.0036 22.9871 20.0036 21.9C20.0036 20.3502 18.07 18.8005 18.07 18.8005Z" fill="white"/>
<path d="M59.662 44.2046C59.2448 44.2046 58.8408 44.1394 58.45 44.009C58.0645 43.8731 57.7609 43.6992 57.5391 43.4873L57.8322 42.8515C58.0434 43.0471 58.3127 43.2074 58.6401 43.3324C58.9728 43.452 59.3135 43.5118 59.662 43.5118C60.1215 43.5118 60.4647 43.433 60.6918 43.2754C60.9189 43.1123 61.0324 42.8977 61.0324 42.6314C61.0324 42.4358 60.969 42.2782 60.8423 42.1586C60.7208 42.0336 60.5677 41.9385 60.3829 41.8733C60.2033 41.8081 59.9472 41.7347 59.6145 41.6532C59.1973 41.55 58.8593 41.4467 58.6005 41.3435C58.347 41.2402 58.1279 41.0826 57.9431 40.8707C57.7635 40.6533 57.6737 40.3626 57.6737 39.9985C57.6737 39.6941 57.7503 39.4197 57.9034 39.1752C58.0619 38.9306 58.2995 38.735 58.6164 38.5883C58.9332 38.4415 59.3267 38.3682 59.7967 38.3682C60.1241 38.3682 60.4462 38.4116 60.7631 38.4986C61.0799 38.5855 61.3519 38.7105 61.579 38.8736L61.3176 39.5257C61.0852 39.3735 60.837 39.2594 60.573 39.1833C60.3089 39.1018 60.0502 39.061 59.7967 39.061C59.3478 39.061 59.0098 39.1453 58.7827 39.3137C58.5609 39.4822 58.45 39.6996 58.45 39.9659C58.45 40.1615 58.5134 40.3218 58.6401 40.4468C58.7669 40.5664 58.9227 40.6615 59.1075 40.7321C59.2976 40.7973 59.5537 40.868 59.8759 40.944C60.2931 41.0473 60.6284 41.1505 60.8819 41.2538C61.1354 41.357 61.3519 41.5146 61.5315 41.7266C61.7163 41.9385 61.8087 42.2238 61.8087 42.5825C61.8087 42.8814 61.7295 43.1558 61.5711 43.4058C61.4126 43.6503 61.1724 43.846 60.8502 43.9927C60.5281 44.134 60.132 44.2046 59.662 44.2046Z" fill="#C2C7CF"/>
<path d="M68.1862 39.7784C68.7143 39.7784 69.1315 39.936 69.4378 40.2512C69.7494 40.5664 69.9052 41.0337 69.9052 41.6532V44.1394H69.1447V41.7429C69.1447 41.3244 69.0497 41.0093 68.8595 40.7973C68.6747 40.5854 68.408 40.4794 68.0595 40.4794C67.674 40.4794 67.3677 40.6044 67.1406 40.8544C66.9135 41.0989 66.8 41.4521 66.8 41.9141V44.1394H66.0395V41.7429C66.0395 41.3244 65.9445 41.0093 65.7543 40.7973C65.5695 40.5854 65.3028 40.4794 64.9543 40.4794C64.5688 40.4794 64.2625 40.6044 64.0354 40.8544C63.8083 41.0989 63.6948 41.4521 63.6948 41.9141V44.1394H62.9343V39.8191H63.6631V40.4631C63.8162 40.2403 64.0169 40.0718 64.2651 39.9577C64.5133 39.8382 64.7958 39.7784 65.1127 39.7784C65.4401 39.7784 65.7306 39.8463 65.9841 39.9822C66.2375 40.118 66.4329 40.3164 66.5702 40.5772C66.7287 40.3272 66.9478 40.1316 67.2277 39.9903C67.5129 39.849 67.8324 39.7784 68.1862 39.7784Z" fill="#C2C7CF"/>
<path d="M72.9125 39.7784C73.4934 39.7784 73.937 39.9251 74.2433 40.2186C74.5549 40.512 74.7106 40.9495 74.7106 41.5309V44.1394H73.9898V43.5688C73.863 43.7699 73.6809 43.9248 73.4432 44.0334C73.2108 44.1367 72.9336 44.1883 72.6115 44.1883C72.1415 44.1883 71.7639 44.0715 71.4787 43.8378C71.1988 43.6041 71.0589 43.2971 71.0589 42.9167C71.0589 42.5363 71.1935 42.232 71.4629 42.0037C71.7322 41.7701 72.1599 41.6532 72.7461 41.6532H73.9502V41.4983C73.9502 41.1614 73.8551 40.9033 73.665 40.7239C73.4749 40.5446 73.195 40.455 72.8253 40.455C72.5771 40.455 72.3342 40.4984 72.0966 40.5854C71.8589 40.6669 71.6582 40.7783 71.4945 40.9196L71.1777 40.3327C71.3942 40.1533 71.653 40.0175 71.954 39.9251C72.255 39.8273 72.5745 39.7784 72.9125 39.7784ZM72.7382 43.5851C73.0287 43.5851 73.2795 43.5199 73.4907 43.3895C73.702 43.2536 73.8551 43.0634 73.9502 42.8189V42.2157H72.7778C72.1335 42.2157 71.8114 42.4385 71.8114 42.8841C71.8114 43.1015 71.8932 43.2726 72.057 43.3976C72.2207 43.5226 72.4478 43.5851 72.7382 43.5851Z" fill="#C2C7CF"/>
<path d="M76.9259 40.5446C77.0579 40.2946 77.2533 40.1044 77.5121 39.974C77.7709 39.8436 78.0851 39.7784 78.4548 39.7784V40.5365C78.4125 40.531 78.3544 40.5283 78.2805 40.5283C77.8686 40.5283 77.5438 40.656 77.3061 40.9114C77.0738 41.1614 76.9576 41.5201 76.9576 41.9874V44.1394H76.1971V39.8191H76.9259V40.5446Z" fill="#C2C7CF"/>
<path d="M82.002 43.8867C81.8911 43.9845 81.7538 44.0606 81.5901 44.115C81.4264 44.1639 81.2574 44.1883 81.0831 44.1883C80.6607 44.1883 80.3332 44.0715 80.1009 43.8378C79.8685 43.6041 79.7523 43.2699 79.7523 42.8352V40.4631H79.0394V39.8191H79.7523V38.8736H80.5128V39.8191H81.7168V40.4631H80.5128V42.8026C80.5128 43.0363 80.5682 43.2156 80.6791 43.3406C80.7953 43.4656 80.959 43.5281 81.1703 43.5281C81.4026 43.5281 81.6007 43.4601 81.7644 43.3243L82.002 43.8867Z" fill="#C2C7CF"/>
<path d="M87.7975 44.2046C87.243 44.2046 86.7413 44.0796 86.2924 43.8297C85.8488 43.5742 85.5003 43.2265 85.2468 42.7863C84.9933 42.3407 84.8665 41.8407 84.8665 41.2864C84.8665 40.7321 84.9933 40.2349 85.2468 39.7947C85.5003 39.3491 85.8514 39.0013 86.3003 38.7513C86.7492 38.4959 87.2509 38.3682 87.8054 38.3682C88.2384 38.3682 88.6345 38.4443 88.9936 38.5964C89.3527 38.7431 89.659 38.9632 89.9125 39.2567L89.3976 39.7702C88.9804 39.3192 88.4602 39.0937 87.8371 39.0937C87.4252 39.0937 87.0529 39.1888 86.7202 39.379C86.3875 39.5692 86.1261 39.8327 85.9359 40.1696C85.7511 40.5011 85.6587 40.8734 85.6587 41.2864C85.6587 41.6994 85.7511 42.0744 85.9359 42.4113C86.1261 42.7428 86.3875 43.0036 86.7202 43.1938C87.0529 43.384 87.4252 43.4791 87.8371 43.4791C88.455 43.4791 88.9751 43.2509 89.3976 42.7944L89.9125 43.308C89.659 43.6014 89.3501 43.8242 88.9857 43.9764C88.6266 44.1286 88.2305 44.2046 87.7975 44.2046Z" fill="#C2C7CF"/>
<path d="M91.0109 38.091H91.7713V44.1394H91.0109V38.091Z" fill="#C2C7CF"/>
<path d="M93.3025 39.8191H94.063V44.1394H93.3025V39.8191ZM93.6827 38.9877C93.5349 38.9877 93.4108 38.9388 93.3104 38.841C93.2154 38.7431 93.1678 38.6236 93.1678 38.4823C93.1678 38.341 93.2154 38.2214 93.3104 38.1236C93.4108 38.0204 93.5349 37.9688 93.6827 37.9688C93.8306 37.9688 93.9521 38.0177 94.0471 38.1155C94.1475 38.2079 94.1976 38.3247 94.1976 38.466C94.1976 38.6127 94.1475 38.7377 94.0471 38.841C93.9521 38.9388 93.8306 38.9877 93.6827 38.9877Z" fill="#C2C7CF"/>
<path d="M100.846 39.7784C101.374 39.7784 101.791 39.936 102.098 40.2512C102.409 40.5664 102.565 41.0337 102.565 41.6532V44.1394H101.805V41.7429C101.805 41.3244 101.71 41.0093 101.519 40.7973C101.335 40.5854 101.068 40.4794 100.719 40.4794C100.334 40.4794 100.028 40.6044 99.8004 40.8544C99.5734 41.0989 99.4598 41.4521 99.4598 41.9141V44.1394H98.6994V41.7429C98.6994 41.3244 98.6043 41.0093 98.4142 40.7973C98.2294 40.5854 97.9627 40.4794 97.6141 40.4794C97.2286 40.4794 96.9223 40.6044 96.6952 40.8544C96.4682 41.0989 96.3546 41.4521 96.3546 41.9141V44.1394H95.5942V39.8191H96.3229V40.4631C96.4761 40.2403 96.6768 40.0718 96.925 39.9577C97.1732 39.8382 97.4557 39.7784 97.7726 39.7784C98.1 39.7784 98.3904 39.8463 98.6439 39.9822C98.8974 40.118 99.0928 40.3164 99.2301 40.5772C99.3885 40.3272 99.6077 40.1316 99.8876 39.9903C100.173 39.849 100.492 39.7784 100.846 39.7784Z" fill="#C2C7CF"/>
<path d="M105.572 39.7784C106.153 39.7784 106.597 39.9251 106.903 40.2186C107.215 40.512 107.37 40.9495 107.37 41.5309V44.1394H106.65V43.5688C106.523 43.7699 106.341 43.9248 106.103 44.0334C105.871 44.1367 105.593 44.1883 105.271 44.1883C104.801 44.1883 104.424 44.0715 104.139 43.8378C103.859 43.6041 103.719 43.2971 103.719 42.9167C103.719 42.5363 103.853 42.232 104.123 42.0037C104.392 41.7701 104.82 41.6532 105.406 41.6532H106.61V41.4983C106.61 41.1614 106.515 40.9033 106.325 40.7239C106.135 40.5446 105.855 40.455 105.485 40.455C105.237 40.455 104.994 40.4984 104.756 40.5854C104.519 40.6669 104.318 40.7783 104.154 40.9196L103.838 40.3327C104.054 40.1533 104.313 40.0175 104.614 39.9251C104.915 39.8273 105.234 39.7784 105.572 39.7784ZM105.398 43.5851C105.689 43.5851 105.939 43.5199 106.151 43.3895C106.362 43.2536 106.515 43.0634 106.61 42.8189V42.2157H105.438C104.793 42.2157 104.471 42.4385 104.471 42.8841C104.471 43.1015 104.553 43.2726 104.717 43.3976C104.881 43.5226 105.108 43.5851 105.398 43.5851Z" fill="#C2C7CF"/>
<path d="M111.218 43.8867C111.107 43.9845 110.969 44.0606 110.806 44.115C110.642 44.1639 110.473 44.1883 110.299 44.1883C109.876 44.1883 109.549 44.0715 109.316 43.8378C109.084 43.6041 108.968 43.2699 108.968 42.8352V40.4631H108.255V39.8191H108.968V38.8736H109.728V39.8191H110.932V40.4631H109.728V42.8026C109.728 43.0363 109.784 43.2156 109.895 43.3406C110.011 43.4656 110.175 43.5281 110.386 43.5281C110.618 43.5281 110.816 43.4601 110.98 43.3243L111.218 43.8867Z" fill="#C2C7CF"/>
<path d="M115.871 42.0037C115.871 42.0635 115.866 42.1423 115.855 42.2401H112.449C112.497 42.6205 112.658 42.9276 112.932 43.1612C113.212 43.3895 113.558 43.5036 113.97 43.5036C114.472 43.5036 114.876 43.3297 115.182 42.9819L115.602 43.4873C115.412 43.7155 115.174 43.8894 114.889 44.009C114.609 44.1286 114.295 44.1883 113.946 44.1883C113.503 44.1883 113.109 44.0959 112.766 43.9112C112.423 43.721 112.156 43.4574 111.966 43.1205C111.781 42.7836 111.689 42.4032 111.689 41.9793C111.689 41.5608 111.779 41.1831 111.958 40.8462C112.143 40.5093 112.394 40.2484 112.711 40.0637C113.033 39.8735 113.395 39.7784 113.796 39.7784C114.197 39.7784 114.554 39.8735 114.865 40.0637C115.182 40.2484 115.428 40.5093 115.602 40.8462C115.782 41.1831 115.871 41.569 115.871 42.0037ZM113.796 40.4386C113.432 40.4386 113.125 40.5528 112.877 40.781C112.634 41.0093 112.491 41.3081 112.449 41.6777H115.143C115.1 41.3136 114.955 41.0174 114.707 40.7892C114.464 40.5555 114.16 40.4386 113.796 40.4386Z" fill="#C2C7CF"/>
<path d="M120.94 44.2046C120.523 44.2046 120.119 44.1394 119.728 44.009C119.342 43.8731 119.039 43.6992 118.817 43.4873L119.11 42.8515C119.321 43.0471 119.591 43.2074 119.918 43.3324C120.251 43.452 120.591 43.5118 120.94 43.5118C121.399 43.5118 121.743 43.433 121.97 43.2754C122.197 43.1123 122.31 42.8977 122.31 42.6314C122.31 42.4358 122.247 42.2782 122.12 42.1586C121.999 42.0336 121.846 41.9385 121.661 41.8733C121.481 41.8081 121.225 41.7347 120.892 41.6532C120.475 41.55 120.137 41.4467 119.878 41.3435C119.625 41.2402 119.406 41.0826 119.221 40.8707C119.041 40.6533 118.952 40.3626 118.952 39.9985C118.952 39.6941 119.028 39.4197 119.181 39.1752C119.34 38.9306 119.577 38.735 119.894 38.5883C120.211 38.4415 120.605 38.3682 121.075 38.3682C121.402 38.3682 121.724 38.4116 122.041 38.4986C122.358 38.5855 122.63 38.7105 122.857 38.8736L122.595 39.5257C122.363 39.3735 122.115 39.2594 121.851 39.1833C121.587 39.1018 121.328 39.061 121.075 39.061C120.626 39.061 120.288 39.1453 120.061 39.3137C119.839 39.4822 119.728 39.6996 119.728 39.9659C119.728 40.1615 119.791 40.3218 119.918 40.4468C120.045 40.5664 120.201 40.6615 120.385 40.7321C120.576 40.7973 120.832 40.868 121.154 40.944C121.571 41.0473 121.906 41.1505 122.16 41.2538C122.413 41.357 122.63 41.5146 122.809 41.7266C122.994 41.9385 123.087 42.2238 123.087 42.5825C123.087 42.8814 123.007 43.1558 122.849 43.4058C122.691 43.6503 122.45 43.846 122.128 43.9927C121.806 44.134 121.41 44.2046 120.94 44.2046Z" fill="#C2C7CF"/>
<path d="M127.85 39.8191L125.814 44.5714C125.635 45.0116 125.423 45.3214 125.18 45.5007C124.943 45.68 124.655 45.7697 124.317 45.7697C124.111 45.7697 123.91 45.7344 123.715 45.6637C123.525 45.5985 123.366 45.5007 123.24 45.3703L123.565 44.7834C123.781 44.9953 124.032 45.1013 124.317 45.1013C124.502 45.1013 124.655 45.0497 124.776 44.9464C124.903 44.8486 125.017 44.6774 125.117 44.4329L125.252 44.1313L123.398 39.8191H124.19L125.656 43.2754L127.105 39.8191H127.85Z" fill="#C2C7CF"/>
<path d="M129.789 44.1883C129.446 44.1883 129.116 44.1421 128.799 44.0498C128.482 43.9519 128.234 43.8297 128.054 43.6829L128.371 43.0634C128.556 43.1993 128.78 43.308 129.044 43.3895C129.308 43.471 129.575 43.5118 129.844 43.5118C130.51 43.5118 130.842 43.3161 130.842 42.9248C130.842 42.7944 130.798 42.6912 130.708 42.6151C130.618 42.539 130.504 42.4847 130.367 42.4521C130.235 42.414 130.045 42.3733 129.797 42.3298C129.459 42.2754 129.182 42.213 128.965 42.1423C128.754 42.0717 128.572 41.9521 128.418 41.7836C128.265 41.6152 128.189 41.3788 128.189 41.0745C128.189 40.6832 128.347 40.3707 128.664 40.137C128.981 39.8979 129.406 39.7784 129.939 39.7784C130.219 39.7784 130.499 39.8137 130.779 39.8843C131.059 39.955 131.289 40.0501 131.468 40.1696L131.143 40.7892C130.8 40.5609 130.396 40.4468 129.931 40.4468C129.609 40.4468 129.364 40.5011 129.195 40.6098C129.026 40.7185 128.941 40.8625 128.941 41.0419C128.941 41.1831 128.989 41.2946 129.084 41.3761C129.179 41.4576 129.295 41.5174 129.432 41.5554C129.575 41.5934 129.773 41.6369 130.026 41.6858C130.364 41.7456 130.636 41.8108 130.842 41.8815C131.054 41.9467 131.233 42.0608 131.381 42.2238C131.529 42.3869 131.603 42.6151 131.603 42.9085C131.603 43.2998 131.439 43.6123 131.112 43.846C130.79 44.0742 130.349 44.1883 129.789 44.1883Z" fill="#C2C7CF"/>
<path d="M134.993 43.8867C134.882 43.9845 134.745 44.0606 134.581 44.115C134.417 44.1639 134.248 44.1883 134.074 44.1883C133.652 44.1883 133.324 44.0715 133.092 43.8378C132.86 43.6041 132.743 43.2699 132.743 42.8352V40.4631H132.03V39.8191H132.743V38.8736H133.504V39.8191H134.708V40.4631H133.504V42.8026C133.504 43.0363 133.559 43.2156 133.67 43.3406C133.786 43.4656 133.95 43.5281 134.161 43.5281C134.394 43.5281 134.592 43.4601 134.755 43.3243L134.993 43.8867Z" fill="#C2C7CF"/>
<path d="M139.647 42.0037C139.647 42.0635 139.641 42.1423 139.631 42.2401H136.225C136.272 42.6205 136.433 42.9276 136.708 43.1612C136.988 43.3895 137.334 43.5036 137.746 43.5036C138.247 43.5036 138.651 43.3297 138.958 42.9819L139.377 43.4873C139.187 43.7155 138.95 43.8894 138.665 44.009C138.385 44.1286 138.07 44.1883 137.722 44.1883C137.278 44.1883 136.885 44.0959 136.542 43.9112C136.198 43.721 135.932 43.4574 135.742 43.1205C135.557 42.7836 135.464 42.4032 135.464 41.9793C135.464 41.5608 135.554 41.1831 135.734 40.8462C135.918 40.5093 136.169 40.2484 136.486 40.0637C136.808 39.8735 137.17 39.7784 137.571 39.7784C137.973 39.7784 138.329 39.8735 138.641 40.0637C138.958 40.2484 139.203 40.5093 139.377 40.8462C139.557 41.1831 139.647 41.569 139.647 42.0037ZM137.571 40.4386C137.207 40.4386 136.901 40.5528 136.652 40.781C136.41 41.0093 136.267 41.3081 136.225 41.6777H138.918C138.876 41.3136 138.731 41.0174 138.482 40.7892C138.239 40.5555 137.936 40.4386 137.571 40.4386Z" fill="#C2C7CF"/>
<path d="M146.034 39.7784C146.562 39.7784 146.979 39.936 147.285 40.2512C147.597 40.5664 147.753 41.0337 147.753 41.6532V44.1394H146.992V41.7429C146.992 41.3244 146.897 41.0093 146.707 40.7973C146.522 40.5854 146.256 40.4794 145.907 40.4794C145.522 40.4794 145.215 40.6044 144.988 40.8544C144.761 41.0989 144.648 41.4521 144.648 41.9141V44.1394H143.887V41.7429C143.887 41.3244 143.792 41.0093 143.602 40.7973C143.417 40.5854 143.15 40.4794 142.802 40.4794C142.416 40.4794 142.11 40.6044 141.883 40.8544C141.656 41.0989 141.542 41.4521 141.542 41.9141V44.1394H140.782V39.8191H141.511V40.4631C141.664 40.2403 141.865 40.0718 142.113 39.9577C142.361 39.8382 142.643 39.7784 142.96 39.7784C143.288 39.7784 143.578 39.8463 143.832 39.9822C144.085 40.118 144.281 40.3164 144.418 40.5772C144.576 40.3272 144.795 40.1316 145.075 39.9903C145.361 39.849 145.68 39.7784 146.034 39.7784Z" fill="#C2C7CF"/>
<path d="M150.435 44.1883C150.092 44.1883 149.762 44.1421 149.445 44.0498C149.128 43.9519 148.88 43.8297 148.701 43.6829L149.017 43.0634C149.202 43.1993 149.427 43.308 149.691 43.3895C149.955 43.471 150.221 43.5118 150.491 43.5118C151.156 43.5118 151.489 43.3161 151.489 42.9248C151.489 42.7944 151.444 42.6912 151.354 42.6151C151.264 42.539 151.151 42.4847 151.014 42.4521C150.882 42.414 150.691 42.3733 150.443 42.3298C150.105 42.2754 149.828 42.213 149.612 42.1423C149.4 42.0717 149.218 41.9521 149.065 41.7836C148.912 41.6152 148.835 41.3788 148.835 41.0745C148.835 40.6832 148.994 40.3707 149.31 40.137C149.627 39.8979 150.052 39.7784 150.586 39.7784C150.866 39.7784 151.146 39.8137 151.426 39.8843C151.705 39.955 151.935 40.0501 152.115 40.1696L151.79 40.7892C151.447 40.5609 151.043 40.4468 150.578 40.4468C150.256 40.4468 150.01 40.5011 149.841 40.6098C149.672 40.7185 149.588 40.8625 149.588 41.0419C149.588 41.1831 149.635 41.2946 149.73 41.3761C149.825 41.4576 149.942 41.5174 150.079 41.5554C150.221 41.5934 150.419 41.6369 150.673 41.6858C151.011 41.7456 151.283 41.8108 151.489 41.8815C151.7 41.9467 151.88 42.0608 152.028 42.2238C152.175 42.3869 152.249 42.6151 152.249 42.9085C152.249 43.2998 152.086 43.6123 151.758 43.846C151.436 44.0742 150.995 44.1883 150.435 44.1883Z" fill="#C2C7CF"/>
<path d="M68.0658 31.2188C66.022 31.2188 64.0398 30.9538 62.1191 30.4239C60.2231 29.87 58.6964 29.1595 57.5391 28.2924L59.5705 23.8849C60.6786 24.6797 61.996 25.3179 63.5227 25.7996C65.0494 26.2813 66.5761 26.5222 68.1028 26.5222C69.8018 26.5222 71.0576 26.2813 71.8702 25.7996C72.6828 25.2939 73.0891 24.6315 73.0891 23.8126C73.0891 23.2105 72.8429 22.7168 72.3504 22.3314C71.8825 21.922 71.2669 21.5968 70.5036 21.356C69.7649 21.1151 68.7553 20.8502 67.4748 20.5612C65.5049 20.1035 63.8921 19.6459 62.6362 19.1883C61.3804 18.7307 60.297 17.9961 59.3859 16.9845C58.4994 15.973 58.0562 14.6242 58.0562 12.9383C58.0562 11.4691 58.4625 10.1444 59.2751 8.96426C60.0876 7.76001 61.3065 6.80866 62.9317 6.11019C64.5815 5.41173 66.5884 5.0625 68.9523 5.0625C70.6021 5.0625 72.215 5.25518 73.7909 5.64054C75.3668 6.0259 76.7458 6.57985 77.9277 7.3024L76.0809 11.7461C73.6924 10.4214 71.3039 9.75906 68.9154 9.75906C67.2409 9.75906 65.9974 10.024 65.1848 10.5539C64.3968 11.0837 64.0029 11.7822 64.0029 12.6493C64.0029 13.5163 64.4584 14.1666 65.3695 14.6001C66.3052 15.0096 67.7211 15.419 69.6171 15.8285C71.5871 16.2861 73.1999 16.7437 74.4558 17.2013C75.7116 17.6589 76.7827 18.3815 77.6692 19.369C78.5803 20.3564 79.0358 21.6932 79.0358 23.3791C79.0358 24.8242 78.6172 26.1489 77.78 27.3531C76.9674 28.5333 75.7362 29.4726 74.0864 30.1711C72.4366 30.8695 70.4297 31.2188 68.0658 31.2188Z" fill="white"/>
<path d="M95.498 31.2188C92.8633 31.2188 90.4747 30.6648 88.3324 29.5569C86.2148 28.4249 84.5403 26.8714 83.3091 24.8965C82.1026 22.8974 81.4993 20.6455 81.4993 18.1406C81.4993 15.6358 82.1026 13.3959 83.3091 11.4209C84.5403 9.42187 86.2148 7.8684 88.3324 6.76049C90.4747 5.6285 92.8756 5.0625 95.535 5.0625C97.7757 5.0625 99.7949 5.44786 101.592 6.21858C103.415 6.9893 104.941 8.0972 106.173 9.5423L102.331 13.0105C100.583 11.0356 98.416 10.0481 95.8305 10.0481C94.2299 10.0481 92.8017 10.3973 91.5459 11.0958C90.2901 11.7702 89.3051 12.7215 88.591 13.9498C87.9015 15.1782 87.5568 16.5751 87.5568 18.1406C87.5568 19.7061 87.9015 21.1031 88.591 22.3314C89.3051 23.5597 90.2901 24.5231 91.5459 25.2216C92.8017 25.896 94.2299 26.2332 95.8305 26.2332C98.416 26.2332 100.583 25.2336 102.331 23.2346L106.173 26.7028C104.941 28.172 103.415 29.292 101.592 30.0627C99.7703 30.8334 97.7388 31.2188 95.498 31.2188Z" fill="white"/>
<path d="M118.492 31.2188C116.448 31.2188 114.466 30.9538 112.545 30.4239C110.649 29.87 109.123 29.1595 107.965 28.2924L109.997 23.8849C111.105 24.6797 112.422 25.3179 113.949 25.7996C115.476 26.2813 117.002 26.5222 118.529 26.5222C120.228 26.5222 121.484 26.2813 122.297 25.7996C123.109 25.2939 123.515 24.6315 123.515 23.8126C123.515 23.2105 123.269 22.7168 122.777 22.3314C122.309 21.922 121.693 21.5968 120.93 21.356C120.191 21.1151 119.182 20.8502 117.901 20.5612C115.931 20.1035 114.318 19.6459 113.063 19.1883C111.807 18.7307 110.723 17.9961 109.812 16.9845C108.926 15.973 108.482 14.6242 108.482 12.9383C108.482 11.4691 108.889 10.1444 109.701 8.96426C110.514 7.76001 111.733 6.80866 113.358 6.11019C115.008 5.41173 117.015 5.0625 119.379 5.0625C121.028 5.0625 122.641 5.25518 124.217 5.64054C125.793 6.0259 127.172 6.57985 128.354 7.3024L126.507 11.7461C124.119 10.4214 121.73 9.75906 119.342 9.75906C117.667 9.75906 116.424 10.024 115.611 10.5539C114.823 11.0837 114.429 11.7822 114.429 12.6493C114.429 13.5163 114.885 14.1666 115.796 14.6001C116.732 15.0096 118.147 15.419 120.043 15.8285C122.013 16.2861 123.626 16.7437 124.882 17.2013C126.138 17.6589 127.209 18.3815 128.096 19.369C129.007 20.3564 129.462 21.6932 129.462 23.3791C129.462 24.8242 129.044 26.1489 128.206 27.3531C127.394 28.5333 126.163 29.4726 124.513 30.1711C122.863 30.8695 120.856 31.2188 118.492 31.2188Z" fill="white"/>
</svg>
