<svg width="159" height="53" viewBox="0 0 159 53" fill="none" xmlns="http://www.w3.org/2000/svg">
<path fill-rule="evenodd" clip-rule="evenodd" d="M66.3979 26.4777C65.0907 26.7991 64.1929 27.8256 63.8012 29.4465L63.6631 30.0176H70.7325H77.8018V28.1487V26.2798L72.4155 26.301C69.4531 26.3128 66.7451 26.3921 66.3979 26.4777ZM82.6343 26.5238C82.2467 26.6376 81.7582 26.8861 81.5488 27.0761C81.0752 27.506 80.4297 28.926 80.4239 29.5504L80.4194 30.0176H87.3662H94.3131V28.1487V26.2798L88.8261 26.2985C85.8081 26.3089 83.022 26.4102 82.6343 26.5238ZM98.9443 26.5225C97.7681 26.8652 96.8171 27.9682 96.5177 29.3377L96.3691 30.0176H103.395H110.422V28.1487V26.2798L105.035 26.2985C102.073 26.3089 99.3319 26.4096 98.9443 26.5225ZM63.7068 31.4403C63.7068 31.9444 64.2269 33.0994 64.6906 33.6252C65.6785 34.7451 65.9986 34.7937 72.3839 34.7937H78.2548L78.1286 34.1427C77.9288 33.1125 77.2235 32.1162 76.38 31.6724C75.6589 31.293 75.1743 31.2635 69.6549 31.2635C66.3834 31.2635 63.7068 31.3431 63.7068 31.4403ZM80.4194 33.0286V34.7937H82.8357H85.252V33.0286V31.2635H82.8357H80.4194V33.0286ZM96.534 32.0178C96.7277 32.904 97.2192 33.6489 98.0146 34.2617C98.543 34.6687 98.872 34.6928 104.697 34.7503C110.789 34.8105 110.824 34.8084 110.824 34.3788C110.824 33.6721 110.075 32.3716 109.369 31.852C108.718 31.3732 108.637 31.3667 102.538 31.3069L96.3653 31.2467L96.534 32.0178ZM63.7493 37.8566L63.8075 39.6736L68.8414 39.7361C71.61 39.7704 74.3465 39.7409 74.9224 39.6705C76.2648 39.5065 77.1818 38.87 77.7514 37.7071C78.631 35.9117 79.1525 36.0396 70.9478 36.0396H63.6911L63.7493 37.8566ZM80.4194 36.3893C80.4194 37.1448 81.2941 38.5731 82.0899 39.1163L82.906 39.6736L88.6094 39.7401L94.3131 39.8063V37.9231V36.0396H87.3662C80.9876 36.0396 80.4194 36.0683 80.4194 36.3893ZM96.3691 37.8566L96.4273 39.6736L101.461 39.7361C107.255 39.808 108.338 39.7172 109.251 39.0828C109.993 38.5672 110.816 37.2164 110.821 36.5069L110.824 36.0396H103.568H96.3109L96.3691 37.8566Z" fill="#1A1A18"/>
<path d="M66.1186 50.1275C65.7001 50.1275 65.2948 50.0619 64.9028 49.9307C64.516 49.794 64.2114 49.6191 63.9889 49.4059L64.2829 48.7662C64.4948 48.963 64.765 49.1243 65.0935 49.25C65.4272 49.3703 65.7689 49.4305 66.1186 49.4305C66.5795 49.4305 66.9238 49.3512 67.1516 49.1926C67.3794 49.0286 67.4933 48.8127 67.4933 48.5448C67.4933 48.348 67.4298 48.1894 67.3026 48.0691C67.1808 47.9434 67.0271 47.8477 66.8417 47.7821C66.6616 47.7165 66.4047 47.6427 66.0709 47.5607C65.6524 47.4568 65.3133 47.353 65.0537 47.2491C64.7994 47.1452 64.5796 46.9867 64.3942 46.7734C64.214 46.5548 64.124 46.2623 64.124 45.896C64.124 45.5898 64.2008 45.3137 64.3544 45.0677C64.5134 44.8217 64.7518 44.6249 65.0696 44.4773C65.3875 44.3296 65.7822 44.2558 66.2537 44.2558C66.5821 44.2558 66.9053 44.2996 67.2232 44.387C67.541 44.4745 67.8139 44.6003 68.0417 44.7643L67.7794 45.4203C67.5463 45.2673 67.2973 45.1524 67.0324 45.0759C66.7676 44.9939 66.508 44.9529 66.2537 44.9529C65.8034 44.9529 65.4643 45.0376 65.2365 45.2071C65.014 45.3766 64.9028 45.5953 64.9028 45.8632C64.9028 46.06 64.9663 46.2213 65.0935 46.347C65.2206 46.4673 65.3769 46.563 65.5623 46.634C65.753 46.6996 66.01 46.7707 66.3331 46.8472C66.7517 46.9511 67.0881 47.055 67.3424 47.1589C67.5966 47.2627 67.8139 47.4213 67.994 47.6345C68.1794 47.8477 68.2721 48.1348 68.2721 48.4956C68.2721 48.7963 68.1926 49.0724 68.0337 49.3239C67.8748 49.5699 67.6337 49.7667 67.3106 49.9143C66.9874 50.0564 66.5901 50.1275 66.1186 50.1275Z" fill="#95A1B6"/>
<path d="M74.6699 45.6746C75.1996 45.6746 75.6182 45.8331 75.9254 46.1502C76.238 46.4673 76.3943 46.9375 76.3943 47.5607V50.0619H75.6314V47.6509C75.6314 47.2299 75.536 46.9129 75.3453 46.6996C75.1599 46.4864 74.8924 46.3798 74.5427 46.3798C74.156 46.3798 73.8487 46.5056 73.6209 46.757C73.3931 47.0031 73.2792 47.3584 73.2792 47.8231V50.0619H72.5163V47.6509C72.5163 47.2299 72.421 46.9129 72.2303 46.6996C72.0448 46.4864 71.7773 46.3798 71.4277 46.3798C71.0409 46.3798 70.7337 46.5056 70.5058 46.757C70.278 47.0031 70.1641 47.3584 70.1641 47.8231V50.0619H69.4013V45.7156H70.1324V46.3634C70.286 46.1393 70.4873 45.9698 70.7363 45.855C70.9853 45.7347 71.2687 45.6746 71.5866 45.6746C71.915 45.6746 72.2064 45.7429 72.4607 45.8796C72.715 46.0162 72.911 46.2158 73.0488 46.4782C73.2077 46.2267 73.4276 46.0299 73.7083 45.8878C73.9944 45.7456 74.3149 45.6746 74.6699 45.6746Z" fill="#95A1B6"/>
<path d="M79.4111 45.6746C79.9939 45.6746 80.4389 45.8222 80.7462 46.1174C81.0587 46.4126 81.215 46.8527 81.215 47.4377V50.0619H80.4919V49.4879C80.3647 49.6901 80.182 49.846 79.9436 49.9553C79.7105 50.0592 79.4323 50.1111 79.1092 50.1111C78.6377 50.1111 78.2589 49.9936 77.9728 49.7585C77.692 49.5234 77.5516 49.2145 77.5516 48.8318C77.5516 48.4491 77.6867 48.143 77.9569 47.9133C78.2271 47.6782 78.6562 47.5607 79.2443 47.5607H80.4521V47.4049C80.4521 47.0659 80.3568 46.8062 80.1661 46.6258C79.9753 46.4454 79.6946 46.3552 79.3237 46.3552C79.0747 46.3552 78.831 46.3989 78.5926 46.4864C78.3542 46.5684 78.1529 46.6805 77.9887 46.8226L77.6708 46.2322C77.888 46.0518 78.1476 45.9151 78.4496 45.8222C78.7516 45.7238 79.0721 45.6746 79.4111 45.6746ZM79.2363 49.5043C79.5277 49.5043 79.7793 49.4387 79.9912 49.3074C80.2031 49.1708 80.3568 48.9794 80.4521 48.7334V48.1266H79.276C78.6297 48.1266 78.3066 48.3507 78.3066 48.799C78.3066 49.0177 78.3887 49.1899 78.5529 49.3156C78.7171 49.4414 78.9449 49.5043 79.2363 49.5043Z" fill="#95A1B6"/>
<path d="M83.4373 46.4454C83.5698 46.1939 83.7658 46.0026 84.0254 45.8714C84.285 45.7402 84.6002 45.6746 84.971 45.6746V46.4372C84.9286 46.4317 84.8704 46.429 84.7962 46.429C84.383 46.429 84.0572 46.5575 83.8188 46.8144C83.5857 47.0659 83.4691 47.4268 83.4691 47.8969V50.0619H82.7062V45.7156H83.4373V46.4454Z" fill="#95A1B6"/>
<path d="M88.5295 49.8077C88.4183 49.9061 88.2806 49.9826 88.1163 50.0373C87.9521 50.0865 87.7826 50.1111 87.6077 50.1111C87.1839 50.1111 86.8555 49.9936 86.6224 49.7585C86.3893 49.5234 86.2727 49.1872 86.2727 48.7498V46.3634H85.5575V45.7156H86.2727V44.7643H87.0356V45.7156H88.2435V46.3634H87.0356V48.717C87.0356 48.9521 87.0912 49.1325 87.2025 49.2582C87.319 49.384 87.4832 49.4469 87.6952 49.4469C87.9283 49.4469 88.1269 49.3785 88.2911 49.2418L88.5295 49.8077Z" fill="#95A1B6"/>
<path d="M94.3434 50.1275C93.7872 50.1275 93.2839 50.0018 92.8336 49.7503C92.3886 49.4933 92.0389 49.1434 91.7846 48.7006C91.5303 48.2523 91.4032 47.7493 91.4032 47.1917C91.4032 46.634 91.5303 46.1338 91.7846 45.691C92.0389 45.2427 92.3912 44.8928 92.8415 44.6413C93.2918 44.3843 93.7951 44.2558 94.3514 44.2558C94.7858 44.2558 95.1831 44.3324 95.5434 44.4855C95.9036 44.6331 96.2109 44.8545 96.4652 45.1497L95.9486 45.6664C95.5301 45.2126 95.0083 44.9857 94.3831 44.9857C93.9699 44.9857 93.5964 45.0814 93.2627 45.2727C92.9289 45.4641 92.6667 45.7292 92.476 46.0682C92.2905 46.4017 92.1978 46.7762 92.1978 47.1917C92.1978 47.6072 92.2905 47.9844 92.476 48.3234C92.6667 48.6569 92.9289 48.9193 93.2627 49.1106C93.5964 49.302 93.9699 49.3977 94.3831 49.3977C95.003 49.3977 95.5248 49.168 95.9486 48.7088L96.4652 49.2254C96.2109 49.5207 95.9009 49.7448 95.5354 49.8979C95.1752 50.051 94.7778 50.1275 94.3434 50.1275Z" fill="#95A1B6"/>
<path d="M97.567 43.977H98.3299V50.0619H97.567V43.977Z" fill="#95A1B6"/>
<path d="M99.8659 45.7156H100.629V50.0619H99.8659V45.7156ZM100.247 44.8791C100.099 44.8791 99.9745 44.8299 99.8739 44.7315C99.7785 44.6331 99.7308 44.5128 99.7308 44.3706C99.7308 44.2285 99.7785 44.1082 99.8739 44.0098C99.9745 43.9059 100.099 43.854 100.247 43.854C100.396 43.854 100.518 43.9032 100.613 44.0016C100.714 44.0946 100.764 44.2121 100.764 44.3542C100.764 44.5019 100.714 44.6276 100.613 44.7315C100.518 44.8299 100.396 44.8791 100.247 44.8791Z" fill="#95A1B6"/>
<path d="M107.433 45.6746C107.963 45.6746 108.382 45.8331 108.689 46.1502C109.002 46.4673 109.158 46.9375 109.158 47.5607V50.0619H108.395V47.6509C108.395 47.2299 108.3 46.9129 108.109 46.6996C107.923 46.4864 107.656 46.3798 107.306 46.3798C106.92 46.3798 106.612 46.5056 106.385 46.757C106.157 47.0031 106.043 47.3584 106.043 47.8231V50.0619H105.28V47.6509C105.28 47.2299 105.185 46.9129 104.994 46.6996C104.808 46.4864 104.541 46.3798 104.191 46.3798C103.805 46.3798 103.497 46.5056 103.269 46.757C103.042 47.0031 102.928 47.3584 102.928 47.8231V50.0619H102.165V45.7156H102.896V46.3634C103.05 46.1393 103.251 45.9698 103.5 45.855C103.749 45.7347 104.032 45.6746 104.35 45.6746C104.679 45.6746 104.97 45.7429 105.224 45.8796C105.479 46.0162 105.675 46.2158 105.812 46.4782C105.971 46.2267 106.191 46.0299 106.472 45.8878C106.758 45.7456 107.079 45.6746 107.433 45.6746Z" fill="#95A1B6"/>
<path d="M112.175 45.6746C112.757 45.6746 113.202 45.8222 113.51 46.1174C113.822 46.4126 113.979 46.8527 113.979 47.4377V50.0619H113.255V49.4879C113.128 49.6901 112.946 49.846 112.707 49.9553C112.474 50.0592 112.196 50.1111 111.873 50.1111C111.401 50.1111 111.022 49.9936 110.736 49.7585C110.456 49.5234 110.315 49.2145 110.315 48.8318C110.315 48.4491 110.45 48.143 110.72 47.9133C110.991 47.6782 111.42 47.5607 112.008 47.5607H113.216V47.4049C113.216 47.0659 113.12 46.8062 112.93 46.6258C112.739 46.4454 112.458 46.3552 112.087 46.3552C111.838 46.3552 111.595 46.3989 111.356 46.4864C111.118 46.5684 110.917 46.6805 110.752 46.8226L110.434 46.2322C110.652 46.0518 110.911 45.9151 111.213 45.8222C111.515 45.7238 111.836 45.6746 112.175 45.6746ZM112 49.5043C112.291 49.5043 112.543 49.4387 112.755 49.3074C112.967 49.1708 113.12 48.9794 113.216 48.7334V48.1266H112.04C111.393 48.1266 111.07 48.3507 111.07 48.799C111.07 49.0177 111.152 49.1899 111.316 49.3156C111.481 49.4414 111.709 49.5043 112 49.5043Z" fill="#95A1B6"/>
<path d="M117.838 49.8077C117.727 49.9061 117.589 49.9826 117.425 50.0373C117.26 50.0865 117.091 50.1111 116.916 50.1111C116.492 50.1111 116.164 49.9936 115.931 49.7585C115.698 49.5234 115.581 49.1872 115.581 48.7498V46.3634H114.866V45.7156H115.581V44.7643H116.344V45.7156H117.552V46.3634H116.344V48.717C116.344 48.9521 116.4 49.1325 116.511 49.2582C116.627 49.384 116.792 49.4469 117.004 49.4469C117.237 49.4469 117.435 49.3785 117.6 49.2418L117.838 49.8077Z" fill="#95A1B6"/>
<path d="M122.506 47.9133C122.506 47.9735 122.501 48.0527 122.491 48.1512H119.073C119.121 48.5339 119.283 48.8427 119.558 49.0778C119.839 49.3074 120.186 49.4223 120.599 49.4223C121.103 49.4223 121.508 49.2473 121.815 48.8974L122.236 49.4059C122.046 49.6355 121.807 49.8104 121.521 49.9307C121.24 50.051 120.925 50.1111 120.575 50.1111C120.13 50.1111 119.736 50.0182 119.391 49.8323C119.047 49.6409 118.779 49.3758 118.589 49.0368C118.403 48.6979 118.311 48.3152 118.311 47.8887C118.311 47.4678 118.401 47.0878 118.581 46.7488C118.766 46.4099 119.018 46.1475 119.336 45.9616C119.659 45.7702 120.022 45.6746 120.424 45.6746C120.827 45.6746 121.185 45.7702 121.497 45.9616C121.815 46.1475 122.061 46.4099 122.236 46.7488C122.416 47.0878 122.506 47.476 122.506 47.9133ZM120.424 46.3388C120.059 46.3388 119.752 46.4536 119.503 46.6832C119.259 46.9129 119.116 47.2135 119.073 47.5853H121.775C121.733 47.219 121.587 46.9211 121.338 46.6914C121.095 46.4563 120.79 46.3388 120.424 46.3388Z" fill="#95A1B6"/>
<path d="M127.591 50.1275C127.173 50.1275 126.767 50.0619 126.375 49.9307C125.989 49.794 125.684 49.6191 125.461 49.4059L125.755 48.7662C125.967 48.963 126.238 49.1243 126.566 49.25C126.9 49.3703 127.241 49.4305 127.591 49.4305C128.052 49.4305 128.396 49.3512 128.624 49.1926C128.852 49.0286 128.966 48.8127 128.966 48.5448C128.966 48.348 128.902 48.1894 128.775 48.0691C128.653 47.9434 128.5 47.8477 128.314 47.7821C128.134 47.7165 127.877 47.6427 127.543 47.5607C127.125 47.4568 126.786 47.353 126.526 47.2491C126.272 47.1452 126.052 46.9867 125.867 46.7734C125.687 46.5548 125.597 46.2623 125.597 45.896C125.597 45.5898 125.673 45.3137 125.827 45.0677C125.986 44.8217 126.224 44.6249 126.542 44.4773C126.86 44.3296 127.255 44.2558 127.726 44.2558C128.055 44.2558 128.378 44.2996 128.696 44.387C129.014 44.4745 129.286 44.6003 129.514 44.7643L129.252 45.4203C129.019 45.2673 128.77 45.1524 128.505 45.0759C128.24 44.9939 127.981 44.9529 127.726 44.9529C127.276 44.9529 126.937 45.0376 126.709 45.2071C126.487 45.3766 126.375 45.5953 126.375 45.8632C126.375 46.06 126.439 46.2213 126.566 46.347C126.693 46.4673 126.849 46.563 127.035 46.634C127.226 46.6996 127.483 46.7707 127.806 46.8472C128.224 46.9511 128.561 47.055 128.815 47.1589C129.069 47.2627 129.286 47.4213 129.467 47.6345C129.652 47.8477 129.745 48.1348 129.745 48.4956C129.745 48.7963 129.665 49.0724 129.506 49.3239C129.347 49.5699 129.106 49.7667 128.783 49.9143C128.46 50.0564 128.063 50.1275 127.591 50.1275Z" fill="#95A1B6"/>
<path d="M134.523 45.7156L132.481 50.4965C132.301 50.9394 132.089 51.251 131.845 51.4314C131.607 51.6118 131.318 51.702 130.979 51.702C130.772 51.702 130.571 51.6665 130.375 51.5954C130.184 51.5298 130.025 51.4314 129.898 51.3002L130.224 50.7098C130.441 50.923 130.693 51.0296 130.979 51.0296C131.164 51.0296 131.318 50.9777 131.44 50.8738C131.567 50.7754 131.681 50.6032 131.782 50.3571L131.917 50.0537L130.057 45.7156H130.852L132.322 49.1926L133.776 45.7156H134.523Z" fill="#95A1B6"/>
<path d="M136.468 50.1111C136.124 50.1111 135.793 50.0646 135.475 49.9717C135.157 49.8733 134.908 49.7503 134.728 49.6027L135.046 48.9794C135.231 49.1161 135.456 49.2254 135.721 49.3074C135.986 49.3895 136.254 49.4305 136.524 49.4305C137.191 49.4305 137.525 49.2336 137.525 48.84C137.525 48.7088 137.48 48.6049 137.39 48.5284C137.3 48.4518 137.186 48.3972 137.048 48.3644C136.916 48.3261 136.725 48.2851 136.476 48.2414C136.137 48.1867 135.859 48.1238 135.642 48.0527C135.43 47.9817 135.247 47.8614 135.093 47.6919C134.94 47.5224 134.863 47.2846 134.863 46.9785C134.863 46.5848 135.022 46.2705 135.34 46.0354C135.658 45.7948 136.084 45.6746 136.619 45.6746C136.9 45.6746 137.181 45.7101 137.461 45.7812C137.742 45.8522 137.973 45.9479 138.153 46.0682L137.827 46.6914C137.483 46.4618 137.077 46.347 136.611 46.347C136.288 46.347 136.042 46.4017 135.872 46.511C135.703 46.6204 135.618 46.7652 135.618 46.9457C135.618 47.0878 135.666 47.1999 135.761 47.2819C135.856 47.3639 135.973 47.424 136.111 47.4623C136.254 47.5006 136.452 47.5443 136.707 47.5935C137.046 47.6536 137.318 47.7193 137.525 47.7903C137.737 47.8559 137.917 47.9707 138.065 48.1348C138.214 48.2988 138.288 48.5284 138.288 48.8236C138.288 49.2172 138.124 49.5316 137.795 49.7667C137.472 49.9963 137.03 50.1111 136.468 50.1111Z" fill="#95A1B6"/>
<path d="M141.689 49.8077C141.578 49.9061 141.44 49.9826 141.276 50.0373C141.111 50.0865 140.942 50.1111 140.767 50.1111C140.343 50.1111 140.015 49.9936 139.782 49.7585C139.549 49.5234 139.432 49.1872 139.432 48.7498V46.3634H138.717V45.7156H139.432V44.7643H140.195V45.7156H141.403V46.3634H140.195V48.717C140.195 48.9521 140.251 49.1325 140.362 49.2582C140.478 49.384 140.643 49.4469 140.854 49.4469C141.088 49.4469 141.286 49.3785 141.45 49.2418L141.689 49.8077Z" fill="#95A1B6"/>
<path d="M146.357 47.9133C146.357 47.9735 146.352 48.0527 146.342 48.1512H142.924C142.972 48.5339 143.134 48.8427 143.409 49.0778C143.69 49.3074 144.037 49.4223 144.45 49.4223C144.953 49.4223 145.359 49.2473 145.666 48.8974L146.087 49.4059C145.896 49.6355 145.658 49.8104 145.372 49.9307C145.091 50.051 144.776 50.1111 144.426 50.1111C143.981 50.1111 143.587 50.0182 143.242 49.8323C142.898 49.6409 142.63 49.3758 142.44 49.0368C142.254 48.6979 142.162 48.3152 142.162 47.8887C142.162 47.4678 142.252 47.0878 142.432 46.7488C142.617 46.4099 142.869 46.1475 143.187 45.9616C143.51 45.7702 143.873 45.6746 144.275 45.6746C144.678 45.6746 145.036 45.7702 145.348 45.9616C145.666 46.1475 145.912 46.4099 146.087 46.7488C146.267 47.0878 146.357 47.476 146.357 47.9133ZM144.275 46.3388C143.91 46.3388 143.603 46.4536 143.354 46.6832C143.11 46.9129 142.967 47.2135 142.924 47.5853H145.626C145.584 47.219 145.438 46.9211 145.189 46.6914C144.946 46.4563 144.641 46.3388 144.275 46.3388Z" fill="#95A1B6"/>
<path d="M152.765 45.6746C153.295 45.6746 153.713 45.8331 154.02 46.1502C154.333 46.4673 154.489 46.9375 154.489 47.5607V50.0619H153.726V47.6509C153.726 47.2299 153.631 46.9129 153.44 46.6996C153.255 46.4864 152.987 46.3798 152.638 46.3798C152.251 46.3798 151.944 46.5056 151.716 46.757C151.488 47.0031 151.374 47.3584 151.374 47.8231V50.0619H150.611V47.6509C150.611 47.2299 150.516 46.9129 150.325 46.6996C150.14 46.4864 149.872 46.3798 149.523 46.3798C149.136 46.3798 148.829 46.5056 148.601 46.757C148.373 47.0031 148.259 47.3584 148.259 47.8231V50.0619H147.496V45.7156H148.227V46.3634C148.381 46.1393 148.582 45.9698 148.831 45.855C149.08 45.7347 149.364 45.6746 149.681 45.6746C150.01 45.6746 150.301 45.7429 150.556 45.8796C150.81 46.0162 151.006 46.2158 151.144 46.4782C151.303 46.2267 151.522 46.0299 151.803 45.8878C152.089 45.7456 152.41 45.6746 152.765 45.6746Z" fill="#95A1B6"/>
<path d="M157.18 50.1111C156.836 50.1111 156.505 50.0646 156.187 49.9717C155.869 49.8733 155.62 49.7503 155.44 49.6027L155.758 48.9794C155.943 49.1161 156.168 49.2254 156.433 49.3074C156.698 49.3895 156.966 49.4305 157.236 49.4305C157.903 49.4305 158.237 49.2336 158.237 48.84C158.237 48.7088 158.192 48.6049 158.102 48.5284C158.012 48.4518 157.898 48.3972 157.76 48.3644C157.628 48.3261 157.437 48.2851 157.188 48.2414C156.849 48.1867 156.571 48.1238 156.354 48.0527C156.142 47.9817 155.959 47.8614 155.805 47.6919C155.652 47.5224 155.575 47.2846 155.575 46.9785C155.575 46.5848 155.734 46.2705 156.052 46.0354C156.37 45.7948 156.796 45.6746 157.331 45.6746C157.612 45.6746 157.893 45.7101 158.174 45.7812C158.454 45.8522 158.685 45.9479 158.865 46.0682L158.539 46.6914C158.195 46.4618 157.789 46.347 157.323 46.347C157 46.347 156.754 46.4017 156.584 46.511C156.415 46.6204 156.33 46.7652 156.33 46.9457C156.33 47.0878 156.378 47.1999 156.473 47.2819C156.568 47.3639 156.685 47.424 156.823 47.4623C156.966 47.5006 157.164 47.5443 157.419 47.5935C157.758 47.6536 158.031 47.7193 158.237 47.7903C158.449 47.8559 158.629 47.9707 158.777 48.1348C158.926 48.2988 159 48.5284 159 48.8236C159 49.2172 158.836 49.5316 158.507 49.7667C158.184 49.9963 157.742 50.1111 157.18 50.1111Z" fill="#95A1B6"/>
<path fill-rule="evenodd" clip-rule="evenodd" d="M49.5589 22.857L49.5624 22.8606C51.3873 24.7476 51.3865 27.8152 49.5601 29.7011C48.6736 30.6154 47.4962 31.1186 46.2441 31.1186H45.4762V46.8964C45.4762 50.0186 43.0143 52.5588 39.9879 52.5588H31.424C30.7354 52.5588 30.2561 52.022 30.2561 51.3815C30.2561 50.3056 32.2463 47.2664 34.0543 44.5056C34.8581 43.2781 35.6259 42.1056 36.1667 41.1852C37.9239 38.1946 38.038 35.6044 38.038 34.2857C38.038 27.1742 32.3967 21.405 25.4615 21.405C18.5263 21.405 12.8896 27.2449 12.8896 34.2857C12.8896 37.5361 13.8481 39.584 14.6924 41.091C14.9216 41.5 15.4666 42.3147 16.1393 43.3201C17.9454 46.0198 20.6715 50.0946 20.6715 51.3815C20.6715 52.1821 19.9868 52.5588 19.5345 52.5588H10.9433C7.91678 52.5588 5.45495 50.0186 5.45495 46.8964V31.1186H4.62682C4.57825 31.1186 4.53006 31.1162 4.48226 31.1114C3.30517 31.0593 2.20424 30.5608 1.37067 29.7003C-0.453842 27.8176 -0.456951 24.7553 1.36174 22.8678C1.36873 22.8606 1.37573 22.8529 1.38272 22.8457L22.1496 1.41751C23.0356 0.503245 24.2131 0 25.4656 0C26.7181 0 27.8955 0.503646 28.7812 1.41791L49.5589 22.857Z" fill="url(#paint0_linear_210_793)"/>
<path d="M19.5345 52.5588H31.424C30.7354 52.5588 30.2561 52.022 30.2561 51.3815C30.2561 50.3056 32.2463 47.2664 34.0543 44.5056C34.8581 43.2781 35.6259 42.1056 36.1667 41.1852C37.9239 38.1946 38.038 35.6044 38.038 34.2857C38.038 27.1742 32.3967 21.405 25.4615 21.405C18.5263 21.405 12.8896 27.2449 12.8896 34.2857C12.8896 37.5361 13.8481 39.584 14.6924 41.091C14.9216 41.5 15.4666 42.3147 16.1393 43.3201C17.9454 46.0198 20.6715 50.0946 20.6715 51.3815C20.6715 52.1821 19.9868 52.5588 19.5345 52.5588Z" fill="url(#paint1_linear_210_793)"/>
<mask id="mask0_210_793" style="mask-type:alpha" maskUnits="userSpaceOnUse" x="0" y="0" width="51" height="53">
<path fill-rule="evenodd" clip-rule="evenodd" d="M49.5589 22.857L49.5624 22.8606C51.3873 24.7476 51.3865 27.8152 49.5601 29.7011C48.6736 30.6154 47.4962 31.1186 46.2441 31.1186H45.4762V46.8964C45.4762 50.0186 43.0143 52.5588 39.9879 52.5588H31.424C30.7354 52.5588 30.2561 52.022 30.2561 51.3815C30.2561 50.3056 32.2463 47.2664 34.0543 44.5056C34.8581 43.2781 35.6259 42.1056 36.1667 41.1852C37.9239 38.1946 38.038 35.6044 38.038 34.2857C38.038 27.1742 32.3967 21.405 25.4615 21.405C18.5263 21.405 12.8896 27.2449 12.8896 34.2857C12.8896 37.5361 13.8481 39.584 14.6924 41.091C14.9216 41.5 15.4666 42.3147 16.1393 43.3201C17.9454 46.0198 20.6715 50.0946 20.6715 51.3815C20.6715 52.1821 19.9868 52.5588 19.5345 52.5588H10.9433C7.91678 52.5588 5.45495 50.0186 5.45495 46.8964V31.1186H4.62682C4.57825 31.1186 4.53006 31.1162 4.48226 31.1114C3.30517 31.0593 2.20424 30.5608 1.37067 29.7003C-0.453842 27.8176 -0.456951 24.7553 1.36174 22.8678C1.36873 22.8606 1.37573 22.8529 1.38272 22.8457L22.1496 1.41751C23.0356 0.503245 24.2131 0 25.4656 0C26.7181 0 27.8955 0.503646 28.7812 1.41791L49.5589 22.857Z" fill="url(#paint2_linear_210_793)"/>
<path d="M19.5345 52.5588H31.424C30.7354 52.5588 30.2561 52.022 30.2561 51.3815C30.2561 50.3056 32.2463 47.2664 34.0543 44.5056C34.8581 43.2781 35.6259 42.1056 36.1667 41.1852C37.9239 38.1946 38.038 35.6044 38.038 34.2857C38.038 27.1742 32.3967 21.405 25.4615 21.405C18.5263 21.405 12.8896 27.2449 12.8896 34.2857C12.8896 37.5361 13.8481 39.584 14.6924 41.091C14.9216 41.5 15.4666 42.3147 16.1393 43.3201C17.9454 46.0198 20.6715 50.0946 20.6715 51.3815C20.6715 52.1821 19.9868 52.5588 19.5345 52.5588Z" fill="url(#paint3_linear_210_793)"/>
</mask>
<g mask="url(#mask0_210_793)">
<ellipse cx="51.7251" cy="39.1601" rx="46.9373" ry="48.438" fill="#6FAFFD" fill-opacity="0.3"/>
<ellipse cx="48.3937" cy="46.9784" rx="36.6234" ry="37.7943" fill="#92C3FF" fill-opacity="0.5"/>
<ellipse cx="46.8876" cy="56.5856" rx="24.7579" ry="25.5494" fill="#9DC9FF" fill-opacity="0.73"/>
</g>
<path d="M27.3032 20.8638C27.3032 20.8638 24.5051 21.251 23.6453 22.8089C22.9287 24.1073 23.3906 25.1736 24.361 25.8308C24.2947 25.9356 24.2281 26.0455 24.161 26.167L24.484 26.3622C24.6986 25.9733 24.9141 25.6828 25.1223 25.402C25.5303 24.8517 25.9519 24.2798 26.346 23.0006C26.3704 24.0755 25.4902 25.4037 25.1554 26.2223C26.0341 26.4971 26.9187 26.2432 27.5219 25.1503C28.3817 23.5924 27.3032 20.8638 27.3032 20.8638Z" fill="#13FF1D"/>
<path d="M23.6193 47.1432C23.6193 47.1432 26.4174 46.756 27.2772 45.198C27.9938 43.8996 27.5319 42.8334 26.5615 42.1762C26.6278 42.0713 26.6944 41.9615 26.7615 41.8399L26.4385 41.6448C26.2239 42.0336 26.0084 42.3241 25.8003 42.6049C25.3922 43.1553 24.9706 43.7272 24.5765 45.0064C24.5521 43.9315 25.4324 42.6033 25.7671 41.7847C24.8884 41.5098 24.0038 41.7638 23.4006 42.8566C22.5408 44.4146 23.6193 47.1432 23.6193 47.1432Z" fill="#13FF1D"/>
<path d="M33.4206 23.4297C33.4206 23.4297 30.8122 22.3014 29.323 23.2009C28.0819 23.9505 27.9723 25.1155 28.4986 26.1923C28.391 26.2484 28.2808 26.3087 28.1646 26.3789L28.3511 26.7168C28.7228 26.4923 29.0482 26.3534 29.3627 26.2191C29.9791 25.956 30.6176 25.6812 31.5703 24.7795C31.0777 25.7232 29.6805 26.413 28.9994 26.9468C29.629 27.6445 30.5165 27.8873 31.5612 27.2563C33.0504 26.3569 33.4206 23.4297 33.4206 23.4297Z" fill="#13FF1D"/>
<path d="M17.502 44.5773C17.502 44.5773 20.1103 45.7055 21.5995 44.8061C22.8407 44.0564 22.9503 42.8914 22.424 41.8147C22.5315 41.7585 22.6417 41.6983 22.7579 41.6281L22.5714 41.2901C22.1997 41.5146 21.8743 41.6535 21.5598 41.7878C20.9434 42.051 20.3049 42.3257 19.3522 43.2274C19.8448 42.2838 21.242 41.5939 21.9231 41.0601C21.2935 40.3624 20.406 40.1197 19.3614 40.7506C17.8721 41.6501 17.502 44.5773 17.502 44.5773Z" fill="#13FF1D"/>
<path d="M37.4492 29.1142C37.4492 29.1142 35.7296 26.7728 34.0099 26.7728C32.5768 26.7728 31.9251 27.7243 31.8662 28.9321C31.7462 28.9245 31.622 28.919 31.4878 28.919V29.3093C31.917 29.3093 32.2652 29.3592 32.6018 29.4074C33.2614 29.5019 33.9456 29.5979 35.2017 29.3154C34.324 29.8749 32.7843 29.7416 31.9393 29.8476C32.1511 30.7811 32.8036 31.4556 34.0099 31.4556C35.7296 31.4556 37.4492 29.1142 37.4492 29.1142Z" fill="#13FF1D"/>
<path d="M13.4733 38.8928C13.4733 38.8928 15.193 41.2342 16.9126 41.2342C18.3457 41.2342 18.9975 40.2826 19.0563 39.0748C19.1763 39.0825 19.3005 39.0879 19.4347 39.0879L19.4347 38.6977C19.0055 38.6977 18.6573 38.6478 18.3208 38.5996C17.6612 38.5051 16.9769 38.409 15.7209 38.6916C16.5985 38.132 18.1382 38.2654 18.9832 38.1594C18.7714 37.2259 18.1189 36.5514 16.9126 36.5514C15.1929 36.5514 13.4733 38.8928 13.4733 38.8928Z" fill="#13FF1D"/>
<path d="M38.1939 35.9357C38.1939 35.9357 37.8237 33.0085 36.3345 32.109C35.0933 31.3594 34.0741 31.8426 33.4459 32.8577C33.3456 32.7884 33.2407 32.7187 33.1245 32.6485L32.9379 32.9865C33.3096 33.2109 33.5873 33.4363 33.8557 33.6541C34.3818 34.0809 34.9285 34.522 36.1513 34.9343C35.1238 34.9598 33.8541 34.039 33.0717 33.6888C32.8089 34.6081 33.0517 35.5335 34.0963 36.1644C35.5856 37.0639 38.1939 35.9357 38.1939 35.9357Z" fill="#13FF1D"/>
<path d="M12.7286 32.0713C12.7286 32.0713 13.0988 34.9985 14.588 35.898C15.8292 36.6476 16.8484 36.1644 17.4766 35.1492C17.5769 35.2186 17.6819 35.2883 17.7981 35.3585L17.9846 35.0205C17.6129 34.796 17.3352 34.5706 17.0668 34.3529C16.5407 33.926 15.994 33.485 14.7712 33.0726C15.7987 33.0471 17.0684 33.968 17.8509 34.3182C18.1136 33.3989 17.8709 32.4735 16.8262 31.8425C15.3369 30.943 12.7286 32.0713 12.7286 32.0713Z" fill="#13FF1D"/>
<path d="M35.4842 42.1111C35.4842 42.1111 36.5628 39.3824 35.7029 37.8245C34.9864 36.5261 33.8727 36.4114 32.8435 36.962C32.7898 36.8495 32.7322 36.7342 32.6651 36.6127L32.342 36.8078C32.5566 37.1966 32.6894 37.537 32.8178 37.866C33.0694 38.5109 33.332 39.1788 34.1939 40.1755C33.2919 39.6601 32.6324 38.1985 32.1222 37.486C31.4553 38.1446 31.2232 39.073 31.8263 40.1659C32.6861 41.7238 35.4842 42.1111 35.4842 42.1111Z" fill="#13FF1D"/>
<path d="M15.4383 25.8959C15.4383 25.8959 14.3598 28.6245 15.2196 30.1825C15.9362 31.4809 17.0498 31.5955 18.0791 31.045C18.1327 31.1575 18.1903 31.2727 18.2574 31.3943L18.5805 31.1992C18.3659 30.8104 18.2331 30.4699 18.1047 30.1409C17.8532 29.4961 17.5905 28.8282 16.7286 27.8315C17.6307 28.3469 18.2901 29.8084 18.8004 30.521C19.4673 29.8623 19.6993 28.9339 19.0962 27.8411C18.2364 26.2831 15.4383 25.8959 15.4383 25.8959Z" fill="#13FF1D"/>
<path d="M30.0068 46.1833C30.0068 46.1833 32.245 44.3844 32.245 42.5854C32.245 41.0862 31.3354 40.4044 30.1809 40.3428C30.1882 40.2173 30.1934 40.0873 30.1934 39.947H29.8203C29.8203 40.3959 29.7726 40.7602 29.7265 41.1123C29.6362 41.8023 29.5444 42.5181 29.8145 43.8321C29.2796 42.914 29.4071 41.3033 29.3058 40.4193C28.4134 40.6409 27.7687 41.3235 27.7687 42.5854C27.7687 44.3844 30.0068 46.1833 30.0068 46.1833Z" fill="#13FF1D"/>
<path d="M20.9157 21.8236C20.9157 21.8236 18.6775 23.6226 18.6775 25.4215C18.6775 26.9208 19.5871 27.6026 20.7417 27.6641C20.7343 27.7897 20.7292 27.9196 20.7292 28.06H21.1022C21.1022 27.611 21.1499 27.2467 21.196 26.8947C21.2863 26.2046 21.3781 25.4888 21.108 24.1748C21.6429 25.093 21.5154 26.7037 21.6168 27.5877C22.5091 27.3661 23.1538 26.6835 23.1538 25.4215C23.1538 23.6226 20.9157 21.8236 20.9157 21.8236Z" fill="#13FF1D"/>
<defs>
<linearGradient id="paint0_linear_210_793" x1="-0.00405382" y1="-9.27786" x2="59.1849" y2="58.2853" gradientUnits="userSpaceOnUse">
<stop stop-color="#439DE3"/>
<stop offset="1" stop-color="#0052F9"/>
</linearGradient>
<linearGradient id="paint1_linear_210_793" x1="-0.00405382" y1="-9.27786" x2="59.1849" y2="58.2853" gradientUnits="userSpaceOnUse">
<stop stop-color="#439DE3"/>
<stop offset="1" stop-color="#0052F9"/>
</linearGradient>
<linearGradient id="paint2_linear_210_793" x1="-0.00405382" y1="-9.27786" x2="59.1849" y2="58.2853" gradientUnits="userSpaceOnUse">
<stop stop-color="#439DE3"/>
<stop offset="1" stop-color="#0052F9"/>
</linearGradient>
<linearGradient id="paint3_linear_210_793" x1="-0.00405382" y1="-9.27786" x2="59.1849" y2="58.2853" gradientUnits="userSpaceOnUse">
<stop stop-color="#439DE3"/>
<stop offset="1" stop-color="#0052F9"/>
</linearGradient>
</defs>
</svg>
