<svg width="20" height="20" viewBox="0 0 20 20" fill="none" xmlns="http://www.w3.org/2000/svg">
<path fill-rule="evenodd" clip-rule="evenodd" d="M1.96142 5.5473C2.71385 4.63325 3.98481 4.25 5.83268 4.25H14.166C16.0139 4.25 17.2851 4.63324 18.0377 5.54721C18.7617 6.42652 18.8327 7.61133 18.8327 8.69167V15.3583C18.8327 15.385 18.8313 15.4117 18.8284 15.4382C18.722 16.4313 18.2835 17.3828 17.3375 18.0663C16.4156 18.7323 15.095 19.0833 13.3327 19.0833H6.66602C4.90373 19.0833 3.58309 18.7323 2.66118 18.0663C1.71519 17.3828 1.27669 16.4313 1.17028 15.4382C1.16744 15.4117 1.16602 15.385 1.16602 15.3583V8.69167C1.16667 7.61167 1.23769 6.42648 1.96142 5.5473ZM2.66602 15.3161C2.74073 15.9397 3.0026 16.4624 3.5396 16.8504C4.11145 17.2635 5.0783 17.5833 6.66602 17.5833H13.3327C14.9204 17.5833 15.8873 17.2635 16.4591 16.8504C16.9961 16.4624 17.258 15.9397 17.3327 15.3161V8.69167C17.3327 7.58034 17.2245 6.91932 16.8798 6.50071C16.5636 6.11676 15.8765 5.75 14.166 5.75H5.83268C4.12222 5.75 3.4355 6.11675 3.11952 6.50062C2.77487 6.91929 2.66671 7.58052 2.66602 8.69192" fill="#737A92"/>
<path fill-rule="evenodd" clip-rule="evenodd" d="M7.45137 3.39084C7.41722 3.65241 7.41602 3.95198 7.41602 4.33268V4.99935C7.41602 5.41356 7.08023 5.74935 6.66602 5.74935C6.2518 5.74935 5.91602 5.41356 5.91602 4.99935V4.33268C5.91602 4.32437 5.91602 4.31603 5.91602 4.30766C5.91599 3.95714 5.91596 3.56459 5.964 3.19665C6.01406 2.81318 6.12254 2.39575 6.38237 2.0198C6.93244 1.22392 7.92886 0.916016 9.33268 0.916016H10.666C12.0698 0.916016 13.0663 1.22392 13.6163 2.0198C13.8762 2.39575 13.9846 2.81318 14.0347 3.19665C14.0827 3.56459 14.0827 3.95714 14.0827 4.30766L14.0827 4.99935C14.0827 5.41356 13.7469 5.74935 13.3327 5.74935C12.9185 5.74935 12.5827 5.41356 12.5827 4.99935V4.33268C12.5827 3.95198 12.5815 3.65241 12.5473 3.39084C12.5141 3.13604 12.4559 2.97899 12.3824 2.87265C12.2658 2.70394 11.9289 2.41602 10.666 2.41602H9.33268C8.06984 2.41602 7.73293 2.70394 7.61633 2.87265C7.54283 2.97899 7.48464 3.13604 7.45137 3.39084Z" fill="#737A92"/>
<path fill-rule="evenodd" clip-rule="evenodd" d="M9.08403 10.75C9.084 10.7762 9.084 10.8038 9.084 10.8333V11.6917C9.084 11.9278 9.08624 12.0916 9.10522 12.228C9.12326 12.3577 9.14987 12.4045 9.16047 12.4194C9.16057 12.4196 9.16033 12.4192 9.16047 12.4194C9.16466 12.4255 9.18827 12.4599 9.29511 12.4978C9.41911 12.5418 9.63621 12.5833 10.0007 12.5833C10.3669 12.5833 10.5844 12.5414 10.708 12.4971C10.8141 12.4591 10.837 12.4255 10.8412 12.4193C10.8413 12.4191 10.8411 12.4194 10.8412 12.4193C10.8521 12.4037 10.8791 12.3553 10.8969 12.2238C10.9156 12.0855 10.9173 11.9209 10.9173 11.6833V10.8333C10.9173 10.8038 10.9173 10.7762 10.9173 10.75C10.8912 10.75 10.8635 10.75 10.834 10.75H9.16733C9.13783 10.75 9.11014 10.75 9.08403 10.75ZM8.75445 10.7603C8.75444 10.7603 8.75479 10.7603 8.75552 10.7601ZM11.2469 10.7603C11.2469 10.7603 11.2465 10.7603 11.2458 10.7601ZM9.13703 9.25001C9.14717 9.25001 9.15727 9.25001 9.16733 9.25001H10.834C10.8441 9.25001 10.8542 9.25001 10.8643 9.25001C11.0457 9.24995 11.239 9.24989 11.3986 9.26762C11.5615 9.28573 11.8555 9.3359 12.0935 9.57385C12.3314 9.8118 12.3816 10.1058 12.3997 10.2688C12.4175 10.4283 12.4174 10.6216 12.4173 10.803C12.4173 10.8132 12.4173 10.8233 12.4173 10.8333L12.4173 11.6958C12.4173 11.9103 12.4174 12.1735 12.3833 12.4249C12.3477 12.688 12.2687 12.9958 12.0702 13.2792C11.6441 13.8876 10.9012 14.0833 10.0007 14.0833C9.1051 14.0833 8.36432 13.8902 7.93669 13.2868C7.73687 13.0049 7.65619 12.6981 7.61954 12.4348C7.584 12.1793 7.584 11.9122 7.584 11.6946V10.8333C7.584 10.8233 7.58399 10.8132 7.58399 10.803C7.58393 10.6216 7.58388 10.4283 7.6016 10.2688C7.61971 10.1058 7.66988 9.8118 7.90783 9.57385C8.14579 9.3359 8.43978 9.28573 8.60274 9.26762C8.7623 9.24989 8.95561 9.24995 9.13703 9.25001Z" fill="#737A92"/>
<path fill-rule="evenodd" clip-rule="evenodd" d="M18.6476 8.72494C18.8913 9.05993 18.8172 9.52899 18.4822 9.77262C16.4511 11.2498 14.1306 12.1283 11.7598 12.4269C11.3488 12.4786 10.9737 12.1874 10.922 11.7764C10.8702 11.3655 11.1614 10.9904 11.5724 10.9386C13.7016 10.6705 15.7811 9.88232 17.6 8.55952C17.935 8.31589 18.404 8.38995 18.6476 8.72494Z" fill="#737A92"/>
<path fill-rule="evenodd" clip-rule="evenodd" d="M1.56475 8.96806C1.79871 8.62625 2.26546 8.53881 2.60728 8.77276C4.38117 9.98689 6.38108 10.7184 8.41712 10.9463C8.82876 10.9924 9.1251 11.3635 9.07901 11.7751C9.03292 12.1868 8.66185 12.4831 8.25021 12.437C5.96959 12.1817 3.73616 11.3631 1.76005 10.0106C1.41824 9.77663 1.3308 9.30988 1.56475 8.96806Z" fill="#737A92"/>
</svg>
