<svg width="28" height="28" viewBox="0 0 28 28" fill="none" xmlns="http://www.w3.org/2000/svg">
<path fill-rule="evenodd" clip-rule="evenodd" d="M1.23223 1.23223C2.20854 0.255922 3.79146 0.255922 4.76777 1.23223L14 10.4645L23.2322 1.23223C24.2085 0.255922 25.7915 0.255922 26.7678 1.23223C27.7441 2.20854 27.7441 3.79146 26.7678 4.76777L17.5355 14L26.7678 23.2322C27.7441 24.2085 27.7441 25.7915 26.7678 26.7678C25.7915 27.7441 24.2085 27.7441 23.2322 26.7678L14 17.5355L4.76777 26.7678C3.79146 27.7441 2.20854 27.7441 1.23223 26.7678C0.255922 25.7915 0.255922 24.2085 1.23223 23.2322L10.4645 14L1.23223 4.76777C0.255922 3.79146 0.255922 2.20854 1.23223 1.23223Z" fill="#1A1A18" fill-opacity="0.5"/>
</svg>
