<svg width="20" height="20" viewBox="0 0 20 20" fill="none" xmlns="http://www.w3.org/2000/svg">
<path fill-rule="evenodd" clip-rule="evenodd" d="M9.56712 0.932953C10.4515 0.912216 11.3764 1.13653 12.1138 1.6527L17.2625 5.26016C17.2628 5.26036 17.2631 5.26056 17.2634 5.26077C17.8004 5.63531 18.2469 6.20755 18.5579 6.8034C18.8691 7.39962 19.0837 8.09408 19.0837 8.75046V14.8171C19.0837 17.1552 17.174 19.0755 14.8253 19.0755H5.17533C2.82547 19.0755 0.916992 17.154 0.916992 14.8088V8.63379C0.916992 8.01748 1.11098 7.35763 1.39159 6.78572C1.67229 6.21362 2.07598 5.65545 2.56457 5.27534C2.56467 5.27526 2.56448 5.27541 2.56457 5.27534L7.05601 1.77552C7.76824 1.22156 8.68274 0.95369 9.56712 0.932953ZM7.97745 2.95914C7.97739 2.95918 7.97751 2.95909 7.97745 2.95914L3.48631 6.45872C3.22504 6.66194 2.94914 7.01657 2.73823 7.44644C2.52717 7.87661 2.41699 8.30843 2.41699 8.63379V14.8088C2.41699 16.3302 3.65852 17.5755 5.17533 17.5755H14.8253C16.3433 17.5755 17.5837 16.3291 17.5837 14.8171V8.75046C17.5837 8.3985 17.4607 7.94296 17.2282 7.49752C16.9956 7.05202 16.6924 6.69122 16.4048 6.49076L16.4033 6.48969L11.2536 2.88155C11.2535 2.88148 11.2537 2.88161 11.2536 2.88155C10.8243 2.58116 10.2282 2.41787 9.60228 2.43254C8.97634 2.44722 8.39021 2.63818 7.97745 2.95914Z" fill="#282C38"/>
</svg>
