<svg width="20" height="20" viewBox="0 0 20 20" fill="none" xmlns="http://www.w3.org/2000/svg">
<path fill-rule="evenodd" clip-rule="evenodd" d="M9.44347 2.61363L8.11357 3.75115C7.90398 3.92581 7.64212 4.05896 7.39875 4.14855C7.15575 4.23801 6.86528 4.30827 6.5834 4.30827H5.14173C4.67261 4.30827 4.2834 4.69748 4.2834 5.1666V6.57493C4.2834 6.84925 4.21676 7.13548 4.12989 7.37738C4.04314 7.61894 3.91197 7.88386 3.73456 8.09674L3.73014 8.10205L2.60655 9.42533C2.35901 9.72118 2.35901 10.2454 2.60657 10.5412C2.60689 10.5416 2.6072 10.542 2.60751 10.5423L3.72858 11.8627C3.91254 12.077 4.04463 12.3473 4.13033 12.5873C4.21714 12.8303 4.2834 13.1181 4.2834 13.3916V14.8166C4.2834 15.2857 4.67261 15.6749 5.14173 15.6749H6.60006C6.87876 15.6749 7.1693 15.7457 7.41104 15.8342C7.65334 15.9229 7.91871 16.0559 8.1302 16.2321L8.1373 16.238L9.45826 17.3668C9.73845 17.6099 10.2651 17.6195 10.5735 17.3611L11.8949 16.2321C12.1045 16.0574 12.3663 15.9242 12.6097 15.8347C12.8527 15.7452 13.1432 15.6749 13.4251 15.6749H14.8417C15.3109 15.6749 15.7001 15.2857 15.7001 14.8166V13.3999C15.7001 13.1181 15.7703 12.8276 15.8598 12.5846C15.9494 12.3412 16.0826 12.0794 16.2572 11.8698L16.2631 11.8627L17.3919 10.5417C17.635 10.2616 17.6447 9.73496 17.3863 9.42654L16.2572 8.10511C16.0825 7.89551 15.9494 7.63366 15.8598 7.39029C15.7703 7.14729 15.7001 6.85681 15.7001 6.57493V5.15827C15.7001 4.68915 15.3108 4.29994 14.8417 4.29994H13.4251C13.144 4.29994 12.8522 4.23003 12.608 4.14113C12.364 4.05226 12.0983 3.91917 11.8866 3.74277L11.8795 3.73685L10.5585 2.60811C10.2784 2.36505 9.75191 2.35534 9.44347 2.61363ZM11.5392 1.47303C10.6864 0.735306 9.3327 0.745248 8.47504 1.46813L7.15077 2.60082C7.10898 2.63477 7.01363 2.69191 6.88055 2.7409C6.74438 2.79103 6.63485 2.80827 6.5834 2.80827H5.14173C3.84418 2.80827 2.7834 3.86905 2.7834 5.1666V6.57493C2.7834 6.62562 2.7667 6.73523 2.71816 6.87041C2.67022 7.00389 2.61486 7.09653 2.58365 7.13475L1.46168 8.45618L1.45928 8.45901C0.741437 9.313 0.741437 10.6535 1.45928 11.5075L2.58668 12.8354L2.59034 12.8396C2.6136 12.8666 2.66833 12.9535 2.71772 13.0918C2.76632 13.2279 2.7834 13.3401 2.7834 13.3916V14.8166C2.7834 16.1142 3.84419 17.1749 5.14173 17.1749H6.60006C6.64637 17.1749 6.75583 17.1917 6.89534 17.2428C7.03155 17.2926 7.12757 17.35 7.16758 17.3825L8.47522 18.4998C8.47605 18.5005 8.47687 18.5012 8.47771 18.5019C9.33053 19.2396 10.6841 19.2296 11.5418 18.5067L12.8576 17.3825C12.8993 17.3485 12.9947 17.2913 13.1279 17.2423C13.2641 17.1922 13.3736 17.1749 13.4251 17.1749H14.8417C16.1393 17.1749 17.2001 16.1142 17.2001 14.8166V13.3999C17.2001 13.3485 17.2173 13.239 17.2674 13.1028C17.3165 12.9696 17.3737 12.8742 17.4076 12.8325L18.5249 11.5248C18.5256 11.524 18.5263 11.5231 18.527 11.5223C19.2647 10.6695 19.2547 9.31589 18.5319 8.45825L17.4076 7.14241C17.3737 7.10067 17.3165 7.00527 17.2674 6.87208C17.2173 6.73592 17.2001 6.62639 17.2001 6.57493V5.15827C17.2001 3.86072 16.1393 2.79994 14.8417 2.79994H13.4251C13.3728 2.79994 13.2604 2.78234 13.1213 2.73166C12.9847 2.68194 12.889 2.62466 12.8492 2.59235L11.5392 1.47303Z" fill="#737A92"/>
<path fill-rule="evenodd" clip-rule="evenodd" d="M10 6.02539C10.4142 6.02539 10.75 6.36118 10.75 6.77539V10.8004C10.75 11.2146 10.4142 11.5504 10 11.5504C9.58579 11.5504 9.25 11.2146 9.25 10.8004V6.77539C9.25 6.36118 9.58579 6.02539 10 6.02539Z" fill="#737A92"/>
<path fill-rule="evenodd" clip-rule="evenodd" d="M8.99561 13.333C8.99561 12.7807 9.44332 12.333 9.99561 12.333H10.0031C10.5554 12.333 11.0031 12.7807 11.0031 13.333C11.0031 13.8853 10.5554 14.333 10.0031 14.333H9.99561C9.44332 14.333 8.99561 13.8853 8.99561 13.333Z" fill="#737A92"/>
</svg>
