<svg width="14" height="11" viewBox="0 0 14 11" fill="none" xmlns="http://www.w3.org/2000/svg">
<path d="M2.1 1.375C1.81787 1.375 1.57473 1.53892 1.46392 1.77508L6.57024 5.67575C6.82302 5.86884 7.17698 5.86884 7.42976 5.67574L12.5361 1.77508C12.4253 1.53892 12.1821 1.375 11.9 1.375H2.1Z" fill="white"/>
<path d="M1.45803 9.21201C1.56593 9.45509 1.81276 9.625 2.1 9.625H11.9C12.1872 9.625 12.4341 9.45509 12.542 9.21201L8.94003 6.264L8.28928 6.7611C7.53094 7.34038 6.46906 7.34039 5.71073 6.76111L5.05997 6.264L1.45803 9.21201Z" fill="white"/>
<path d="M12.6 7.46966V3.46819L10.0712 5.39993L12.6 7.46966Z" fill="white"/>
<path d="M1.4 3.46819V7.46966L3.92883 5.39993L1.4 3.46819Z" fill="white"/>
</svg>
