<svg width="20" height="20" viewBox="0 0 20 20" fill="none" xmlns="http://www.w3.org/2000/svg">
<path d="M10.718 6.38159C10.3165 6.27977 9.90847 6.52271 9.80664 6.92421C9.70482 7.32571 9.94775 7.73374 10.3493 7.83556L11.5537 8.14103L14.3909 8.86056C14.7924 8.96239 15.2005 8.71945 15.3023 8.31795C15.4041 7.91644 15.1612 7.50842 14.7597 7.40659L11.8974 6.6807L10.718 6.38159Z" fill="#737A92"/>
<path d="M8.99002 10.1477C9.09243 9.7464 9.50082 9.50406 9.90217 9.60647L12.3188 10.2231C12.7202 10.3256 12.9625 10.7339 12.8601 11.1353C12.7577 11.5366 12.3493 11.779 11.948 11.6766L9.53129 11.0599C9.12994 10.9575 8.8876 10.5491 8.99002 10.1477Z" fill="#737A92"/>
<path fill-rule="evenodd" clip-rule="evenodd" d="M6.99695 3.59305C7.53968 2.6221 8.2832 1.93429 9.28568 1.58832C10.3634 1.21639 11.6362 1.27694 13.0884 1.6203L13.0894 1.62055L14.4793 1.94512C16.2974 2.37035 17.675 3.07203 18.4322 4.29251C19.1895 5.513 19.2056 7.0578 18.7803 8.87161L17.9638 12.3543C17.5986 13.9234 17.0271 15.1626 16.092 15.963C15.1909 16.7341 14.0595 17.0087 12.7421 16.9263C12.1942 17.2609 11.5515 17.5341 10.8253 17.7711L9.50523 18.2055C7.78139 18.7613 6.28069 18.8715 5.03346 18.2333C3.78649 17.5953 2.9968 16.3136 2.43679 14.5901L1.3696 11.2968C0.814021 9.57367 0.701624 8.07144 1.33689 6.82335C1.9725 5.57461 3.25228 4.78468 4.97608 4.22858L6.29839 3.79339C6.53022 3.71988 6.76413 3.65071 6.99695 3.59305ZM8.17537 4.57687C8.59618 3.70646 9.11913 3.23261 9.77502 3.00626C10.4658 2.76786 11.4135 2.76552 12.7442 3.08028L12.7462 3.08076L14.1379 3.40576C15.8113 3.7972 16.7128 4.36634 17.1576 5.08332C17.6025 5.80033 17.7114 6.85969 17.3199 8.52922L16.503 12.0138C16.1682 13.4527 15.698 14.3258 15.1167 14.8233C14.5638 15.2964 13.8 15.522 12.6416 15.414C12.6311 15.4127 12.6205 15.4116 12.6099 15.4107C12.2389 15.3811 11.8281 15.3134 11.3761 15.2043L9.97332 14.8703C8.5 14.5 7.4066 13.9059 6.96115 13.1887C6.96031 13.1874 6.95947 13.1862 6.95863 13.1849C6.51587 12.4686 6.40665 11.4116 6.7971 9.74622L7.61364 6.25508C7.77299 5.57797 7.95712 5.02072 8.17317 4.58141L8.17537 4.57687ZM6.28955 5.37922L6.29052 5.37513L5.43857 5.65552C3.85514 6.16605 3.0399 6.7843 2.67369 7.50378C2.30691 8.22436 2.28615 9.25115 2.79706 10.836L3.86337 14.1266C4.37836 15.7115 4.99701 16.5297 5.7167 16.898C6.43583 17.2659 7.45955 17.2887 9.04287 16.7785L9.04494 16.7779L10.0786 16.4377L9.62643 16.33C7.81759 15.9005 6.44356 15.1986 5.68699 13.9805C4.92982 12.7614 4.91115 11.2189 5.33661 9.40422L6.15341 5.91197C6.19614 5.73039 6.24139 5.55263 6.28955 5.37922Z" fill="#737A92"/>
</svg>
