<svg width="16" height="13" viewBox="0 0 16 13" fill="none" xmlns="http://www.w3.org/2000/svg">
<path fill-rule="evenodd" clip-rule="evenodd" d="M5.15189 2.18211L5.15222 2.18258ZM5.17342 2.21967L6.17705 3.97627C6.05577 4.10275 5.92348 4.22802 5.78111 4.36285C5.65875 4.47873 5.52894 4.60166 5.39227 4.73847C5.05353 5.07756 4.9881 5.62292 5.20733 6.04734C6.36663 8.29166 7.94784 9.31289 8.65536 9.67955C9.0816 9.90043 9.5447 9.72612 9.80251 9.36514L10.497 8.39269V8.39269C10.497 8.39269 10.4976 8.39215 10.4986 8.39194C10.4997 8.39174 10.5016 8.39194 10.5016 8.39194C10.5016 8.39194 10.5031 8.39233 10.5046 8.39332C10.9093 8.66806 11.4739 9.04144 11.9925 9.35755C11.8993 9.97612 11.6854 10.3365 11.4495 10.5568C11.2018 10.7881 10.8814 10.9098 10.5241 10.9538C9.81067 11.0415 9.08642 10.8035 8.92579 10.7455C8.74855 10.6458 7.77678 10.0831 6.73859 9.17131C5.66804 8.2311 4.59459 6.97807 4.18404 5.54095C3.884 4.49066 3.99714 3.75158 4.23296 3.24177C4.46094 2.74894 4.82986 2.41444 5.17342 2.21967ZM4.81036 1.18003C5.28332 0.933273 5.77238 1.19055 6.00019 1.58926L7.05013 3.42693C7.26239 3.79844 7.27694 4.34153 6.93187 4.71357C6.78398 4.87302 6.57822 5.06899 6.38676 5.25135C6.28166 5.35145 6.18086 5.44745 6.09631 5.53106C7.09407 7.44218 8.428 8.32637 9.0347 8.64968L9.71007 7.70403C10.0289 7.25756 10.5967 7.15321 11.029 7.44673C11.429 7.71826 11.9819 8.08371 12.483 8.38887C12.8172 8.59239 13.0562 9.01667 12.9885 9.4957C12.8668 10.356 12.5491 10.9827 12.0963 11.4055C11.6511 11.8213 11.1207 11.9977 10.6349 12.0574C9.67926 12.175 8.76525 11.8567 8.59834 11.7952C8.55608 11.7796 8.52102 11.7632 8.48332 11.7421C8.30413 11.642 7.24815 11.0363 6.11508 10.0412C4.9938 9.05643 3.72925 7.63191 3.22757 5.87576C2.85906 4.58578 2.96807 3.53983 3.34006 2.73567C3.70552 1.9456 4.29738 1.44767 4.81036 1.18003Z" fill="white"/>
<path d="M5.17342 2.21967L6.17705 3.97627C6.05577 4.10275 5.92348 4.22802 5.78111 4.36285C5.65875 4.47873 5.52894 4.60166 5.39227 4.73847C5.05353 5.07756 4.9881 5.62292 5.20733 6.04734C6.36663 8.29166 7.94784 9.31289 8.65536 9.67955C9.0816 9.90043 9.5447 9.72612 9.80251 9.36514L10.497 8.39269V8.39269C10.497 8.39269 10.4976 8.39215 10.4986 8.39194C10.4997 8.39174 10.5016 8.39194 10.5016 8.39194C10.5016 8.39194 10.5031 8.39233 10.5046 8.39332C10.9093 8.66806 11.4739 9.04144 11.9925 9.35755C11.8993 9.97612 11.6854 10.3365 11.4495 10.5568C11.2018 10.7881 10.8814 10.9098 10.5241 10.9538C9.81067 11.0415 9.08642 10.8035 8.92579 10.7455C8.74855 10.6458 7.77678 10.0831 6.73859 9.17131C5.66804 8.2311 4.59459 6.97807 4.18404 5.54095C3.884 4.49066 3.99714 3.75158 4.23296 3.24177C4.46094 2.74894 4.82986 2.41444 5.17342 2.21967Z" fill="white"/>
</svg>
