<svg width="20" height="20" viewBox="0 0 20 20" fill="none" xmlns="http://www.w3.org/2000/svg">
<path fill-rule="evenodd" clip-rule="evenodd" d="M7.4998 2.41699C5.86512 2.41699 4.5498 3.73844 4.5498 5.36699C4.5498 6.95038 5.78448 8.23459 7.34415 8.30751C7.4438 8.3009 7.54869 8.30055 7.64883 8.30743C9.20667 8.23368 10.4424 6.9505 10.4498 5.36547C10.449 3.73871 9.12675 2.41699 7.4998 2.41699ZM3.0498 5.36699C3.0498 2.91221 5.03449 0.916992 7.4998 0.916992C9.95568 0.916992 11.9498 2.91111 11.9498 5.36699L11.9498 5.37012C11.9398 7.77051 10.0474 9.72793 7.65833 9.80824C7.62502 9.80936 7.59167 9.80825 7.55851 9.80494C7.52695 9.80178 7.4749 9.80114 7.42604 9.80558C7.39509 9.80839 7.364 9.80928 7.33294 9.80824C4.9444 9.72795 3.0498 7.77037 3.0498 5.36699Z" fill="#737A92"/>
<path fill-rule="evenodd" clip-rule="evenodd" d="M12.9253 3.33398C12.9253 2.91977 13.2611 2.58398 13.6753 2.58398C15.7076 2.58398 17.342 4.2295 17.342 6.25065C17.342 8.23111 15.7709 9.84345 13.8117 9.91679C13.7712 9.91831 13.7308 9.91655 13.6906 9.91153L13.6906 9.91153C13.6906 9.91153 13.6864 9.91107 13.6784 9.91107C13.6702 9.91107 13.6603 9.91156 13.6498 9.91273C13.2381 9.95847 12.8673 9.66182 12.8215 9.25014C12.7758 8.83846 13.0725 8.46765 13.4841 8.42191C13.5866 8.41052 13.6944 8.40757 13.8017 8.41563C14.9376 8.34908 15.842 7.40463 15.842 6.25065C15.842 5.05513 14.8763 4.08398 13.6753 4.08398C13.2611 4.08398 12.9253 3.7482 12.9253 3.33398Z" fill="#737A92"/>
<path fill-rule="evenodd" clip-rule="evenodd" d="M7.64368 10.2402C9.26913 10.2402 10.9331 10.6478 12.2242 11.5099C13.3888 12.2849 14.0708 13.3824 14.0708 14.5767C14.0708 15.7707 13.3892 16.8699 12.2255 17.6489L12.2253 17.649C10.9303 18.5155 9.26402 18.9257 7.63743 18.9257C6.01124 18.9257 4.34537 18.5157 3.05045 17.6496C1.88598 16.8746 1.2041 15.7772 1.2041 14.5829C1.2041 13.3889 1.88571 12.2897 3.04939 11.5107L3.05214 11.5089L3.05215 11.5089C4.35058 10.648 6.01775 10.2402 7.64368 10.2402ZM3.88244 12.7582C3.03047 13.329 2.7041 14.0044 2.7041 14.5829C2.7041 15.1614 3.03027 15.8346 3.88203 16.4012L3.88367 16.4023C4.88029 17.0691 6.23902 17.4257 7.63743 17.4257C9.03579 17.4257 10.3945 17.0692 11.3911 16.4024C12.244 15.8314 12.5708 15.1556 12.5708 14.5767C12.5708 13.9983 12.2446 13.3251 11.3928 12.7584L11.3917 12.7577C10.3996 12.0951 9.04298 11.7402 7.64368 11.7402C6.24527 11.7402 4.88388 12.0947 3.88244 12.7582Z" fill="#737A92"/>
<path fill-rule="evenodd" clip-rule="evenodd" d="M14.5767 11.5023C14.6678 11.0982 15.0692 10.8444 15.4732 10.9355C16.1443 11.0867 16.8074 11.3574 17.3693 11.7858C18.1804 12.3952 18.6417 13.2512 18.6417 14.163C18.6417 15.0745 18.1807 15.9302 17.3701 16.5396C16.802 16.9749 16.1287 17.2571 15.4363 17.4014C15.0308 17.4859 14.6336 17.2256 14.5491 16.8201C14.4646 16.4146 14.7249 16.0174 15.1304 15.9329C15.6367 15.8274 16.0954 15.6272 16.4599 15.3473L16.4667 15.3421L16.4667 15.3422C16.954 14.9767 17.1417 14.5419 17.1417 14.163C17.1417 13.7841 16.954 13.3493 16.4667 12.9838L16.4615 12.9799L16.4615 12.9799C16.1073 12.7094 15.6547 12.514 15.1435 12.3988C14.7394 12.3077 14.4856 11.9064 14.5767 11.5023Z" fill="#737A92"/>
</svg>
