<svg width="60" height="60" viewBox="0 0 60 60" fill="none" xmlns="http://www.w3.org/2000/svg">
<path fill-rule="evenodd" clip-rule="evenodd" d="M28.7859 7.81461C29.5409 7.39513 30.459 7.39513 31.2141 7.81461L53.7141 20.3146C54.7099 20.8678 55.2058 22.0243 54.9201 23.1271C54.6343 24.2299 53.6392 25 52.5 25H50V47.5H52.5C53.8807 47.5 55 48.6193 55 50C55 51.3807 53.8807 52.5 52.5 52.5H7.49999C6.11928 52.5 4.99999 51.3807 4.99999 50C4.99999 48.6193 6.11928 47.5 7.49999 47.5H9.99999V25H7.49999C6.3608 25 5.36568 24.2299 5.07992 23.1271C4.79416 22.0243 5.29005 20.8678 6.28588 20.3146L28.7859 7.81461ZM15 47.5H21.25V25H15V47.5ZM26.25 47.5H33.75V25H26.25V47.5ZM38.75 47.5H45V25H38.75V47.5ZM42.8522 20H36.25H23.75H17.1478L30 12.8599L42.8522 20Z" fill="#1A1A18"/>
</svg>
