<svg width="60" height="60" viewBox="0 0 60 60" fill="none" xmlns="http://www.w3.org/2000/svg">
<path fill-rule="evenodd" clip-rule="evenodd" d="M50 5C51.3807 5 52.5 6.11929 52.5 7.5V52.5C52.5 53.8807 51.3807 55 50 55C48.6193 55 47.5 53.8807 47.5 52.5V10H32.5V30V52.5C32.5 53.8807 31.3807 55 30 55C28.6193 55 27.5 53.8807 27.5 52.5V32.5H12.5V52.5C12.5 53.8807 11.3807 55 10 55C8.61929 55 7.5 53.8807 7.5 52.5V30C7.5 28.6193 8.61929 27.5 10 27.5H27.5V7.5C27.5 6.11929 28.6193 5 30 5H50ZM41.25 15C42.6307 15 43.75 16.1193 43.75 17.5V20C43.75 21.3807 42.6307 22.5 41.25 22.5H38.75C37.3693 22.5 36.25 21.3807 36.25 20V17.5C36.25 16.1193 37.3693 15 38.75 15H41.25ZM43.75 30C43.75 28.6193 42.6307 27.5 41.25 27.5H38.75C37.3693 27.5 36.25 28.6193 36.25 30V32.5C36.25 33.8807 37.3693 35 38.75 35H41.25C42.6307 35 43.75 33.8807 43.75 32.5V30ZM41.25 40C42.6307 40 43.75 41.1193 43.75 42.5V45C43.75 46.3807 42.6307 47.5 41.25 47.5H38.75C37.3693 47.5 36.25 46.3807 36.25 45V42.5C36.25 41.1193 37.3693 40 38.75 40H41.25ZM21.25 37.5C22.6307 37.5 23.75 38.6193 23.75 40V42.5C23.75 43.8807 22.6307 45 21.25 45H18.75C17.3693 45 16.25 43.8807 16.25 42.5V40C16.25 38.6193 17.3693 37.5 18.75 37.5H21.25Z" fill="#1A1A18"/>
</svg>
