<svg width="60" height="60" viewBox="0 0 60 60" fill="none" xmlns="http://www.w3.org/2000/svg">
<path fill-rule="evenodd" clip-rule="evenodd" d="M10.8925 28.9537C10.6519 29.3501 10.452 29.7033 10.2917 30C10.452 30.2967 10.6519 30.6499 10.8925 31.0463C11.6742 32.3338 12.8714 34.0521 14.5228 35.7647C17.8143 39.1781 22.8287 42.5 30 42.5C37.1713 42.5 42.1857 39.1781 45.4772 35.7647C47.1286 34.0521 48.3258 32.3338 49.1075 31.0463C49.3481 30.6499 49.548 30.2967 49.7083 30C49.548 29.7033 49.3481 29.3501 49.1075 28.9537C48.3258 27.6662 47.1286 25.9479 45.4772 24.2353C42.1857 20.8219 37.1713 17.5 30 17.5C22.8287 17.5 17.8143 20.8219 14.5228 24.2353C12.8714 25.9479 11.6742 27.6662 10.8925 28.9537ZM54.7969 30.987C54.7974 30.9859 54.7979 30.9848 52.5 30L54.7979 30.9848C55.0674 30.3559 55.0674 29.6441 54.7979 29.0152L52.5 30C54.7979 29.0152 54.7974 29.0141 54.7969 29.013L54.7958 29.0104L54.7932 29.0043L54.786 28.9879L54.7644 28.9389C54.7467 28.8992 54.7224 28.8455 54.6914 28.7788C54.6294 28.6453 54.5405 28.4593 54.4239 28.2283C54.1908 27.7668 53.8456 27.1234 53.3814 26.3588C52.4555 24.8338 51.0411 22.8021 49.0764 20.7647C45.1358 16.6781 38.9002 12.5 30 12.5C21.0999 12.5 14.8642 16.6781 10.9236 20.7647C8.95891 22.8021 7.5445 24.8338 6.61861 26.3588C6.15437 27.1234 5.80924 27.7668 5.57612 28.2283C5.45947 28.4593 5.37058 28.6453 5.3086 28.7788C5.2776 28.8455 5.2533 28.8992 5.2356 28.9389L5.21397 28.9879L5.20683 29.0043L5.20418 29.0104L5.20308 29.013C5.2026 29.0141 5.20214 29.0152 7.49991 30L5.20214 29.0152C4.93262 29.6441 4.93262 30.3559 5.20214 30.9848L7.49991 30C5.20214 30.9848 5.2026 30.9859 5.20308 30.987L5.20418 30.9896L5.20683 30.9957L5.21397 31.0121L5.2356 31.0611C5.2533 31.1008 5.2776 31.1545 5.3086 31.2212C5.37058 31.3547 5.45947 31.5407 5.57612 31.7717C5.80924 32.2332 6.15437 32.8766 6.61861 33.6412C7.5445 35.1662 8.95891 37.1979 10.9236 39.2353C14.8642 43.3219 21.0999 47.5 30 47.5C38.9002 47.5 45.1358 43.3219 49.0764 39.2353C51.0411 37.1979 52.4555 35.1662 53.3814 33.6412C53.8456 32.8766 54.1908 32.2332 54.4239 31.7717C54.5405 31.5407 54.6294 31.3547 54.6914 31.2212C54.7224 31.1545 54.7467 31.1008 54.7644 31.0611L54.786 31.0121L54.7932 30.9957L54.7958 30.9896L54.7969 30.987ZM30 35C27.2386 35 25 32.7614 25 30C25 27.2386 27.2386 25 30 25C32.7614 25 35 27.2386 35 30C35 32.7614 32.7614 35 30 35ZM20 30C20 24.4772 24.4772 20 30 20C35.5228 20 40 24.4772 40 30C40 35.5228 35.5228 40 30 40C24.4772 40 20 35.5228 20 30Z" fill="#1A1A18"/>
</svg>
