<svg width="60" height="60" viewBox="0 0 60 60" fill="none" xmlns="http://www.w3.org/2000/svg">
<path fill-rule="evenodd" clip-rule="evenodd" d="M7.5 5C6.11929 5 5 6.11929 5 7.5V22.0588V52.5C5 53.8807 6.11929 55 7.5 55H52.5C53.8807 55 55 53.8807 55 52.5V32.3529V20.4412C55 19.5615 54.5376 18.7465 53.7825 18.2952C53.0274 17.8439 52.0906 17.8227 51.3159 18.2394L37.5 25.6698V20.4412C37.5 19.5615 37.0376 18.7465 36.2825 18.2952C35.5274 17.8439 34.5906 17.8227 33.8159 18.2394L20 25.6698V7.5C20 6.11929 18.8807 5 17.5 5H7.5ZM10 22.0588V10H15V29.8529C15 30.7327 15.4624 31.5476 16.2175 31.9989C16.9726 32.4502 17.9094 32.4714 18.6841 32.0547L32.5 24.6243V29.8529C32.5 30.7327 32.9624 31.5476 33.7175 31.9989C34.4726 32.4502 35.4094 32.4714 36.1841 32.0547L50 24.6243V32.3529V50H10V22.0588ZM22.5 38.75C22.5 37.3693 21.3807 36.25 20 36.25C18.6193 36.25 17.5 37.3693 17.5 38.75V43.75C17.5 45.1307 18.6193 46.25 20 46.25C21.3807 46.25 22.5 45.1307 22.5 43.75V38.75ZM30 36.25C31.3807 36.25 32.5 37.3693 32.5 38.75V43.75C32.5 45.1307 31.3807 46.25 30 46.25C28.6193 46.25 27.5 45.1307 27.5 43.75V38.75C27.5 37.3693 28.6193 36.25 30 36.25ZM42.5 38.75C42.5 37.3693 41.3807 36.25 40 36.25C38.6193 36.25 37.5 37.3693 37.5 38.75V43.75C37.5 45.1307 38.6193 46.25 40 46.25C41.3807 46.25 42.5 45.1307 42.5 43.75V38.75Z" fill="#1A1A18"/>
</svg>
