<svg width="54" height="54" viewBox="0 0 54 54" fill="none" xmlns="http://www.w3.org/2000/svg">
<path fill-rule="evenodd" clip-rule="evenodd" d="M27 4.5C16.2689 4.5 9.96079 12.4996 9.10121 20.5992C6.42679 21.4967 4.5 24.0233 4.5 27V31.5C4.5 35.2279 7.52208 38.25 11.25 38.25C14.9779 38.25 18 35.2279 18 31.5V27C18 24.339 16.4602 22.0376 14.223 20.9383C14.8173 15.1294 18.7457 9 27 9C35.2543 9 39.1827 15.1294 39.777 20.9383C37.5398 22.0376 36 24.339 36 27V31.5C36 33.4991 36.8691 35.2953 38.25 36.5312V39.6458C38.25 42.6029 35.8529 45 32.8958 45H31.5C30.2574 45 29.25 46.0074 29.25 47.25C29.25 48.4926 30.2574 49.5 31.5 49.5H32.8958C38.3381 49.5 42.75 45.0881 42.75 39.6458V38.25C46.4779 38.25 49.5 35.2279 49.5 31.5V27C49.5 24.0233 47.5732 21.4967 44.8988 20.5992C44.0392 12.4996 37.7311 4.5 27 4.5ZM13.5 27C13.5 25.7574 12.4926 24.75 11.25 24.75C10.0074 24.75 9 25.7574 9 27V31.5C9 32.7426 10.0074 33.75 11.25 33.75C12.4926 33.75 13.5 32.7426 13.5 31.5V27ZM42.75 24.75C43.9926 24.75 45 25.7574 45 27V31.5C45 32.7426 43.9926 33.75 42.75 33.75C41.5074 33.75 40.5 32.7426 40.5 31.5V27C40.5 25.7574 41.5074 24.75 42.75 24.75Z" fill="#C2C7CF"/>
</svg>
