<svg width="54" height="54" viewBox="0 0 54 54" fill="none" xmlns="http://www.w3.org/2000/svg">
<path fill-rule="evenodd" clip-rule="evenodd" d="M24.75 11.9081L10.5011 16.9371C9.60154 17.2546 8.99996 18.1049 8.99996 19.0588V35.9355L5.84854 37.3135C4.70998 37.8113 4.19058 39.1379 4.68842 40.2764C5.18626 41.415 6.51282 41.9344 7.65138 41.4365L11.0166 39.9651L26.0419 47.0358C26.6487 47.3214 27.3512 47.3214 27.958 47.0358L42.9834 39.9651L46.3485 41.4365C47.4871 41.9344 48.8137 41.415 49.3115 40.2764C49.8093 39.1379 49.2899 37.8113 48.1514 37.3135L45 35.9355V19.0588C45 18.1049 44.3984 17.2546 43.4988 16.9371L29.25 11.9081V9C29.25 7.75736 28.2426 6.75 27 6.75C25.7573 6.75 24.75 7.75736 24.75 9V11.9081ZM27 23.4375L17.1879 19.3491L26.2511 16.1503C26.7357 15.9793 27.2642 15.9793 27.7488 16.1503L36.8121 19.3491L27 23.4375ZM29.25 27.375L40.5 22.6875V36.1604L29.25 41.4545V27.375ZM24.75 27.375L13.5 22.6875V36.1604L24.75 41.4545V27.375Z" fill="#C2C7CF"/>
</svg>
