<svg width="60" height="60" viewBox="0 0 60 60" fill="none" xmlns="http://www.w3.org/2000/svg">
<path fill-rule="evenodd" clip-rule="evenodd" d="M38.8697 5.3731C37.6669 4.65922 36.0789 5.0012 35.3228 6.13695L30.0006 14.1317L24.6786 6.13671C23.9225 5.00095 22.3345 4.65893 21.1316 5.3728C19.9288 6.08666 19.5665 7.58607 20.3226 8.72183L24.4623 14.9407H12.5C9.73858 14.9407 7.5 17.1826 7.5 19.9481V24.9555C7.5 26.809 8.5055 28.4272 10 29.293V29.9629V47.4889C10 51.6372 13.3579 55 17.5 55H42.5C46.6421 55 50 51.6372 50 47.4889V29.9629V29.293C51.4945 28.4272 52.5 26.809 52.5 24.9555V19.9481C52.5 17.1826 50.2614 14.9407 47.5 14.9407H35.539L39.6787 8.72216C40.4348 7.58641 40.0726 6.08699 38.8697 5.3731ZM12.5 24.9555H15H17.5H27.5V19.9481H17.5H12.5V24.9555ZM32.5 19.9481V24.9555H42.5H45H47.5V19.9481H42.5H32.5ZM27.5 29.9629H20H15V34.9703V47.4889C15 48.8716 16.1193 49.9926 17.5 49.9926H27.5V29.9629ZM32.5 49.9926V29.9629H40H45V34.9703V47.4889C45 48.8716 43.8807 49.9926 42.5 49.9926H32.5Z" fill="#1A1A18"/>
</svg>
