<svg width="32" height="32" viewBox="0 0 32 32" fill="none" xmlns="http://www.w3.org/2000/svg">
<path fill-rule="evenodd" clip-rule="evenodd" d="M5.52704 14.6667C6.1008 12.739 7.8866 11.3333 10.0006 11.3334C12.1192 11.3335 13.908 12.7453 14.4776 14.6794C14.5395 14.6706 14.6027 14.666 14.6671 14.666L28.0004 14.6667C28.7368 14.6667 29.3337 15.2637 29.3337 16.0001C29.3336 16.7365 28.7366 17.3334 28.0003 17.3333L14.6669 17.3327C14.6028 17.3327 14.5397 17.3282 14.478 17.3194C13.9088 19.2544 12.1194 20.6669 10.0002 20.6668C7.88622 20.6667 6.10061 19.261 5.52697 17.3333L4.00026 17.3333C3.26388 17.3332 2.66696 16.7362 2.66699 15.9999C2.66703 15.2635 3.26401 14.6665 4.00039 14.6666L5.52704 14.6667ZM10.0003 18.0001C8.89576 18.0001 8.00037 17.1046 8.00042 16C8.00048 14.8954 8.89595 14.0001 10.0005 14.0001C11.1051 14.0002 12.0005 14.8956 12.0004 16.0002C12.0004 17.1048 11.1049 18.0002 10.0003 18.0001ZM22.0007 11.9999C24.1147 12 25.9005 10.5944 26.4743 8.6667L28.0009 8.66677C28.7373 8.66681 29.3343 8.06989 29.3343 7.3335C29.3343 6.59712 28.7374 6.00014 28.001 6.00011L26.4743 6.00003C25.9007 4.0724 24.1151 2.66668 22.0011 2.66658C19.8819 2.66648 18.0925 4.079 17.5233 6.01395C17.4616 6.00519 17.3985 6.00065 17.3344 6.00065L4.00104 6.00002C3.26466 5.99998 2.66768 6.5969 2.66764 7.33328C2.66761 8.06966 3.26453 8.66664 4.00091 8.66668L17.3342 8.66732C17.3986 8.66732 17.4618 8.66276 17.5237 8.65396C18.0934 10.588 19.8821 11.9998 22.0007 11.9999ZM22.001 5.33325C23.1055 5.3333 24.0009 6.22878 24.0009 7.33335C24.0008 8.43791 23.1054 9.3333 22.0008 9.33325C20.8962 9.3332 20.0008 8.43772 20.0009 7.33315C20.0009 6.22859 20.8964 5.3332 22.001 5.33325ZM26.474 25.9998C25.9003 27.9276 24.1144 29.3334 22.0002 29.3333C19.8815 29.3331 18.0927 27.9213 17.5231 25.9871C17.4613 25.9958 17.3981 26.0004 17.3339 26.0004L4.00059 25.9998C3.26421 25.9997 2.66728 25.4027 2.66732 24.6664C2.66735 23.93 3.26434 23.3331 4.00072 23.3331L17.3341 23.3337C17.3981 23.3337 17.4611 23.3382 17.5228 23.347C18.092 21.4121 19.8814 19.9996 22.0006 19.9997C24.1147 19.9998 25.9003 21.4055 26.474 23.3331L28.0007 23.3332C28.7371 23.3332 29.334 23.9302 29.334 24.6666C29.334 25.403 28.737 25.9999 28.0006 25.9998L26.474 25.9998ZM24.0006 24.6665C24.0006 23.5619 23.1052 22.6664 22.0005 22.6663C20.8959 22.6663 20.0003 23.5617 20.0003 24.6664C20.0002 25.771 20.8957 26.6665 22.0003 26.6666C23.105 26.6666 24.0005 25.7712 24.0006 24.6665Z" fill="white"/>
<path d="M22.0005 22.6663C23.1052 22.6664 24.0006 23.5619 24.0006 24.6665C24.0005 25.7712 23.105 26.6666 22.0003 26.6666C20.8957 26.6665 20.0002 25.771 20.0003 24.6664C20.0003 23.5617 20.8959 22.6663 22.0005 22.6663Z" fill="white"/>
<path d="M8.00042 16C8.00037 17.1046 8.89576 18.0001 10.0003 18.0001C11.1049 18.0002 12.0004 17.1048 12.0004 16.0002C12.0005 14.8956 11.1051 14.0002 10.0005 14.0001C8.89595 14.0001 8.00048 14.8954 8.00042 16Z" fill="white"/>
<path d="M24.0009 7.33335C24.0009 6.22878 23.1055 5.3333 22.001 5.33325C20.8964 5.3332 20.0009 6.22859 20.0009 7.33315C20.0008 8.43772 20.8962 9.3332 22.0008 9.33325C23.1054 9.3333 24.0008 8.43791 24.0009 7.33335Z" fill="white"/>
</svg>
