<svg width="22" height="22" viewBox="0 0 22 22" fill="none" xmlns="http://www.w3.org/2000/svg">
<path fill-rule="evenodd" clip-rule="evenodd" d="M11 3.66602C11.3016 3.66602 11.584 3.81441 11.755 4.06286L15.1027 8.92523C16.0127 10.247 16.5 11.814 16.5 13.4187C16.5 16.1326 14.3 18.3327 11.5861 18.3327H10.4139C7.70004 18.3327 5.5 16.1326 5.5 13.4187C5.5 11.814 5.98726 10.247 6.89729 8.92523L10.245 4.06286C10.416 3.81441 10.6984 3.66602 11 3.66602ZM11 6.19915L8.40734 9.96488C7.70785 10.9809 7.33333 12.1853 7.33333 13.4187C7.33333 15.1201 8.71257 16.4993 10.4139 16.4993H11.5861C13.2874 16.4993 14.6667 15.1201 14.6667 13.4187C14.6667 12.1853 14.2921 10.9809 13.5927 9.96488L11 6.19915Z" fill="#969CA6"/>
<path d="M8.40734 9.96488L11 6.19915L13.5927 9.96488C14.2921 10.9809 14.6667 12.1853 14.6667 13.4187C14.6667 15.1201 13.2874 16.4993 11.5861 16.4993H10.4139C8.71257 16.4993 7.33333 15.1201 7.33333 13.4187C7.33333 12.1853 7.70785 10.9809 8.40734 9.96488Z" fill="#969CA6"/>
</svg>
