<svg width="100" height="100" viewBox="0 0 100 100" fill="none" xmlns="http://www.w3.org/2000/svg">
<path fill-rule="evenodd" clip-rule="evenodd" d="M20.5312 82.3149L20.5303 82.3158L20.5634 82.3439C21.348 83.0098 22.3641 83.3605 23.4034 83.3313C24.4427 83.3021 25.4363 82.8948 26.1795 82.185C26.9235 81.4745 27.3604 80.5136 27.3917 79.4972C27.423 78.4807 27.046 77.496 26.3461 76.7438L26.347 76.7429L26.3158 76.7131C20.0511 70.7274 16.5374 62.6169 16.5374 54.1663C16.5374 45.7158 20.0511 37.6053 26.3158 31.6196L26.3167 31.6205L26.3461 31.5889C27.046 30.8367 27.423 29.852 27.3917 28.8355C27.3604 27.8191 26.9235 26.8582 26.1795 26.1476C25.4363 25.4379 24.4427 25.0306 23.4034 25.0014C22.3641 24.9722 21.348 25.3229 20.5634 25.9887L20.5626 25.9878L20.5312 26.0178C12.7242 33.4808 8.33337 43.6046 8.33337 54.1663C8.33337 64.7281 12.7242 74.8519 20.5312 82.3149ZM32.4706 71.736L32.4691 71.7376L32.5126 71.7733C33.3003 72.4187 34.309 72.7529 35.3368 72.7155C36.3647 72.678 37.345 72.2713 38.0802 71.5692C38.8161 70.8664 39.2522 69.9185 39.2923 68.9134C39.3324 67.9082 38.9732 66.9302 38.2942 66.1744L38.2958 66.173L38.2552 66.1343C34.9313 62.9589 33.0695 58.6589 33.0695 54.1815C33.0695 49.7126 34.9242 45.4204 38.2363 42.2468C38.6566 41.8972 39.0003 41.4682 39.2448 40.9846C39.4938 40.4922 39.6342 39.9547 39.6561 39.4059C39.678 38.8571 39.5809 38.3105 39.3716 37.8008C39.1624 37.2911 38.846 36.8303 38.444 36.4463C38.042 36.0624 37.563 35.7635 37.0378 35.5669C36.5126 35.3702 35.9514 35.2796 35.3892 35.3001C34.8269 35.3206 34.2743 35.4517 33.7657 35.6863C33.266 35.9168 32.8185 36.2426 32.4513 36.6454C27.5971 41.2962 24.8655 47.6015 24.8655 54.1815C24.8655 60.7701 27.6044 67.0834 32.4706 71.736ZM38.5863 40.6566C38.384 41.0567 38.0974 41.4126 37.7443 41.7019C34.2793 45.012 32.3328 49.5009 32.3328 54.1815C32.3328 58.862 34.2793 63.3509 37.7443 66.6611C38.2986 67.278 38.5886 68.0721 38.5561 68.8845C38.5237 69.6968 38.1713 70.4675 37.5693 71.0424C36.9674 71.6172 36.1604 71.9538 35.3098 71.9848L35.3085 71.9848C36.1592 71.9538 36.9662 71.6172 37.5681 71.0424C38.17 70.4676 38.5224 69.6969 38.5548 68.8845C38.5873 68.0722 38.2973 67.2781 37.743 66.6611C34.278 63.351 32.3315 58.8621 32.3315 54.1815C32.3315 49.501 34.278 45.0121 37.743 41.7019C38.0961 41.4126 38.3827 41.0568 38.585 40.6567C38.7873 40.2566 38.9009 39.8209 38.9186 39.377C38.9364 38.933 38.8579 38.4903 38.6881 38.0767C38.5183 37.663 38.2608 37.2874 37.9319 36.9732C37.6029 36.6591 37.2095 36.4132 36.7764 36.251C36.4063 36.1124 36.014 36.0375 35.6176 36.0292C36.0145 36.0374 36.4072 36.1123 36.7777 36.251C37.2108 36.4131 37.6042 36.659 37.9331 36.9732C38.2621 37.2873 38.5195 37.663 38.6893 38.0766C38.8591 38.4903 38.9376 38.933 38.9199 39.3769C38.9022 39.8209 38.7886 40.2566 38.5863 40.6566ZM26.6553 28.8578C26.63 28.0365 26.277 27.2555 25.6687 26.6745C25.0603 26.0935 24.2425 25.7565 23.3825 25.7323C23.3185 25.7305 23.2545 25.7304 23.1908 25.7321C23.2541 25.7305 23.3176 25.7305 23.3812 25.7323C24.2412 25.7565 25.059 26.0935 25.6674 26.6745C26.2757 27.2555 26.6287 28.0366 26.654 28.8579C26.6793 29.6792 26.3751 30.4787 25.8036 31.0929C19.3978 37.2133 15.7993 45.5127 15.7993 54.1664C15.7993 62.82 19.3978 71.1194 25.8036 77.2399C26.3751 77.8541 26.6793 78.6536 26.654 79.4749C26.6287 80.2962 26.2757 81.0772 25.6674 81.6582C25.059 82.2392 24.2412 82.5763 23.3812 82.6004L23.3825 82.6004C24.2425 82.5762 25.0603 82.2392 25.6687 81.6582C26.277 81.0772 26.63 80.2961 26.6553 79.4748C26.6806 78.6535 26.3764 77.854 25.8049 77.2399C19.3991 71.1194 15.8006 62.82 15.8006 54.1663C15.8006 45.5127 19.3991 37.2133 25.8048 31.0928C26.3764 30.4787 26.6806 29.6791 26.6553 28.8578ZM79.4367 82.3439L79.4375 82.3449L79.4689 82.3149C87.2759 74.8519 91.6667 64.7281 91.6667 54.1663C91.6667 43.6046 87.2759 33.4808 79.4689 26.0178L79.4698 26.0169L79.4367 25.9887C78.6521 25.3229 77.636 24.9722 76.5967 25.0014C75.5574 25.0306 74.5637 25.4379 73.8206 26.1476C73.0766 26.8582 72.6397 27.8191 72.6084 28.8355C72.5771 29.852 72.954 30.8367 73.654 31.5889L73.6531 31.5898L73.6843 31.6196C79.949 37.6053 83.4627 45.7158 83.4627 54.1663C83.4627 62.6169 79.949 70.7274 73.6843 76.7131L73.6834 76.7122L73.654 76.7438C72.954 77.496 72.5771 78.4807 72.6084 79.4972C72.6397 80.5136 73.0766 81.4745 73.8206 82.185C74.5638 82.8948 75.5574 83.3021 76.5967 83.3313C77.636 83.3605 78.6521 83.0098 79.4367 82.3439ZM67.6474 71.7733L67.6487 71.7749L67.6894 71.736C72.5556 67.0834 75.2944 60.7701 75.2944 54.1815C75.2944 47.6015 72.5628 41.2962 67.7087 36.6453C67.3415 36.2426 66.894 35.9167 66.3943 35.6863C65.8857 35.4517 65.333 35.3205 64.7708 35.3001C64.2086 35.2796 63.6474 35.3702 63.1222 35.5668C62.597 35.7635 62.118 36.0624 61.716 36.4463C61.3139 36.8303 60.9976 37.2911 60.7883 37.8007C60.5791 38.3105 60.482 38.8571 60.5039 39.4059C60.5258 39.9546 60.6662 40.4922 60.9152 40.9846C61.1597 41.4682 61.5033 41.8972 61.9237 42.2468C65.2358 45.4204 67.0904 49.7126 67.0904 54.1815C67.0904 58.6589 65.2287 62.9589 61.9047 66.1343L61.9032 66.1327L61.8658 66.1744C61.1868 66.9302 60.8275 67.9082 60.8677 68.9134C60.9078 69.9185 61.3438 70.8664 62.0798 71.5692C62.8149 72.2713 63.7953 72.678 64.8231 72.7155C65.8509 72.7529 66.8597 72.4187 67.6474 71.7733ZM66.0838 36.3494C66.5027 36.5426 66.8753 36.8163 67.1783 37.1535C71.9035 41.6714 74.5577 47.7959 74.5577 54.1815C74.5577 60.5671 71.9035 66.6916 67.1783 71.2094C66.5851 71.6955 65.8355 71.9688 65.0584 71.9862C65.8351 71.9685 66.5841 71.6953 67.177 71.2095C71.9022 66.6916 74.5564 60.5671 74.5564 54.1815C74.5564 47.7959 71.9022 41.6714 67.177 37.1535C66.874 36.8164 66.5014 36.5426 66.0825 36.3494C65.6636 36.1562 65.2074 36.0477 64.7425 36.0308C64.6737 36.0283 64.605 36.0278 64.5363 36.0293C64.6054 36.0278 64.6746 36.0282 64.7438 36.0308C65.2087 36.0477 65.6649 36.1562 66.0838 36.3494ZM77.0935 25.751C77.7819 25.8249 78.4342 26.1 78.9578 26.5445C86.6238 33.8727 90.93 43.8076 90.93 54.1663C90.93 64.5251 86.6238 74.46 78.9578 81.7882C78.3573 82.2979 77.5875 82.585 76.7879 82.6011C77.587 82.5847 78.3563 82.2977 78.9565 81.7883C86.6226 74.4601 90.9287 64.5251 90.9287 54.1664C90.9287 43.8077 86.6226 33.8727 78.9565 26.5445C78.4333 26.1003 77.7815 25.8251 77.0935 25.751ZM58.1857 54.1664C58.1857 49.6794 54.5206 46.042 49.9996 46.042C49.9424 46.042 49.8853 46.0425 49.8284 46.0437C49.8858 46.0425 49.9432 46.0419 50.0008 46.0419C54.5219 46.0419 58.187 49.6794 58.187 54.1663C58.187 58.53 54.7206 62.0901 50.3717 62.2826C54.72 62.0895 58.1857 58.5296 58.1857 54.1664ZM58.9237 54.1663C58.9237 49.2755 54.9288 45.3107 50.0008 45.3107C45.0729 45.3107 41.0779 49.2755 41.0779 54.1663C41.0779 59.0572 45.0729 63.022 50.0008 63.022C54.9288 63.022 58.9237 59.0572 58.9237 54.1663Z" fill="white"/>
</svg>
