<svg width="100" height="100" viewBox="0 0 100 100" fill="none" xmlns="http://www.w3.org/2000/svg">
<path fill-rule="evenodd" clip-rule="evenodd" d="M49.9999 91.6664C26.9881 91.6664 8.33325 73.0115 8.33325 49.9997C8.33325 26.9878 26.9881 8.33301 49.9999 8.33301C73.0118 8.33301 91.6666 26.9878 91.6666 49.9997C91.6666 73.0115 73.0118 91.6664 49.9999 91.6664ZM49.9999 16.6663C31.5904 16.6663 16.6666 31.5902 16.6666 49.9997C16.6666 68.4092 31.5904 83.333 49.9999 83.333C68.4094 83.333 83.3333 68.4092 83.3333 49.9997C83.3333 31.5902 68.4094 16.6663 49.9999 16.6663ZM41.6666 29.1663C41.6666 26.8652 43.5321 24.9997 45.8333 24.9997H55.2083C63.8377 24.9997 70.8333 31.9952 70.8333 40.6247C70.8333 49.2541 63.8377 56.2497 55.2083 56.2497H49.9999V60.4163H58.3333C60.6344 60.4163 62.4999 62.2818 62.4999 64.583C62.4999 66.8842 60.6344 68.7497 58.3333 68.7497H49.9999V72.9163C49.9999 75.2175 48.1344 77.083 45.8333 77.083C43.5321 77.083 41.6666 75.2175 41.6666 72.9163V68.7497H33.3333C31.0321 68.7497 29.1666 66.8842 29.1666 64.583C29.1666 62.2818 31.0321 60.4163 33.3333 60.4163H41.6666V56.2497H33.3333C31.0321 56.2497 29.1666 54.3842 29.1666 52.083C29.1666 49.7818 31.0321 47.9163 33.3333 47.9163H41.6666V29.1663ZM49.9999 47.9163H55.2083C59.2353 47.9163 62.4999 44.6518 62.4999 40.6247C62.4999 36.5976 59.2353 33.333 55.2083 33.333H49.9999V47.9163Z" fill="white"/>
</svg>
