<svg width="100" height="100" viewBox="0 0 100 100" fill="none" xmlns="http://www.w3.org/2000/svg">
<path fill-rule="evenodd" clip-rule="evenodd" d="M45.8333 20.833C45.8333 18.5318 47.6988 16.6663 50 16.6663C52.3012 16.6663 54.1667 18.5318 54.1667 20.833V47.9163C54.1667 49.1529 54.7159 50.3256 55.6659 51.1173L61.0188 55.578C64.5975 58.5603 66.6667 62.978 66.6667 67.6365C66.6667 76.3054 59.6391 83.333 50.9701 83.333H49.0299C40.3609 83.333 33.3333 76.3054 33.3333 67.6365C33.3333 62.978 35.4025 58.5603 38.9812 55.578L44.3341 51.1173C45.2841 50.3256 45.8333 49.1529 45.8333 47.9163V20.833ZM50 8.33301C43.0964 8.33301 37.5 13.9294 37.5 20.833V45.9648L33.6463 49.1762C28.1677 53.7417 25 60.5049 25 67.6365C25 80.9078 35.7586 91.6664 49.0299 91.6664H50.9701C64.2414 91.6664 75 80.9078 75 67.6365C75 60.5049 71.8323 53.7417 66.3537 49.1762L62.5 45.9648V20.833C62.5 13.9294 56.9036 8.33301 50 8.33301ZM50 58.333C45.3976 58.333 41.6667 62.064 41.6667 66.6663C41.6667 71.2687 45.3976 74.9997 50 74.9997C54.6024 74.9997 58.3333 71.2687 58.3333 66.6663C58.3333 62.064 54.6024 58.333 50 58.333ZM70.8333 20.833C70.8333 18.5318 72.6988 16.6663 75 16.6663H83.3333C85.6345 16.6663 87.5 18.5318 87.5 20.833C87.5 23.1342 85.6345 24.9997 83.3333 24.9997H75C72.6988 24.9997 70.8333 23.1342 70.8333 20.833ZM75 33.333C72.6988 33.333 70.8333 35.1985 70.8333 37.4997C70.8333 39.8009 72.6988 41.6663 75 41.6663H83.3333C85.6345 41.6663 87.5 39.8009 87.5 37.4997C87.5 35.1985 85.6345 33.333 83.3333 33.333H75Z" fill="#0052F9"/>
</svg>
