<svg width="60" height="60" viewBox="0 0 60 60" fill="none" xmlns="http://www.w3.org/2000/svg">
<path fill-rule="evenodd" clip-rule="evenodd" d="M15 5H45C49.1421 5 52.5 8.35786 52.5 12.5V47.5C52.5 51.6421 49.1421 55 45 55H15C10.8579 55 7.5 51.6421 7.5 47.5V12.5C7.5 8.35786 10.8579 5 15 5ZM15 10C13.6193 10 12.5 11.1193 12.5 12.5V47.5C12.5 48.8807 13.6193 50 15 50H45C46.3807 50 47.5 48.8807 47.5 47.5V12.5C47.5 11.1193 46.3807 10 45 10H15ZM15 17.5C15 14.7386 17.2386 12.5 20 12.5H40C42.7614 12.5 45 14.7386 45 17.5V22.5C45 25.2614 42.7614 27.5 40 27.5H20C17.2386 27.5 15 25.2614 15 22.5V17.5ZM25 17.5H20V22.5H25H35H40V17.5H35H25ZM18.75 30C16.6789 30 15 31.6789 15 33.75C15 35.8211 16.6789 37.5 18.75 37.5C20.8211 37.5 22.5 35.8211 22.5 33.75C22.5 31.6789 20.8211 30 18.75 30ZM26.25 33.75C26.25 31.6789 27.9289 30 30 30C32.0711 30 33.75 31.6789 33.75 33.75C33.75 35.8211 32.0711 37.5 30 37.5C27.9289 37.5 26.25 35.8211 26.25 33.75ZM41.25 30C39.1789 30 37.5 31.6789 37.5 33.75V43.75C37.5 45.8211 39.1789 47.5 41.25 47.5C43.3211 47.5 45 45.8211 45 43.75V33.75C45 31.6789 43.3211 30 41.25 30ZM15 43.75C15 41.6789 16.6789 40 18.75 40C20.8211 40 22.5 41.6789 22.5 43.75C22.5 45.8211 20.8211 47.5 18.75 47.5C16.6789 47.5 15 45.8211 15 43.75ZM30 40C27.9289 40 26.25 41.6789 26.25 43.75C26.25 45.8211 27.9289 47.5 30 47.5C32.0711 47.5 33.75 45.8211 33.75 43.75C33.75 41.6789 32.0711 40 30 40Z" fill="#1A1A18"/>
</svg>
