<svg width="54" height="54" viewBox="0 0 54 54" fill="none" xmlns="http://www.w3.org/2000/svg">
<path fill-rule="evenodd" clip-rule="evenodd" d="M13.5 4.5H40.5C44.2279 4.5 47.25 7.52208 47.25 11.25V42.75C47.25 46.4779 44.2279 49.5 40.5 49.5H13.5C9.77208 49.5 6.75 46.4779 6.75 42.75V11.25C6.75 7.52208 9.77208 4.5 13.5 4.5ZM13.5 9C12.2574 9 11.25 10.0074 11.25 11.25V42.75C11.25 43.9926 12.2574 45 13.5 45H40.5C41.7426 45 42.75 43.9926 42.75 42.75V11.25C42.75 10.0074 41.7426 9 40.5 9H13.5ZM13.5 15.75C13.5 13.2647 15.5147 11.25 18 11.25H36C38.4853 11.25 40.5 13.2647 40.5 15.75V20.25C40.5 22.7353 38.4853 24.75 36 24.75H18C15.5147 24.75 13.5 22.7353 13.5 20.25V15.75ZM22.5 15.75H18V20.25H22.5H31.5H36V15.75H31.5H22.5ZM16.875 27C15.011 27 13.5 28.511 13.5 30.375C13.5 32.239 15.011 33.75 16.875 33.75C18.739 33.75 20.25 32.239 20.25 30.375C20.25 28.511 18.739 27 16.875 27ZM23.625 30.375C23.625 28.511 25.136 27 27 27C28.864 27 30.375 28.511 30.375 30.375C30.375 32.239 28.864 33.75 27 33.75C25.136 33.75 23.625 32.239 23.625 30.375ZM37.125 27C35.261 27 33.75 28.511 33.75 30.375V39.375C33.75 41.239 35.261 42.75 37.125 42.75C38.989 42.75 40.5 41.239 40.5 39.375V30.375C40.5 28.511 38.989 27 37.125 27ZM13.5 39.375C13.5 37.511 15.011 36 16.875 36C18.739 36 20.25 37.511 20.25 39.375C20.25 41.239 18.739 42.75 16.875 42.75C15.011 42.75 13.5 41.239 13.5 39.375ZM27 36C25.136 36 23.625 37.511 23.625 39.375C23.625 41.239 25.136 42.75 27 42.75C28.864 42.75 30.375 41.239 30.375 39.375C30.375 37.511 28.864 36 27 36Z" fill="#C2C7CF"/>
</svg>
