<svg width="60" height="60" viewBox="0 0 60 60" fill="none" xmlns="http://www.w3.org/2000/svg">
<path fill-rule="evenodd" clip-rule="evenodd" d="M37.5 47.5L22.5 47.5C18.3579 47.5 15 44.1421 15 40L15 17.5C13.6193 17.5 12.5 18.6193 12.5 20V47.5C12.5 48.8807 13.6193 50 15 50H35C36.3807 50 37.5 48.8807 37.5 47.5ZM39.9961 42.5H22.5C21.1193 42.5 20 41.3807 20 40L20 15V12.5C20 11.1193 21.1193 10 22.5 10L33.75 10L39.4541 10C40.196 10 40.8996 10.3296 41.3746 10.8995L43.75 13.75L46.8981 17.4228C47.2865 17.8759 47.5 18.453 47.5 19.0498V26.25L47.5 40C47.5 41.3807 46.3807 42.5 45 42.5H40.0039C40.0026 42.5 40.0013 42.5 40 42.5C39.9987 42.5 39.9974 42.5 39.9961 42.5ZM42.5 47.5C42.5 51.6421 39.1421 55 35 55H15C10.8579 55 7.5 51.6421 7.5 47.5V20C7.5 15.8579 10.8579 12.5 15 12.5C15 8.35787 18.3579 5 22.5 5H33.75H39.4541C41.6799 5 43.7908 5.98867 45.2157 7.69862L47.5689 10.5224L50.6944 14.1689C51.8596 15.5282 52.5 17.2595 52.5 19.0498V26.25V40C52.5 44.1421 49.1421 47.5 45 47.5L42.5 47.5ZM25 17.5C25 16.1193 26.1193 15 27.5 15H37.5C38.8807 15 40 16.1193 40 17.5C40 18.8807 38.8807 20 37.5 20H27.5C26.1193 20 25 18.8807 25 17.5ZM27.5 23.75C26.1193 23.75 25 24.8693 25 26.25C25 27.6307 26.1193 28.75 27.5 28.75H40C41.3807 28.75 42.5 27.6307 42.5 26.25C42.5 24.8693 41.3807 23.75 40 23.75H27.5ZM25 35C25 33.6193 26.1193 32.5 27.5 32.5H40C41.3807 32.5 42.5 33.6193 42.5 35C42.5 36.3807 41.3807 37.5 40 37.5H27.5C26.1193 37.5 25 36.3807 25 35Z" fill="#1A1A18"/>
</svg>
