<svg width="60" height="60" viewBox="0 0 60 60" fill="none" xmlns="http://www.w3.org/2000/svg">
<path fill-rule="evenodd" clip-rule="evenodd" d="M30 5C18.0765 5 11.0675 13.8885 10.1125 22.888C7.14088 23.8852 5 26.6926 5 30V35C5 39.1421 8.35786 42.5 12.5 42.5C16.6421 42.5 20 39.1421 20 35V30C20 27.0433 18.2891 24.4863 15.8034 23.2648C16.4637 16.8104 20.8285 10 30 10C39.1715 10 43.5363 16.8104 44.1966 23.2648C41.7109 24.4863 40 27.0433 40 30V35C40 37.2213 40.9656 39.217 42.5 40.5903V44.0509C42.5 47.3365 39.8365 50 36.5509 50H35C33.6193 50 32.5 51.1193 32.5 52.5C32.5 53.8807 33.6193 55 35 55H36.5509C42.5979 55 47.5 50.0979 47.5 44.0509V42.5C51.6421 42.5 55 39.1421 55 35V30C55 26.6926 52.8591 23.8852 49.8875 22.888C48.9325 13.8885 41.9235 5 30 5ZM15 30C15 28.6193 13.8807 27.5 12.5 27.5C11.1193 27.5 10 28.6193 10 30V35C10 36.3807 11.1193 37.5 12.5 37.5C13.8807 37.5 15 36.3807 15 35V30ZM47.5 27.5C48.8807 27.5 50 28.6193 50 30V35C50 36.3807 48.8807 37.5 47.5 37.5C46.1193 37.5 45 36.3807 45 35V30C45 28.6193 46.1193 27.5 47.5 27.5Z" fill="#1A1A18"/>
</svg>
