<svg width="402" height="415" viewBox="0 0 402 415" fill="none" xmlns="http://www.w3.org/2000/svg">
<g opacity="0.07">
<path fill-rule="evenodd" clip-rule="evenodd" d="M391.192 180.489L391.219 180.518C405.6 195.388 405.593 219.561 391.201 234.421C384.216 241.626 374.937 245.591 365.071 245.591H359.02V369.922C359.02 394.524 339.62 414.542 315.771 414.542H248.288C242.861 414.542 239.085 410.311 239.085 405.264C239.085 396.786 254.768 372.837 269.014 351.082C275.348 341.409 281.398 332.17 285.66 324.917C299.507 301.351 300.406 280.94 300.406 270.548C300.406 214.51 255.953 169.048 201.303 169.048C146.653 169.048 102.235 215.066 102.235 270.548C102.235 296.161 109.788 312.299 116.442 324.175C118.247 327.397 122.542 333.817 127.843 341.74C142.075 363.014 163.557 395.124 163.557 405.264C163.557 411.573 158.162 414.542 154.597 414.542H86.8981C63.0493 414.542 43.6499 394.524 43.6499 369.922V245.591H37.1242C36.7414 245.591 36.3617 245.572 35.985 245.535C26.7095 245.124 18.0341 241.196 11.4655 234.415C-2.91175 219.58 -2.93625 195.448 11.3951 180.574C11.4502 180.518 11.5054 180.458 11.5605 180.401L175.204 11.545C182.186 4.3406 191.465 0.375 201.335 0.375C211.204 0.375 220.483 4.34376 227.462 11.5482L391.192 180.489Z" fill="url(#paint0_linear_14_49)"/>
<path d="M154.597 414.542H248.288C242.861 414.542 239.085 410.311 239.085 405.264C239.085 396.786 254.768 372.837 269.014 351.082C275.348 341.409 281.398 332.17 285.66 324.917C299.507 301.351 300.406 280.94 300.406 270.548C300.406 214.51 255.953 169.048 201.303 169.048C146.653 169.048 102.235 215.066 102.235 270.548C102.235 296.161 109.788 312.299 116.442 324.175C118.247 327.397 122.542 333.817 127.843 341.74C142.075 363.014 163.557 395.124 163.557 405.264C163.557 411.573 158.162 414.542 154.597 414.542Z" fill="url(#paint1_linear_14_49)"/>
<mask id="mask0_14_49" style="mask-type:alpha" maskUnits="userSpaceOnUse" x="0" y="0" width="402" height="415">
<path fill-rule="evenodd" clip-rule="evenodd" d="M391.192 180.489L391.219 180.518C405.6 195.388 405.593 219.561 391.201 234.421C384.216 241.626 374.937 245.591 365.071 245.591H359.02V369.922C359.02 394.524 339.62 414.542 315.771 414.542H248.288C242.861 414.542 239.085 410.311 239.085 405.264C239.085 396.786 254.768 372.837 269.014 351.082C275.348 341.409 281.398 332.17 285.66 324.917C299.507 301.351 300.406 280.94 300.406 270.548C300.406 214.51 255.953 169.048 201.303 169.048C146.653 169.048 102.235 215.066 102.235 270.548C102.235 296.161 109.788 312.299 116.442 324.175C118.247 327.397 122.542 333.817 127.843 341.74C142.075 363.014 163.557 395.124 163.557 405.264C163.557 411.573 158.162 414.542 154.597 414.542H86.8981C63.0493 414.542 43.6499 394.524 43.6499 369.922V245.591H37.1242C36.7414 245.591 36.3617 245.572 35.985 245.535C26.7095 245.124 18.0341 241.196 11.4655 234.415C-2.91175 219.58 -2.93625 195.448 11.3951 180.574C11.4502 180.518 11.5054 180.458 11.5605 180.401L175.204 11.545C182.186 4.3406 191.465 0.375 201.335 0.375C211.204 0.375 220.483 4.34376 227.462 11.5482L391.192 180.489Z" fill="url(#paint2_linear_14_49)"/>
<path d="M154.597 414.542H248.288C242.861 414.542 239.085 410.311 239.085 405.264C239.085 396.786 254.768 372.837 269.014 351.082C275.348 341.409 281.398 332.17 285.66 324.917C299.507 301.351 300.406 280.94 300.406 270.548C300.406 214.51 255.953 169.048 201.303 169.048C146.653 169.048 102.235 215.066 102.235 270.548C102.235 296.161 109.788 312.299 116.442 324.175C118.247 327.397 122.542 333.817 127.843 341.74C142.075 363.014 163.557 395.124 163.557 405.264C163.557 411.573 158.162 414.542 154.597 414.542Z" fill="url(#paint3_linear_14_49)"/>
</mask>
<g mask="url(#mask0_14_49)">
<ellipse cx="408.261" cy="308.959" rx="369.869" ry="381.694" fill="#6FAFFD" fill-opacity="0.3"/>
<ellipse cx="382.01" cy="370.565" rx="288.595" ry="297.822" fill="#92C3FF" fill-opacity="0.5"/>
<ellipse cx="370.141" cy="446.273" rx="195.094" ry="201.331" fill="#9DC9FF" fill-opacity="0.73"/>
</g>
<path d="M215.816 164.78C215.816 164.78 193.766 167.832 186.991 180.108C181.344 190.34 184.984 198.742 192.631 203.921C192.108 204.747 191.583 205.612 191.055 206.57L193.6 208.108C195.291 205.044 196.989 202.755 198.629 200.542C201.845 196.205 205.167 191.699 208.273 181.618C208.465 190.089 201.529 200.555 198.891 207.006C205.815 209.172 212.786 207.17 217.539 198.559C224.314 186.282 215.816 164.78 215.816 164.78Z" fill="#E3E7EF"/>
<path d="M186.786 371.864C186.786 371.864 208.836 368.812 215.611 356.536C221.258 346.304 217.618 337.902 209.971 332.723C210.493 331.897 211.018 331.032 211.547 330.074L209.001 328.536C207.31 331.6 205.613 333.889 203.972 336.102C200.757 340.439 197.435 344.945 194.329 355.026C194.137 346.555 201.073 336.089 203.711 329.638C196.786 327.472 189.816 329.473 185.063 338.085C178.287 350.362 186.786 371.864 186.786 371.864Z" fill="#E3E7EF"/>
<path d="M264.021 185C264.021 185 243.467 176.109 231.732 183.197C221.951 189.104 221.088 198.284 225.235 206.769C224.387 207.212 223.519 207.686 222.603 208.24L224.073 210.903C227.002 209.134 229.566 208.039 232.045 206.981C236.902 204.907 241.933 202.742 249.441 195.637C245.559 203.073 234.549 208.509 229.182 212.715C234.143 218.213 241.136 220.126 249.368 215.154C261.104 208.066 264.021 185 264.021 185Z" fill="#E3E7EF"/>
<path d="M138.581 351.644C138.581 351.644 159.135 360.535 170.87 353.447C180.65 347.54 181.514 338.36 177.367 329.875C178.214 329.432 179.083 328.957 179.998 328.404L178.529 325.741C175.6 327.51 173.035 328.605 170.557 329.663C165.7 331.737 160.669 333.902 153.161 341.007C157.043 333.571 168.053 328.135 173.42 323.929C168.459 318.431 161.465 316.518 153.233 321.49C141.498 328.578 138.581 351.644 138.581 351.644Z" fill="#E3E7EF"/>
<path d="M295.766 229.794C295.766 229.794 282.216 211.343 268.665 211.343C257.372 211.343 252.236 218.842 251.772 228.359C250.827 228.299 249.848 228.256 248.791 228.256V231.331C252.172 231.331 254.916 231.725 257.568 232.105C262.766 232.849 268.158 233.606 278.056 231.379C271.14 235.789 259.007 234.738 252.348 235.573C254.017 242.929 259.159 248.244 268.665 248.244C282.216 248.244 295.766 229.794 295.766 229.794Z" fill="#E3E7EF"/>
<path d="M106.835 306.85C106.835 306.85 120.386 325.301 133.937 325.301C145.23 325.301 150.366 317.802 150.829 308.285C151.775 308.345 152.754 308.388 153.811 308.388L153.811 305.313C150.429 305.313 147.685 304.919 145.033 304.539C139.836 303.795 134.444 303.038 124.546 305.265C131.462 300.855 143.595 301.906 150.253 301.071C148.584 293.714 143.442 288.4 133.937 288.4C120.386 288.4 106.835 306.85 106.835 306.85Z" fill="#E3E7EF"/>
<path d="M301.635 283.548C301.635 283.548 298.718 260.481 286.983 253.393C277.202 247.486 269.171 251.294 264.22 259.294C263.43 258.747 262.603 258.198 261.687 257.645L260.218 260.308C263.146 262.077 265.335 263.853 267.45 265.569C271.595 268.932 275.903 272.408 285.539 275.657C277.442 275.858 267.437 268.602 261.271 265.842C259.201 273.086 261.114 280.378 269.346 285.35C281.081 292.438 301.635 283.548 301.635 283.548Z" fill="#E3E7EF"/>
<path d="M100.967 253.096C100.967 253.096 103.884 276.163 115.619 283.251C125.399 289.158 133.431 285.35 138.381 277.35C139.171 277.897 139.999 278.446 140.914 278.999L142.384 276.336C139.455 274.567 137.267 272.791 135.152 271.075C131.006 267.712 126.699 264.236 117.063 260.987C125.16 260.786 135.165 268.042 141.33 270.802C143.401 263.558 141.488 256.266 133.256 251.294C121.521 244.206 100.967 253.096 100.967 253.096Z" fill="#E3E7EF"/>
<path d="M280.283 332.21C280.283 332.21 288.781 310.708 282.006 298.432C276.359 288.2 267.584 287.297 259.473 291.635C259.05 290.749 258.596 289.84 258.068 288.882L255.522 290.42C257.213 293.484 258.259 296.167 259.271 298.759C261.253 303.84 263.323 309.104 270.115 316.958C263.006 312.896 257.81 301.379 253.789 295.764C248.534 300.954 246.705 308.27 251.458 316.882C258.233 329.159 280.283 332.21 280.283 332.21Z" fill="#E3E7EF"/>
<path d="M122.319 204.434C122.319 204.434 113.82 225.936 120.596 238.212C126.243 248.444 135.018 249.347 143.129 245.009C143.551 245.895 144.006 246.804 144.534 247.761L147.08 246.224C145.389 243.16 144.343 240.477 143.331 237.885C141.349 232.804 139.279 227.54 132.487 219.686C139.595 223.747 144.792 235.265 148.813 240.88C154.068 235.689 155.897 228.374 151.144 219.762C144.368 207.485 122.319 204.434 122.319 204.434Z" fill="#E3E7EF"/>
<path d="M237.12 364.3C237.12 364.3 254.757 350.124 254.757 335.948C254.757 324.134 247.589 318.761 238.492 318.276C238.549 317.287 238.59 316.263 238.59 315.157H235.651C235.651 318.695 235.275 321.565 234.911 324.34C234.2 329.777 233.476 335.418 235.605 345.772C231.39 338.537 232.394 325.845 231.596 318.879C224.564 320.625 219.483 326.004 219.483 335.948C219.483 350.124 237.12 364.3 237.12 364.3Z" fill="#E3E7EF"/>
<path d="M165.481 172.344C165.481 172.344 147.845 186.52 147.845 200.696C147.845 212.51 155.012 217.882 164.11 218.368C164.053 219.357 164.012 220.381 164.012 221.487H166.951C166.951 217.949 167.327 215.078 167.69 212.304C168.402 206.867 169.125 201.226 166.997 190.872C171.212 198.107 170.207 210.799 171.006 217.765C178.038 216.019 183.118 210.64 183.118 200.696C183.118 186.52 165.481 172.344 165.481 172.344Z" fill="#E3E7EF"/>
</g>
<defs>
<linearGradient id="paint0_linear_14_49" x1="0.632606" y1="-72.7351" x2="467.045" y2="459.666" gradientUnits="userSpaceOnUse">
<stop stop-color="#439DE3"/>
<stop offset="1" stop-color="#0052F9"/>
</linearGradient>
<linearGradient id="paint1_linear_14_49" x1="0.632606" y1="-72.7351" x2="467.045" y2="459.666" gradientUnits="userSpaceOnUse">
<stop stop-color="#439DE3"/>
<stop offset="1" stop-color="#0052F9"/>
</linearGradient>
<linearGradient id="paint2_linear_14_49" x1="0.632606" y1="-72.7351" x2="467.045" y2="459.666" gradientUnits="userSpaceOnUse">
<stop stop-color="#439DE3"/>
<stop offset="1" stop-color="#0052F9"/>
</linearGradient>
<linearGradient id="paint3_linear_14_49" x1="0.632606" y1="-72.7351" x2="467.045" y2="459.666" gradientUnits="userSpaceOnUse">
<stop stop-color="#439DE3"/>
<stop offset="1" stop-color="#0052F9"/>
</linearGradient>
</defs>
</svg>
