<svg width="60" height="60" viewBox="0 0 60 60" fill="none" xmlns="http://www.w3.org/2000/svg">
<path fill-rule="evenodd" clip-rule="evenodd" d="M14.0994 10.9634C14.5731 10.3555 15.3008 10 16.0714 10H43.9286C44.6993 10 45.4269 10.3555 45.9006 10.9634L54.472 21.9634C55.2287 22.9344 55.1658 24.3118 54.3239 25.2099L31.8239 49.2099C31.3512 49.714 30.691 50 30 50C29.309 50 28.6488 49.714 28.1762 49.2099L5.67617 25.2099C4.83421 24.3118 4.77135 22.9344 5.52801 21.9634L14.0994 10.9634ZM17.2928 15L10.7862 23.35L30 43.8447L49.2138 23.35L42.7073 15H17.2928Z" fill="#1A1A18"/>
</svg>
