<svg width="54" height="54" viewBox="0 0 54 54" fill="none" xmlns="http://www.w3.org/2000/svg">
<path fill-rule="evenodd" clip-rule="evenodd" d="M23.25 49.5C20.7647 49.5 18.75 47.4853 18.75 45V30.9018C14.3549 29.1443 11.25 24.8469 11.25 19.8243V14.625C11.25 9.03312 15.7831 4.5 21.375 4.5C23.8603 4.5 25.875 6.51472 25.875 9V16.875C25.875 17.4963 26.3787 18 27 18C27.6213 18 28.125 17.4963 28.125 16.875V9C28.125 6.51472 30.1397 4.5 32.625 4.5C38.2169 4.5 42.75 9.03313 42.75 14.625V19.8243C42.75 24.8469 39.6451 29.1443 35.25 30.9018V45C35.25 47.4853 33.2353 49.5 30.75 49.5H23.25ZM30.75 45H23.25V27.3243C23.25 27.2832 23.2168 27.25 23.1757 27.25C19.0746 27.25 15.75 23.9254 15.75 19.8243V14.625C15.75 13.3584 16.1686 12.1897 16.875 11.2495C17.9013 9.88351 19.535 9 21.375 9V16.875C21.375 19.9816 23.8934 22.5 27 22.5C30.1066 22.5 32.625 19.9816 32.625 16.875V9C34.4651 9 36.0987 9.88351 37.125 11.2495C37.8314 12.1897 38.25 13.3585 38.25 14.625V19.8243C38.25 23.9254 34.9254 27.25 30.8243 27.25C30.7832 27.25 30.75 27.2832 30.75 27.3243V45Z" fill="#C2C7CF"/>
</svg>
