<svg width="22" height="22" viewBox="0 0 22 22" fill="none" xmlns="http://www.w3.org/2000/svg">
<path d="M11.1453 14.1032C12.314 14.1032 13.2614 13.1558 13.2614 11.9871C13.2614 10.8185 12.314 9.87109 11.1453 9.87109C9.97668 9.87109 9.0293 10.8185 9.0293 11.9871C9.0293 13.1558 9.97668 14.1032 11.1453 14.1032Z" fill="#969CA6"/>
<path d="M11.1453 9.02554C11.7308 9.02502 12.3033 9.19908 12.7894 9.52548C12.9666 9.05106 13.199 8.59916 13.4819 8.17912C14.3587 6.90949 14.7819 6.50744 14.7819 5.63986C14.7819 4.66868 13.5123 3.52381 11.3962 3.52381C10.7902 3.48986 10.1845 3.59496 9.62532 3.83106C9.06616 4.06717 8.5684 4.42803 8.17011 4.88604C7.86168 5.22216 7.65111 5.63628 7.56122 6.08352C7.47133 6.53076 7.50554 6.99408 7.66014 7.42327L8.71677 10.2964C8.9891 9.90446 9.35218 9.58419 9.77504 9.3629C10.1979 9.14161 10.668 9.02587 11.1453 9.02554Z" fill="#969CA6"/>
<path d="M8.18282 11.9871C8.18282 11.922 8.1884 11.8583 8.19259 11.7942C7.69251 11.8782 7.18427 11.903 6.67839 11.868C5.14044 11.7435 4.58062 11.578 3.82929 12.0119C2.98825 12.4975 2.63161 14.1695 3.68963 16.002C3.96324 16.5439 4.35714 17.0159 4.8412 17.3822C5.32527 17.7484 5.88667 17.999 6.48248 18.115C6.9278 18.214 7.39171 18.1892 7.82397 18.0434C8.25623 17.8976 8.64036 17.6363 8.93473 17.2878L10.8942 14.937C10.1552 14.8735 9.46683 14.5354 8.9649 13.9893C8.46296 13.4432 8.18392 12.7288 8.18282 11.9871Z" fill="#969CA6"/>
<path d="M18.7834 12.9623C18.6464 12.5271 18.3931 12.1377 18.0506 11.8363C17.7082 11.5348 17.2898 11.3328 16.8408 11.2522L13.8233 10.7305C14.1556 11.4314 14.1983 12.235 13.942 12.9671C13.6857 13.6993 13.1512 14.3009 12.4543 14.6415C12.7772 15.0326 13.0528 15.4604 13.2754 15.9161C13.9365 17.3102 14.0731 17.8778 14.8243 18.3115C15.6654 18.7971 17.2916 18.27 18.3497 16.4374C18.6821 15.9296 18.8941 15.3524 18.9692 14.7501C19.0444 14.1478 18.9808 13.5362 18.7834 12.9623Z" fill="#969CA6"/>
</svg>
