<svg width="32" height="32" viewBox="0 0 32 32" fill="none" xmlns="http://www.w3.org/2000/svg">
<path d="M16.2117 20.5142C17.9115 20.5142 19.2896 19.1362 19.2896 17.4363C19.2896 15.7364 17.9115 14.3584 16.2117 14.3584C14.5118 14.3584 13.1338 15.7364 13.1338 17.4363C13.1338 19.1362 14.5118 20.5142 16.2117 20.5142Z" fill="white"/>
<path d="M16.2112 13.1273C17.063 13.1265 17.8956 13.3797 18.6027 13.8545C18.8604 13.1644 19.1985 12.5071 19.61 11.8962C20.8853 10.0494 21.5009 9.46462 21.5009 8.20268C21.5009 6.79005 19.6542 5.12479 16.5763 5.12479C15.6948 5.07541 14.8137 5.22828 14.0004 5.5717C13.187 5.91513 12.463 6.44001 11.8837 7.10621C11.4351 7.59511 11.1288 8.19747 10.998 8.848C10.8673 9.49854 10.9171 10.1725 11.1419 10.7967L12.6789 14.9758C13.075 14.4057 13.6031 13.9399 14.2182 13.618C14.8332 13.2961 15.517 13.1278 16.2112 13.1273Z" fill="white"/>
<path d="M11.9022 17.4364C11.9022 17.3417 11.9103 17.2491 11.9164 17.1558C11.189 17.278 10.4498 17.3141 9.71393 17.2631C7.47692 17.082 6.66263 16.8414 5.56979 17.4724C4.34645 18.1788 3.82771 20.6107 5.36665 23.2763C5.76463 24.0644 6.33757 24.7511 7.04166 25.2838C7.74575 25.8164 8.56235 26.181 9.42898 26.3497C10.0767 26.4937 10.7515 26.4577 11.3802 26.2456C12.009 26.0335 12.5677 25.6535 12.9959 25.1466L15.846 21.7271C14.7711 21.6348 13.7698 21.143 13.0398 20.3487C12.3097 19.5544 11.9038 18.5153 11.9022 17.4364Z" fill="white"/>
<path d="M27.3211 18.8534C27.1219 18.2205 26.7534 17.6541 26.2553 17.2156C25.7572 16.7771 25.1487 16.4833 24.4956 16.366L20.1065 15.6072C20.5899 16.6267 20.6519 17.7956 20.2791 18.8605C19.9064 19.9254 19.1289 20.8005 18.1152 21.296C18.5848 21.8648 18.9857 22.4871 19.3095 23.1499C20.2711 25.1778 20.4698 26.0033 21.5625 26.6341C22.7859 27.3404 25.1513 26.5737 26.6902 23.9082C27.1739 23.1695 27.4821 22.33 27.5915 21.4539C27.7008 20.5778 27.6083 19.6883 27.3211 18.8534Z" fill="white"/>
</svg>
