<svg width="32" height="32" viewBox="0 0 32 32" fill="none" xmlns="http://www.w3.org/2000/svg">
<path fill-rule="evenodd" clip-rule="evenodd" d="M16 5.33301C16.4387 5.33301 16.8494 5.54885 17.0982 5.91023L21.9676 12.9828C23.2913 14.9054 24 17.1846 24 19.5188C24 23.4663 20.7999 26.6663 16.8525 26.6663H15.1475C11.2001 26.6663 8 23.4663 8 19.5188C8 17.1846 8.70874 14.9054 10.0324 12.9828L14.9018 5.91023C15.1506 5.54885 15.5613 5.33301 16 5.33301ZM16 9.01756L12.2289 14.495C11.2114 15.9728 10.6667 17.7246 10.6667 19.5188C10.6667 21.9935 12.6728 23.9997 15.1475 23.9997H16.8525C19.3272 23.9997 21.3333 21.9935 21.3333 19.5188C21.3333 17.7246 20.7886 15.9728 19.7711 14.495L16 9.01756Z" fill="white"/>
<path d="M12.2289 14.495L16 9.01756L19.7711 14.495C20.7886 15.9728 21.3333 17.7246 21.3333 19.5188C21.3333 21.9935 19.3272 23.9997 16.8525 23.9997H15.1475C12.6728 23.9997 10.6667 21.9935 10.6667 19.5188C10.6667 17.7246 11.2114 15.9728 12.2289 14.495Z" fill="white"/>
</svg>
