<svg width="22" height="22" viewBox="0 0 22 22" fill="none" xmlns="http://www.w3.org/2000/svg">
<path fill-rule="evenodd" clip-rule="evenodd" d="M11.0001 1.83398C11.5063 1.83398 11.9167 2.24439 11.9167 2.75065V4.20429L12.1852 3.9358C12.5432 3.57782 13.1236 3.57782 13.4816 3.9358C13.8396 4.29378 13.8396 4.87418 13.4816 5.23217L11.9167 6.79701V9.4136L14.1826 8.10543L14.7553 5.9681C14.8863 5.47909 15.3889 5.18889 15.8779 5.31992C16.367 5.45095 16.6572 5.95359 16.5261 6.4426L16.4279 6.80906L17.6876 6.08179C18.126 5.82866 18.6867 5.97888 18.9398 6.41732C19.1929 6.85575 19.0427 7.41638 18.6043 7.66951L17.3442 8.39699L17.7113 8.49534C18.2003 8.62637 18.4905 9.12901 18.3595 9.61802C18.2284 10.107 17.7258 10.3972 17.2368 10.2662L15.0989 9.69335L12.8346 11.0006L15.0997 12.3085L17.2368 11.7358C17.7258 11.6048 18.2284 11.895 18.3595 12.384C18.4905 12.873 18.2003 13.3757 17.7113 13.5067L17.3451 13.6048L18.6043 14.3318C19.0427 14.5849 19.1929 15.1455 18.9398 15.584C18.6867 16.0224 18.126 16.1726 17.6876 15.9195L16.4277 15.1921L16.5261 15.5594C16.6572 16.0485 16.367 16.5511 15.8779 16.6821C15.3889 16.8132 14.8863 16.523 14.7553 16.0339L14.1823 13.8957L11.9167 12.5877V15.2043L13.4816 16.7691C13.8396 17.1271 13.8396 17.7075 13.4816 18.0655C13.1236 18.4235 12.5432 18.4235 12.1852 18.0655L11.9167 17.797V19.2507C11.9167 19.7569 11.5063 20.1673 11.0001 20.1673C10.4938 20.1673 10.0834 19.7569 10.0834 19.2507V17.797L9.81492 18.0655C9.45694 18.4235 8.87654 18.4235 8.51856 18.0655C8.16058 17.7075 8.16058 17.1271 8.51856 16.7691L10.0834 15.2043V12.589L7.81778 13.8971L7.24488 16.0352C7.11385 16.5242 6.61121 16.8144 6.1222 16.6834C5.63319 16.5524 5.34298 16.0497 5.47401 15.5607L5.57242 15.1934L4.31485 15.9195C3.87642 16.1726 3.31579 16.0224 3.06266 15.584C2.80953 15.1455 2.95975 14.5849 3.39818 14.3318L4.65512 13.6061L4.28886 13.508C3.79985 13.3769 3.50965 12.8743 3.64068 12.3853C3.77171 11.8963 4.27435 11.6061 4.76336 11.7371L6.90049 12.3097L9.16789 11.0006L6.90198 9.69242L4.76336 10.2655C4.27435 10.3965 3.77171 10.1063 3.64068 9.61728C3.50965 9.12827 3.79985 8.62563 4.28886 8.4946L4.65661 8.39606L3.39818 7.66951C2.95975 7.41638 2.80953 6.85575 3.06266 6.41732C3.31579 5.97888 3.87642 5.82866 4.31485 6.08179L5.57202 6.80762L5.47401 6.44185C5.34298 5.95284 5.63318 5.4502 6.1222 5.31917C6.61121 5.18814 7.11385 5.47834 7.24488 5.96735L7.81739 8.10398L10.0834 9.41227V6.79701L8.51856 5.23217C8.16058 4.87418 8.16058 4.29378 8.51856 3.9358C8.87654 3.57782 9.45694 3.57782 9.81492 3.9358L10.0834 4.20429V2.75065C10.0834 2.24439 10.4938 1.83398 11.0001 1.83398Z" fill="#969CA6"/>
</svg>
