<svg width="100" height="100" viewBox="0 0 100 100" fill="none" xmlns="http://www.w3.org/2000/svg">
<path fill-rule="evenodd" clip-rule="evenodd" d="M62.5 12.5H37.5C30.5964 12.5 25 18.0964 25 25V75C25 81.9035 30.5964 87.5 37.5 87.5H62.5C69.4036 87.5 75 81.9035 75 75V25C75 18.0964 69.4036 12.5 62.5 12.5ZM33.3333 25C33.3333 22.6988 35.1988 20.8333 37.5 20.8333H62.5C64.8012 20.8333 66.6667 22.6988 66.6667 25V75C66.6667 77.3012 64.8012 79.1667 62.5 79.1667H37.5C35.1988 79.1667 33.3333 77.3012 33.3333 75V25ZM45.8333 16.1667C43.5321 16.1667 41.5 18.5321 41.5 20.8333C41.5 23.1345 43.5321 24.5 45.8333 24.5H54.1667C56.4679 24.5 58.5 23.1345 58.5 20.8333C58.5 18.5321 56.4679 16.1667 54.1667 16.1667H45.8333Z" fill="white"/>
<path d="M41.5 20.8333H58.5C58.5 18.5321 56.4679 16.1667 54.1667 16.1667H45.8333C43.5321 16.1667 41.5 18.5321 41.5 20.8333Z" fill="white"/>
</svg>
