<svg width="100" height="100" viewBox="0 0 100 100" fill="none" xmlns="http://www.w3.org/2000/svg">
<path fill-rule="evenodd" clip-rule="evenodd" d="M66.6666 33.3333C57.4618 33.3333 49.9999 40.7953 49.9999 50C49.9999 59.2047 57.4618 66.6667 66.6666 66.6667C75.8713 66.6667 83.3333 59.2047 83.3333 50C83.3333 40.7953 75.8713 33.3333 66.6666 33.3333ZM48.0324 66.6667C44.0737 62.2437 41.6666 56.403 41.6666 50C41.6666 43.597 44.0737 37.7563 48.0324 33.3333H33.3333C24.1285 33.3333 16.6666 40.7953 16.6666 50C16.6666 59.2047 24.1285 66.6667 33.3333 66.6667H48.0324ZM8.33325 50C8.33325 36.1929 19.5261 25 33.3333 25H66.6666C80.4737 25 91.6666 36.1929 91.6666 50C91.6666 63.8071 80.4737 75 66.6666 75H33.3333C19.5261 75 8.33325 63.8071 8.33325 50Z" fill="white"/>
</svg>
