<svg width="100" height="100" viewBox="0 0 100 100" fill="none" xmlns="http://www.w3.org/2000/svg">
<path fill-rule="evenodd" clip-rule="evenodd" d="M74.3387 14.4142C73.5721 13.2212 72.2514 12.5 70.8333 12.5C69.4153 12.5 68.0946 13.2212 67.328 14.4142L58.27 28.5102C55.591 32.6794 54.1667 37.5306 54.1667 42.4863C54.1667 51.2384 61.2616 58.3333 70.0137 58.3333H70.8333H71.653C80.4051 58.3333 87.5 51.2384 87.5 42.4863C87.5 37.5306 86.0757 32.6794 83.3966 28.5102L74.3387 14.4142ZM65.2807 33.0152L70.8333 24.3742L76.386 33.0152C78.2014 35.8405 79.1667 39.128 79.1667 42.4863C79.1667 46.636 75.8027 50 71.653 50H70.8333H70.0137C65.864 50 62.5 46.636 62.5 42.4863C62.5 39.128 63.4652 35.8405 65.2807 33.0152ZM36.8387 31.0808C36.0721 29.8879 34.7514 29.1667 33.3333 29.1667C31.9153 29.1667 30.5946 29.8879 29.828 31.0808L17.7507 49.8756C14.3226 55.2104 12.5 61.4182 12.5 67.7596C12.5 78.6619 21.3381 87.5 32.2404 87.5H33.3333H34.4262C45.3286 87.5 54.1667 78.6619 54.1667 67.7596C54.1667 61.4182 52.3441 55.2105 48.916 49.8756L36.8387 31.0808ZM24.7614 54.3806L33.3333 41.0409L41.9053 54.3806C44.4699 58.3716 45.8333 63.0156 45.8333 67.7596C45.8333 74.0595 40.7262 79.1667 34.4262 79.1667H33.3333H32.2404C25.9405 79.1667 20.8333 74.0595 20.8333 67.7596C20.8333 63.0156 22.1968 58.3716 24.7614 54.3806Z" fill="#0052F9"/>
</svg>
