<svg width="100" height="100" viewBox="0 0 100 100" fill="none" xmlns="http://www.w3.org/2000/svg">
<path fill-rule="evenodd" clip-rule="evenodd" d="M49.9999 8.33301C52.3011 8.33301 54.1665 10.1985 54.1665 12.4997V19.1071L55.3869 17.8867C57.0141 16.2595 59.6523 16.2595 61.2795 17.8867C62.9067 19.5139 62.9067 22.1521 61.2795 23.7793L54.1665 30.8922V42.7858L64.4658 36.8396L67.0689 27.1244C67.6645 24.9017 69.9493 23.5826 72.172 24.1782C74.3948 24.7737 75.7139 27.0585 75.1183 29.2813L74.672 30.947L80.3978 27.6412C82.3906 26.4906 84.9389 27.1735 86.0895 29.1663C87.2401 31.1592 86.5573 33.7075 84.5644 34.8581L78.837 38.1649L80.5054 38.6119C82.7282 39.2075 84.0473 41.4922 83.4517 43.715C82.8561 45.9378 80.5713 47.2569 78.3486 46.6613L68.6308 44.0574L58.3385 49.9997L68.6348 55.9442L78.3486 53.3414C80.5713 52.7458 82.8561 54.0649 83.4517 56.2877C84.0473 58.5105 82.7282 60.7952 80.5054 61.3908L78.841 61.8368L84.5644 65.1412C86.5573 66.2918 87.2401 68.8401 86.0895 70.833C84.9389 72.8259 82.3906 73.5087 80.3978 72.3581L74.6709 69.0517L75.1183 70.7215C75.7139 72.9443 74.3948 75.229 72.172 75.8246C69.9493 76.4202 67.6645 75.1011 67.0689 72.8783L64.4647 63.1592L54.1665 57.2135V69.1071L61.2795 76.2201C62.9067 77.8473 62.9067 80.4854 61.2795 82.1126C59.6523 83.7398 57.0141 83.7398 55.3869 82.1126L54.1665 80.8922V87.4997C54.1665 89.8009 52.3011 91.6664 49.9999 91.6664C47.6987 91.6664 45.8332 89.8009 45.8332 87.4997V80.8922L44.6128 82.1126C42.9856 83.7398 40.3475 83.7398 38.7203 82.1126C37.0931 80.4854 37.0931 77.8473 38.7203 76.2201L45.8332 69.1071V57.2196L35.5349 63.1653L32.9308 72.884C32.3352 75.1068 30.0505 76.4259 27.8277 75.8303C25.6049 75.2347 24.2859 72.95 24.8814 70.7272L25.3287 69.0578L19.6125 72.3581C17.6196 73.5087 15.0713 72.8259 13.9207 70.833C12.7701 68.8401 13.453 66.2918 15.4458 65.1412L21.1592 61.8426L19.4944 61.3965C17.2716 60.8009 15.9525 58.5162 16.5481 56.2934C17.1437 54.0707 19.4284 52.7516 21.6512 53.3472L31.3654 55.9501L41.6718 49.9997L31.3722 44.0532L21.6512 46.6579C19.4284 47.2535 17.1437 45.9344 16.5481 43.7116C15.9525 41.4889 17.2716 39.2041 19.4944 38.6085L21.166 38.1606L15.4458 34.8581C13.453 33.7075 12.7701 31.1592 13.9207 29.1663C15.0713 27.1735 17.6196 26.4906 19.6125 27.6412L25.3269 30.9405L24.8814 29.2779C24.2859 27.0551 25.6049 24.7704 27.8277 24.1748C30.0505 23.5792 32.3352 24.8983 32.9308 27.1211L35.5331 36.833L45.8332 42.7798V30.8922L38.7203 23.7793C37.0931 22.1521 37.0931 19.5139 38.7203 17.8867C40.3475 16.2595 42.9856 16.2595 44.6128 17.8867L45.8332 19.1071V12.4997C45.8332 10.1985 47.6987 8.33301 49.9999 8.33301Z" fill="#0052F9"/>
</svg>
